<?plantuml 1.2026.2beta3?><svg xmlns="http://www.w3.org/2000/svg" xmlns:xlink="http://www.w3.org/1999/xlink" contentStyleType="text/css" data-diagram-type="CLASS" height="1002px" preserveAspectRatio="none" style="width:3076px;height:1002px;background:#FFFFFF;" version="1.1" viewBox="0 0 3076 1002" width="3076px" zoomAndPan="magnify"><title>DSL - Unified Stage Model (Class Diagram)</title><defs/><g><g class="title" data-source-line="1"><text fill="#000000" font-family="sans-serif" font-size="14" font-weight="bold" lengthAdjust="spacing" textLength="336.6357" x="1362.8499" y="22.9951">DSL - Unified Stage Model (Class Diagram)</text></g><!--class StageRules--><g class="entity" data-qualified-name="StageRules" data-source-line="3" id="ent0002"><rect fill="#F1F1F1" height="48" rx="2.5" ry="2.5" style="stroke:#181818;stroke-width:0.5;" width="110.8525" x="339.66" y="234.7869"/><ellipse cx="354.66" cy="250.7869" fill="#A9DCDF" rx="11" ry="11" style="stroke:#181818;stroke-width:1;"/><path d="M354.7694,246.1306 L353.6131,251.2088 L355.9413,251.2088 L354.7694,246.1306 Z M353.285,243.8963 L356.2694,243.8963 L359.6288,256.2869 L357.1756,256.2869 L356.41,253.2244 L353.1288,253.2244 L352.3788,256.2869 L349.9413,256.2869 L353.285,243.8963 Z " fill="#000000"/><text fill="#000000" font-family="sans-serif" font-size="14" font-style="italic" lengthAdjust="spacing" textLength="78.8525" x="368.66" y="255.6336">StageRules</text><line style="stroke:#181818;stroke-width:0.5;" x1="340.66" x2="449.5125" y1="266.7869" y2="266.7869"/><line style="stroke:#181818;stroke-width:0.5;" x1="340.66" x2="449.5125" y1="274.7869" y2="274.7869"/></g><!--class StageDsl--><g class="entity" data-qualified-name="StageDsl" data-source-line="4" id="ent0003"><rect fill="#F1F1F1" height="48" rx="2.5" ry="2.5" style="stroke:#181818;stroke-width:0.5;" width="94.4189" x="1764.87" y="234.7869"/><ellipse cx="1779.87" cy="250.7869" fill="#A9DCDF" rx="11" ry="11" style="stroke:#181818;stroke-width:1;"/><path d="M1779.9794,246.1306 L1778.8231,251.2088 L1781.1513,251.2088 L1779.9794,246.1306 Z M1778.495,243.8963 L1781.4794,243.8963 L1784.8388,256.2869 L1782.3856,256.2869 L1781.62,253.2244 L1778.3388,253.2244 L1777.5888,256.2869 L1775.1513,256.2869 L1778.495,243.8963 Z " fill="#000000"/><text fill="#000000" font-family="sans-serif" font-size="14" font-style="italic" lengthAdjust="spacing" textLength="62.4189" x="1793.87" y="255.6336">StageDsl</text><line style="stroke:#181818;stroke-width:0.5;" x1="1765.87" x2="1858.2889" y1="266.7869" y2="266.7869"/><line style="stroke:#181818;stroke-width:0.5;" x1="1765.87" x2="1858.2889" y1="274.7869" y2="274.7869"/></g><!--class StageCore--><g class="entity" data-qualified-name="StageCore" data-source-line="5" id="ent0004"><rect fill="#F1F1F1" height="48" rx="2.5" ry="2.5" style="stroke:#181818;stroke-width:0.5;" width="105.165" x="1402.5" y="449.4169"/><ellipse cx="1417.5" cy="465.4169" fill="#A9DCDF" rx="11" ry="11" style="stroke:#181818;stroke-width:1;"/><path d="M1417.6094,460.7606 L1416.4531,465.8388 L1418.7813,465.8388 L1417.6094,460.7606 Z M1416.125,458.5263 L1419.1094,458.5263 L1422.4688,470.9169 L1420.0156,470.9169 L1419.25,467.8544 L1415.9688,467.8544 L1415.2188,470.9169 L1412.7813,470.9169 L1416.125,458.5263 Z " fill="#000000"/><text fill="#000000" font-family="sans-serif" font-size="14" font-style="italic" lengthAdjust="spacing" textLength="73.165" x="1431.5" y="470.2636">StageCore</text><line style="stroke:#181818;stroke-width:0.5;" x1="1403.5" x2="1506.665" y1="481.4169" y2="481.4169"/><line style="stroke:#181818;stroke-width:0.5;" x1="1403.5" x2="1506.665" y1="489.4169" y2="489.4169"/></g><!--class StageEngine--><g class="entity" data-qualified-name="StageEngine" data-source-line="6" id="ent0005"><rect fill="#F1F1F1" height="48" rx="2.5" ry="2.5" style="stroke:#181818;stroke-width:0.5;" width="120.4365" x="2080.86" y="60.5969"/><ellipse cx="2095.86" cy="76.5969" fill="#A9DCDF" rx="11" ry="11" style="stroke:#181818;stroke-width:1;"/><path d="M2095.9694,71.9406 L2094.8131,77.0188 L2097.1413,77.0188 L2095.9694,71.9406 Z M2094.485,69.7063 L2097.4694,69.7063 L2100.8288,82.0969 L2098.3756,82.0969 L2097.61,79.0344 L2094.3288,79.0344 L2093.5788,82.0969 L2091.1413,82.0969 L2094.485,69.7063 Z " fill="#000000"/><text fill="#000000" font-family="sans-serif" font-size="14" font-style="italic" lengthAdjust="spacing" textLength="88.4365" x="2109.86" y="81.4436">StageEngine</text><line style="stroke:#181818;stroke-width:0.5;" x1="2081.86" x2="2200.2965" y1="92.5969" y2="92.5969"/><line style="stroke:#181818;stroke-width:0.5;" x1="2081.86" x2="2200.2965" y1="100.5969" y2="100.5969"/></g><!--class TransformationEngine--><g class="entity" data-qualified-name="TransformationEngine" data-source-line="8" id="ent0006"><rect fill="#F1F1F1" height="80.5938" rx="2.5" ry="2.5" style="stroke:#181818;stroke-width:0.5;" width="300.4902" x="813.84" y="623.3069"/><ellipse cx="882.1754" cy="639.3069" fill="#ADD1B2" rx="11" ry="11" style="stroke:#181818;stroke-width:1;"/><path d="M885.1442,644.9475 Q884.5661,645.2444 883.9254,645.385 Q883.2848,645.5413 882.5817,645.5413 Q880.0817,645.5413 878.7536,643.9006 Q877.4411,642.2444 877.4411,639.1194 Q877.4411,635.9944 878.7536,634.3381 Q880.0817,632.6819 882.5817,632.6819 Q883.2848,632.6819 883.9254,632.8381 Q884.5817,632.9944 885.1442,633.2913 L885.1442,636.01 Q884.5192,635.4319 883.9254,635.1663 Q883.3317,634.885 882.7067,634.885 Q881.3629,634.885 880.6754,635.9631 Q879.9879,637.0256 879.9879,639.1194 Q879.9879,641.2131 880.6754,642.2913 Q881.3629,643.3538 882.7067,643.3538 Q883.3317,643.3538 883.9254,643.0881 Q884.5192,642.8069 885.1442,642.2288 L885.1442,644.9475 Z " fill="#000000"/><text fill="#000000" font-family="sans-serif" font-size="14" lengthAdjust="spacing" textLength="155.3193" x="902.6754" y="644.1536">TransformationEngine</text><line style="stroke:#181818;stroke-width:0.5;" x1="814.84" x2="1113.3302" y1="655.3069" y2="655.3069"/><line style="stroke:#181818;stroke-width:0.5;" x1="814.84" x2="1113.3302" y1="663.3069" y2="663.3069"/><g data-visibility-modifier="PUBLIC_METHOD"><ellipse cx="824.84" cy="676.9553" fill="#84BE84" rx="3" ry="3" style="stroke:#038048;stroke-width:1;"/></g><text fill="#000000" font-family="sans-serif" font-size="14" lengthAdjust="spacing" textLength="222.373" x="833.84" y="680.302">apply(value, ops): EngineResult</text><g data-visibility-modifier="PUBLIC_METHOD"><ellipse cx="824.84" cy="693.2522" fill="#84BE84" rx="3" ry="3" style="stroke:#038048;stroke-width:1;"/></g><text fill="#000000" font-family="sans-serif" font-size="14" lengthAdjust="spacing" textLength="274.4902" x="833.84" y="696.5989">with_core_ops(): TransformationEngine</text></g><!--class OperationRegistry--><g class="entity" data-qualified-name="OperationRegistry" data-source-line="13" id="ent0007"><rect fill="#F1F1F1" height="80.5938" rx="2.5" ry="2.5" style="stroke:#181818;stroke-width:0.5;" width="178.4551" x="743.85" y="773.0469"/><ellipse cx="767.3288" cy="789.0469" fill="#ADD1B2" rx="11" ry="11" style="stroke:#181818;stroke-width:1;"/><path d="M770.2976,794.6875 Q769.7194,794.9844 769.0788,795.125 Q768.4382,795.2813 767.7351,795.2813 Q765.2351,795.2813 763.9069,793.6406 Q762.5944,791.9844 762.5944,788.8594 Q762.5944,785.7344 763.9069,784.0781 Q765.2351,782.4219 767.7351,782.4219 Q768.4382,782.4219 769.0788,782.5781 Q769.7351,782.7344 770.2976,783.0313 L770.2976,785.75 Q769.6726,785.1719 769.0788,784.9063 Q768.4851,784.625 767.8601,784.625 Q766.5163,784.625 765.8288,785.7031 Q765.1413,786.7656 765.1413,788.8594 Q765.1413,790.9531 765.8288,792.0313 Q766.5163,793.0938 767.8601,793.0938 Q768.4851,793.0938 769.0788,792.8281 Q769.6726,792.5469 770.2976,791.9688 L770.2976,794.6875 Z " fill="#000000"/><text fill="#000000" font-family="sans-serif" font-size="14" lengthAdjust="spacing" textLength="127.6133" x="783.213" y="793.8936">OperationRegistry</text><line style="stroke:#181818;stroke-width:0.5;" x1="744.85" x2="921.3051" y1="805.0469" y2="805.0469"/><line style="stroke:#181818;stroke-width:0.5;" x1="744.85" x2="921.3051" y1="813.0469" y2="813.0469"/><g data-visibility-modifier="PUBLIC_METHOD"><ellipse cx="754.85" cy="826.6953" fill="#84BE84" rx="3" ry="3" style="stroke:#038048;stroke-width:1;"/></g><text fill="#000000" font-family="sans-serif" font-size="14" lengthAdjust="spacing" textLength="144.1973" x="763.85" y="830.042">register(name, func)</text><g data-visibility-modifier="PUBLIC_METHOD"><ellipse cx="754.85" cy="842.9922" fill="#84BE84" rx="3" ry="3" style="stroke:#038048;stroke-width:1;"/></g><text fill="#000000" font-family="sans-serif" font-size="14" lengthAdjust="spacing" textLength="152.4551" x="763.85" y="846.3389">get(name): Operation</text></g><!--class Operation--><g class="entity" data-qualified-name="Operation" data-source-line="18" id="ent0008"><rect fill="#F1F1F1" height="80.5938" rx="2.5" ry="2.5" style="stroke:#181818;stroke-width:0.5;" width="119.5635" x="773.3" y="914.6469"/><ellipse cx="796.3512" cy="930.6469" fill="#ADD1B2" rx="11" ry="11" style="stroke:#181818;stroke-width:1;"/><path d="M799.32,936.2875 Q798.7418,936.5844 798.1012,936.725 Q797.4606,936.8813 796.7575,936.8813 Q794.2575,936.8813 792.9293,935.2406 Q791.6168,933.5844 791.6168,930.4594 Q791.6168,927.3344 792.9293,925.6781 Q794.2575,924.0219 796.7575,924.0219 Q797.4606,924.0219 798.1012,924.1781 Q798.7575,924.3344 799.32,924.6313 L799.32,927.35 Q798.695,926.7719 798.1012,926.5063 Q797.5075,926.225 796.8825,926.225 Q795.5387,926.225 794.8512,927.3031 Q794.1637,928.3656 794.1637,930.4594 Q794.1637,932.5531 794.8512,933.6313 Q795.5387,934.6938 796.8825,934.6938 Q797.5075,934.6938 798.1012,934.4281 Q798.695,934.1469 799.32,933.5688 L799.32,936.2875 Z " fill="#000000"/><text fill="#000000" font-family="sans-serif" font-size="14" lengthAdjust="spacing" textLength="69.6719" x="812.1404" y="935.4936">Operation</text><line style="stroke:#181818;stroke-width:0.5;" x1="774.3" x2="891.8635" y1="946.6469" y2="946.6469"/><g data-visibility-modifier="PUBLIC_FIELD"><ellipse cx="784.3" cy="960.2953" fill="none" rx="3" ry="3" style="stroke:#038048;stroke-width:1;"/></g><text fill="#000000" font-family="sans-serif" font-size="14" lengthAdjust="spacing" textLength="67.4092" x="793.3" y="963.642">name: str</text><g data-visibility-modifier="PUBLIC_FIELD"><ellipse cx="784.3" cy="976.5922" fill="none" rx="3" ry="3" style="stroke:#038048;stroke-width:1;"/></g><text fill="#000000" font-family="sans-serif" font-size="14" lengthAdjust="spacing" textLength="93.5635" x="793.3" y="979.9389">func: callable</text><line style="stroke:#181818;stroke-width:0.5;" x1="774.3" x2="891.8635" y1="987.2406" y2="987.2406"/></g><!--class OperationCall--><g class="entity" data-qualified-name="OperationCall" data-source-line="23" id="ent0009"><rect fill="#F1F1F1" height="80.5938" rx="2.5" ry="2.5" style="stroke:#181818;stroke-width:0.5;" width="127.8057" x="957.18" y="773.0469"/><ellipse cx="972.18" cy="789.0469" fill="#ADD1B2" rx="11" ry="11" style="stroke:#181818;stroke-width:1;"/><path d="M975.1488,794.6875 Q974.5706,794.9844 973.93,795.125 Q973.2894,795.2813 972.5863,795.2813 Q970.0863,795.2813 968.7581,793.6406 Q967.4456,791.9844 967.4456,788.8594 Q967.4456,785.7344 968.7581,784.0781 Q970.0863,782.4219 972.5863,782.4219 Q973.2894,782.4219 973.93,782.5781 Q974.5863,782.7344 975.1488,783.0313 L975.1488,785.75 Q974.5238,785.1719 973.93,784.9063 Q973.3363,784.625 972.7113,784.625 Q971.3675,784.625 970.68,785.7031 Q969.9925,786.7656 969.9925,788.8594 Q969.9925,790.9531 970.68,792.0313 Q971.3675,793.0938 972.7113,793.0938 Q973.3363,793.0938 973.93,792.8281 Q974.5238,792.5469 975.1488,791.9688 L975.1488,794.6875 Z " fill="#000000"/><text fill="#000000" font-family="sans-serif" font-size="14" lengthAdjust="spacing" textLength="95.8057" x="986.18" y="793.8936">OperationCall</text><line style="stroke:#181818;stroke-width:0.5;" x1="958.18" x2="1083.9857" y1="805.0469" y2="805.0469"/><g data-visibility-modifier="PUBLIC_FIELD"><ellipse cx="968.18" cy="818.6953" fill="none" rx="3" ry="3" style="stroke:#038048;stroke-width:1;"/></g><text fill="#000000" font-family="sans-serif" font-size="14" lengthAdjust="spacing" textLength="45.1582" x="977.18" y="822.042">op: str</text><g data-visibility-modifier="PUBLIC_FIELD"><ellipse cx="968.18" cy="834.9922" fill="none" rx="3" ry="3" style="stroke:#038048;stroke-width:1;"/></g><text fill="#000000" font-family="sans-serif" font-size="14" lengthAdjust="spacing" textLength="65.6455" x="977.18" y="838.3389">args: dict</text><line style="stroke:#181818;stroke-width:0.5;" x1="958.18" x2="1083.9857" y1="845.6406" y2="845.6406"/></g><!--class EngineResult--><g class="entity" data-qualified-name="EngineResult" data-source-line="28" id="ent0010"><rect fill="#F1F1F1" height="80.5938" rx="2.5" ry="2.5" style="stroke:#181818;stroke-width:0.5;" width="154.5156" x="2914.82" y="44.2969"/><ellipse cx="2943.6114" cy="60.2969" fill="#ADD1B2" rx="11" ry="11" style="stroke:#181818;stroke-width:1;"/><path d="M2946.5801,65.9375 Q2946.002,66.2344 2945.3614,66.375 Q2944.7207,66.5313 2944.0176,66.5313 Q2941.5176,66.5313 2940.1895,64.8906 Q2938.877,63.2344 2938.877,60.1094 Q2938.877,56.9844 2940.1895,55.3281 Q2941.5176,53.6719 2944.0176,53.6719 Q2944.7207,53.6719 2945.3614,53.8281 Q2946.0176,53.9844 2946.5801,54.2813 L2946.5801,57 Q2945.9551,56.4219 2945.3614,56.1563 Q2944.7676,55.875 2944.1426,55.875 Q2942.7989,55.875 2942.1114,56.9531 Q2941.4239,58.0156 2941.4239,60.1094 Q2941.4239,62.2031 2942.1114,63.2813 Q2942.7989,64.3438 2944.1426,64.3438 Q2944.7676,64.3438 2945.3614,64.0781 Q2945.9551,63.7969 2946.5801,63.2188 L2946.5801,65.9375 Z " fill="#000000"/><text fill="#000000" font-family="sans-serif" font-size="14" lengthAdjust="spacing" textLength="91.8682" x="2960.6761" y="65.1436">EngineResult</text><line style="stroke:#181818;stroke-width:0.5;" x1="2915.82" x2="3068.3356" y1="76.2969" y2="76.2969"/><g data-visibility-modifier="PUBLIC_FIELD"><ellipse cx="2925.82" cy="89.9453" fill="none" rx="3" ry="3" style="stroke:#038048;stroke-width:1;"/></g><text fill="#000000" font-family="sans-serif" font-size="14" lengthAdjust="spacing" textLength="38.2402" x="2934.82" y="93.292">value</text><g data-visibility-modifier="PUBLIC_FIELD"><ellipse cx="2925.82" cy="106.2422" fill="none" rx="3" ry="3" style="stroke:#038048;stroke-width:1;"/></g><text fill="#000000" font-family="sans-serif" font-size="14" lengthAdjust="spacing" textLength="128.5156" x="2934.82" y="109.5889">issues: DslIssue[*]</text><line style="stroke:#181818;stroke-width:0.5;" x1="2915.82" x2="3068.3356" y1="116.8906" y2="116.8906"/></g><!--class DslIssue--><g class="entity" data-qualified-name="DslIssue" data-source-line="33" id="ent0011"><rect fill="#F1F1F1" height="96.8906" rx="2.5" ry="2.5" style="stroke:#181818;stroke-width:0.5;" width="116.624" x="2933.77" y="210.3369"/><ellipse cx="2960.6757" cy="226.3369" fill="#ADD1B2" rx="11" ry="11" style="stroke:#181818;stroke-width:1;"/><path d="M2963.6444,231.9775 Q2963.0663,232.2744 2962.4257,232.415 Q2961.785,232.5713 2961.0819,232.5713 Q2958.5819,232.5713 2957.2538,230.9306 Q2955.9413,229.2744 2955.9413,226.1494 Q2955.9413,223.0244 2957.2538,221.3681 Q2958.5819,219.7119 2961.0819,219.7119 Q2961.785,219.7119 2962.4257,219.8681 Q2963.0819,220.0244 2963.6444,220.3213 L2963.6444,223.04 Q2963.0194,222.4619 2962.4257,222.1963 Q2961.8319,221.915 2961.2069,221.915 Q2959.8632,221.915 2959.1757,222.9931 Q2958.4882,224.0556 2958.4882,226.1494 Q2958.4882,228.2431 2959.1757,229.3213 Q2959.8632,230.3838 2961.2069,230.3838 Q2961.8319,230.3838 2962.4257,230.1181 Q2963.0194,229.8369 2963.6444,229.2588 L2963.6444,231.9775 Z " fill="#000000"/><text fill="#000000" font-family="sans-serif" font-size="14" lengthAdjust="spacing" textLength="58.167" x="2977.3214" y="231.1836">DslIssue</text><line style="stroke:#181818;stroke-width:0.5;" x1="2934.77" x2="3049.394" y1="242.3369" y2="242.3369"/><g data-visibility-modifier="PUBLIC_FIELD"><ellipse cx="2944.77" cy="255.9853" fill="none" rx="3" ry="3" style="stroke:#038048;stroke-width:1;"/></g><text fill="#000000" font-family="sans-serif" font-size="14" lengthAdjust="spacing" textLength="61.4688" x="2953.77" y="259.332">code: str</text><g data-visibility-modifier="PUBLIC_FIELD"><ellipse cx="2944.77" cy="272.2822" fill="none" rx="3" ry="3" style="stroke:#038048;stroke-width:1;"/></g><text fill="#000000" font-family="sans-serif" font-size="14" lengthAdjust="spacing" textLength="90.624" x="2953.77" y="275.6289">message: str</text><g data-visibility-modifier="PUBLIC_FIELD"><ellipse cx="2944.77" cy="288.5791" fill="none" rx="3" ry="3" style="stroke:#038048;stroke-width:1;"/></g><text fill="#000000" font-family="sans-serif" font-size="14" lengthAdjust="spacing" textLength="83.9316" x="2953.77" y="291.9257">severity: str</text><line style="stroke:#181818;stroke-width:0.5;" x1="2934.77" x2="3049.394" y1="299.2275" y2="299.2275"/></g><!--class DslLoader--><g class="entity" data-qualified-name="DslLoader" data-source-line="39" id="ent0012"><rect fill="#F1F1F1" height="145.7813" rx="2.5" ry="2.5" style="stroke:#181818;stroke-width:0.5;" width="321.5996" x="485.28" y="185.8969"/><ellipse cx="606.7478" cy="201.8969" fill="#ADD1B2" rx="11" ry="11" style="stroke:#181818;stroke-width:1;"/><path d="M609.7165,207.5375 Q609.1384,207.8344 608.4978,207.975 Q607.8571,208.1313 607.154,208.1313 Q604.654,208.1313 603.3259,206.4906 Q602.0134,204.8344 602.0134,201.7094 Q602.0134,198.5844 603.3259,196.9281 Q604.654,195.2719 607.154,195.2719 Q607.8571,195.2719 608.4978,195.4281 Q609.154,195.5844 609.7165,195.8813 L609.7165,198.6 Q609.0915,198.0219 608.4978,197.7563 Q607.904,197.475 607.279,197.475 Q605.9353,197.475 605.2478,198.5531 Q604.5603,199.6156 604.5603,201.7094 Q604.5603,203.8031 605.2478,204.8813 Q605.9353,205.9438 607.279,205.9438 Q607.904,205.9438 608.4978,205.6781 Q609.0915,205.3969 609.7165,204.8188 L609.7165,207.5375 Z " fill="#000000"/><text fill="#000000" font-family="sans-serif" font-size="14" lengthAdjust="spacing" textLength="70.1641" x="627.2478" y="206.7436">DslLoader</text><line style="stroke:#181818;stroke-width:0.5;" x1="486.28" x2="805.8796" y1="217.8969" y2="217.8969"/><line style="stroke:#181818;stroke-width:0.5;" x1="486.28" x2="805.8796" y1="225.8969" y2="225.8969"/><g data-visibility-modifier="PUBLIC_METHOD"><ellipse cx="496.28" cy="239.5453" fill="#84BE84" rx="3" ry="3" style="stroke:#038048;stroke-width:1;"/></g><text fill="#000000" font-family="sans-serif" font-size="14" lengthAdjust="spacing" textLength="288.0869" x="505.28" y="242.892">load_mapping_spec_for_dataset(dataset)</text><g data-visibility-modifier="PUBLIC_METHOD"><ellipse cx="496.28" cy="255.8422" fill="#84BE84" rx="3" ry="3" style="stroke:#038048;stroke-width:1;"/></g><text fill="#000000" font-family="sans-serif" font-size="14" lengthAdjust="spacing" textLength="295.5996" x="505.28" y="259.1889">load_normalize_spec_for_dataset(dataset)</text><g data-visibility-modifier="PUBLIC_METHOD"><ellipse cx="496.28" cy="272.1391" fill="#84BE84" rx="3" ry="3" style="stroke:#038048;stroke-width:1;"/></g><text fill="#000000" font-family="sans-serif" font-size="14" lengthAdjust="spacing" textLength="270.1494" x="505.28" y="275.4857">load_enrich_spec_for_dataset(dataset)</text><g data-visibility-modifier="PUBLIC_METHOD"><ellipse cx="496.28" cy="288.4359" fill="#84BE84" rx="3" ry="3" style="stroke:#038048;stroke-width:1;"/></g><text fill="#000000" font-family="sans-serif" font-size="14" lengthAdjust="spacing" textLength="282.6592" x="505.28" y="291.7826">load_validate_spec_for_dataset(dataset)</text><g data-visibility-modifier="PUBLIC_METHOD"><ellipse cx="496.28" cy="304.7328" fill="#84BE84" rx="3" ry="3" style="stroke:#038048;stroke-width:1;"/></g><text fill="#000000" font-family="sans-serif" font-size="14" lengthAdjust="spacing" textLength="270.7236" x="505.28" y="308.0795">load_match_spec_for_dataset(dataset)</text><g data-visibility-modifier="PUBLIC_METHOD"><ellipse cx="496.28" cy="321.0297" fill="#84BE84" rx="3" ry="3" style="stroke:#038048;stroke-width:1;"/></g><text fill="#000000" font-family="sans-serif" font-size="14" lengthAdjust="spacing" textLength="277.4639" x="505.28" y="324.3764">load_resolve_spec_for_dataset(dataset)</text></g><!--class MappingSpec--><g class="entity" data-qualified-name="MappingSpec" data-source-line="48" id="ent0013"><rect fill="#F1F1F1" height="64.2969" rx="2.5" ry="2.5" style="stroke:#181818;stroke-width:0.5;" width="126.165" x="7" y="441.2669"/><ellipse cx="22" cy="457.2669" fill="#ADD1B2" rx="11" ry="11" style="stroke:#181818;stroke-width:1;"/><path d="M24.9688,462.9075 Q24.3906,463.2044 23.75,463.345 Q23.1094,463.5013 22.4063,463.5013 Q19.9063,463.5013 18.5781,461.8606 Q17.2656,460.2044 17.2656,457.0794 Q17.2656,453.9544 18.5781,452.2981 Q19.9063,450.6419 22.4063,450.6419 Q23.1094,450.6419 23.75,450.7981 Q24.4063,450.9544 24.9688,451.2513 L24.9688,453.97 Q24.3438,453.3919 23.75,453.1263 Q23.1563,452.845 22.5313,452.845 Q21.1875,452.845 20.5,453.9231 Q19.8125,454.9856 19.8125,457.0794 Q19.8125,459.1731 20.5,460.2513 Q21.1875,461.3138 22.5313,461.3138 Q23.1563,461.3138 23.75,461.0481 Q24.3438,460.7669 24.9688,460.1888 L24.9688,462.9075 Z " fill="#000000"/><text fill="#000000" font-family="sans-serif" font-size="14" lengthAdjust="spacing" textLength="94.165" x="36" y="462.1136">MappingSpec</text><line style="stroke:#181818;stroke-width:0.5;" x1="8" x2="132.165" y1="473.2669" y2="473.2669"/><g data-visibility-modifier="PUBLIC_FIELD"><ellipse cx="18" cy="486.9153" fill="none" rx="3" ry="3" style="stroke:#038048;stroke-width:1;"/></g><text fill="#000000" font-family="sans-serif" font-size="14" lengthAdjust="spacing" textLength="80.6367" x="27" y="490.262">dataset: str</text><line style="stroke:#181818;stroke-width:0.5;" x1="8" x2="132.165" y1="497.5638" y2="497.5638"/></g><!--class NormalizeSpec--><g class="entity" data-qualified-name="NormalizeSpec" data-source-line="51" id="ent0014"><rect fill="#F1F1F1" height="64.2969" rx="2.5" ry="2.5" style="stroke:#181818;stroke-width:0.5;" width="136.8359" x="168.66" y="441.2669"/><ellipse cx="183.66" cy="457.2669" fill="#ADD1B2" rx="11" ry="11" style="stroke:#181818;stroke-width:1;"/><path d="M186.6288,462.9075 Q186.0506,463.2044 185.41,463.345 Q184.7694,463.5013 184.0663,463.5013 Q181.5663,463.5013 180.2381,461.8606 Q178.9256,460.2044 178.9256,457.0794 Q178.9256,453.9544 180.2381,452.2981 Q181.5663,450.6419 184.0663,450.6419 Q184.7694,450.6419 185.41,450.7981 Q186.0663,450.9544 186.6288,451.2513 L186.6288,453.97 Q186.0038,453.3919 185.41,453.1263 Q184.8163,452.845 184.1913,452.845 Q182.8475,452.845 182.16,453.9231 Q181.4725,454.9856 181.4725,457.0794 Q181.4725,459.1731 182.16,460.2513 Q182.8475,461.3138 184.1913,461.3138 Q184.8163,461.3138 185.41,461.0481 Q186.0038,460.7669 186.6288,460.1888 L186.6288,462.9075 Z " fill="#000000"/><text fill="#000000" font-family="sans-serif" font-size="14" lengthAdjust="spacing" textLength="104.8359" x="197.66" y="462.1136">NormalizeSpec</text><line style="stroke:#181818;stroke-width:0.5;" x1="169.66" x2="304.4959" y1="473.2669" y2="473.2669"/><g data-visibility-modifier="PUBLIC_FIELD"><ellipse cx="179.66" cy="486.9153" fill="none" rx="3" ry="3" style="stroke:#038048;stroke-width:1;"/></g><text fill="#000000" font-family="sans-serif" font-size="14" lengthAdjust="spacing" textLength="80.6367" x="188.66" y="490.262">dataset: str</text><line style="stroke:#181818;stroke-width:0.5;" x1="169.66" x2="304.4959" y1="497.5638" y2="497.5638"/></g><!--class EnrichSpec--><g class="entity" data-qualified-name="EnrichSpec" data-source-line="54" id="ent0015"><rect fill="#F1F1F1" height="64.2969" rx="2.5" ry="2.5" style="stroke:#181818;stroke-width:0.5;" width="110.0186" x="340.07" y="441.2669"/><ellipse cx="355.07" cy="457.2669" fill="#ADD1B2" rx="11" ry="11" style="stroke:#181818;stroke-width:1;"/><path d="M358.0388,462.9075 Q357.4606,463.2044 356.82,463.345 Q356.1794,463.5013 355.4763,463.5013 Q352.9763,463.5013 351.6481,461.8606 Q350.3356,460.2044 350.3356,457.0794 Q350.3356,453.9544 351.6481,452.2981 Q352.9763,450.6419 355.4763,450.6419 Q356.1794,450.6419 356.82,450.7981 Q357.4763,450.9544 358.0388,451.2513 L358.0388,453.97 Q357.4138,453.3919 356.82,453.1263 Q356.2263,452.845 355.6013,452.845 Q354.2575,452.845 353.57,453.9231 Q352.8825,454.9856 352.8825,457.0794 Q352.8825,459.1731 353.57,460.2513 Q354.2575,461.3138 355.6013,461.3138 Q356.2263,461.3138 356.82,461.0481 Q357.4138,460.7669 358.0388,460.1888 L358.0388,462.9075 Z " fill="#000000"/><text fill="#000000" font-family="sans-serif" font-size="14" lengthAdjust="spacing" textLength="78.0186" x="369.07" y="462.1136">EnrichSpec</text><line style="stroke:#181818;stroke-width:0.5;" x1="341.07" x2="449.0886" y1="473.2669" y2="473.2669"/><g data-visibility-modifier="PUBLIC_FIELD"><ellipse cx="351.07" cy="486.9153" fill="none" rx="3" ry="3" style="stroke:#038048;stroke-width:1;"/></g><text fill="#000000" font-family="sans-serif" font-size="14" lengthAdjust="spacing" textLength="80.6367" x="360.07" y="490.262">dataset: str</text><line style="stroke:#181818;stroke-width:0.5;" x1="341.07" x2="449.0886" y1="497.5638" y2="497.5638"/></g><!--class ValidationSpec--><g class="entity" data-qualified-name="ValidationSpec" data-source-line="57" id="ent0016"><rect fill="#F1F1F1" height="64.2969" rx="2.5" ry="2.5" style="stroke:#181818;stroke-width:0.5;" width="136.3027" x="484.93" y="441.2669"/><ellipse cx="499.93" cy="457.2669" fill="#ADD1B2" rx="11" ry="11" style="stroke:#181818;stroke-width:1;"/><path d="M502.8988,462.9075 Q502.3206,463.2044 501.68,463.345 Q501.0394,463.5013 500.3363,463.5013 Q497.8363,463.5013 496.5081,461.8606 Q495.1956,460.2044 495.1956,457.0794 Q495.1956,453.9544 496.5081,452.2981 Q497.8363,450.6419 500.3363,450.6419 Q501.0394,450.6419 501.68,450.7981 Q502.3363,450.9544 502.8988,451.2513 L502.8988,453.97 Q502.2738,453.3919 501.68,453.1263 Q501.0863,452.845 500.4613,452.845 Q499.1175,452.845 498.43,453.9231 Q497.7425,454.9856 497.7425,457.0794 Q497.7425,459.1731 498.43,460.2513 Q499.1175,461.3138 500.4613,461.3138 Q501.0863,461.3138 501.68,461.0481 Q502.2738,460.7669 502.8988,460.1888 L502.8988,462.9075 Z " fill="#000000"/><text fill="#000000" font-family="sans-serif" font-size="14" lengthAdjust="spacing" textLength="104.3027" x="513.93" y="462.1136">ValidationSpec</text><line style="stroke:#181818;stroke-width:0.5;" x1="485.93" x2="620.2327" y1="473.2669" y2="473.2669"/><g data-visibility-modifier="PUBLIC_FIELD"><ellipse cx="495.93" cy="486.9153" fill="none" rx="3" ry="3" style="stroke:#038048;stroke-width:1;"/></g><text fill="#000000" font-family="sans-serif" font-size="14" lengthAdjust="spacing" textLength="80.6367" x="504.93" y="490.262">dataset: str</text><line style="stroke:#181818;stroke-width:0.5;" x1="485.93" x2="620.2327" y1="497.5638" y2="497.5638"/></g><!--class MatchSpec--><g class="entity" data-qualified-name="MatchSpec" data-source-line="60" id="ent0017"><rect fill="#F1F1F1" height="64.2969" rx="2.5" ry="2.5" style="stroke:#181818;stroke-width:0.5;" width="108.8018" x="656.68" y="441.2669"/><ellipse cx="671.68" cy="457.2669" fill="#ADD1B2" rx="11" ry="11" style="stroke:#181818;stroke-width:1;"/><path d="M674.6488,462.9075 Q674.0706,463.2044 673.43,463.345 Q672.7894,463.5013 672.0863,463.5013 Q669.5863,463.5013 668.2581,461.8606 Q666.9456,460.2044 666.9456,457.0794 Q666.9456,453.9544 668.2581,452.2981 Q669.5863,450.6419 672.0863,450.6419 Q672.7894,450.6419 673.43,450.7981 Q674.0863,450.9544 674.6488,451.2513 L674.6488,453.97 Q674.0238,453.3919 673.43,453.1263 Q672.8363,452.845 672.2113,452.845 Q670.8675,452.845 670.18,453.9231 Q669.4925,454.9856 669.4925,457.0794 Q669.4925,459.1731 670.18,460.2513 Q670.8675,461.3138 672.2113,461.3138 Q672.8363,461.3138 673.43,461.0481 Q674.0238,460.7669 674.6488,460.1888 L674.6488,462.9075 Z " fill="#000000"/><text fill="#000000" font-family="sans-serif" font-size="14" lengthAdjust="spacing" textLength="76.8018" x="685.68" y="462.1136">MatchSpec</text><line style="stroke:#181818;stroke-width:0.5;" x1="657.68" x2="764.4818" y1="473.2669" y2="473.2669"/><g data-visibility-modifier="PUBLIC_FIELD"><ellipse cx="667.68" cy="486.9153" fill="none" rx="3" ry="3" style="stroke:#038048;stroke-width:1;"/></g><text fill="#000000" font-family="sans-serif" font-size="14" lengthAdjust="spacing" textLength="80.6367" x="676.68" y="490.262">dataset: str</text><line style="stroke:#181818;stroke-width:0.5;" x1="657.68" x2="764.4818" y1="497.5638" y2="497.5638"/></g><!--class ResolveSpec--><g class="entity" data-qualified-name="ResolveSpec" data-source-line="63" id="ent0018"><rect fill="#F1F1F1" height="64.2969" rx="2.5" ry="2.5" style="stroke:#181818;stroke-width:0.5;" width="121.0723" x="800.55" y="441.2669"/><ellipse cx="815.55" cy="457.2669" fill="#ADD1B2" rx="11" ry="11" style="stroke:#181818;stroke-width:1;"/><path d="M818.5188,462.9075 Q817.9406,463.2044 817.3,463.345 Q816.6594,463.5013 815.9563,463.5013 Q813.4563,463.5013 812.1281,461.8606 Q810.8156,460.2044 810.8156,457.0794 Q810.8156,453.9544 812.1281,452.2981 Q813.4563,450.6419 815.9563,450.6419 Q816.6594,450.6419 817.3,450.7981 Q817.9563,450.9544 818.5188,451.2513 L818.5188,453.97 Q817.8938,453.3919 817.3,453.1263 Q816.7063,452.845 816.0813,452.845 Q814.7375,452.845 814.05,453.9231 Q813.3625,454.9856 813.3625,457.0794 Q813.3625,459.1731 814.05,460.2513 Q814.7375,461.3138 816.0813,461.3138 Q816.7063,461.3138 817.3,461.0481 Q817.8938,460.7669 818.5188,460.1888 L818.5188,462.9075 Z " fill="#000000"/><text fill="#000000" font-family="sans-serif" font-size="14" lengthAdjust="spacing" textLength="89.0723" x="829.55" y="462.1136">ResolveSpec</text><line style="stroke:#181818;stroke-width:0.5;" x1="801.55" x2="920.6223" y1="473.2669" y2="473.2669"/><g data-visibility-modifier="PUBLIC_FIELD"><ellipse cx="811.55" cy="486.9153" fill="none" rx="3" ry="3" style="stroke:#038048;stroke-width:1;"/></g><text fill="#000000" font-family="sans-serif" font-size="14" lengthAdjust="spacing" textLength="80.6367" x="820.55" y="490.262">dataset: str</text><line style="stroke:#181818;stroke-width:0.5;" x1="801.55" x2="920.6223" y1="497.5638" y2="497.5638"/></g><!--class MappingRule--><g class="entity" data-qualified-name="MappingRule" data-source-line="67" id="ent0019"><rect fill="#F1F1F1" height="96.8906" rx="2.5" ry="2.5" style="stroke:#181818;stroke-width:0.5;" width="123.1846" x="8.49" y="615.1569"/><ellipse cx="23.49" cy="631.1569" fill="#ADD1B2" rx="11" ry="11" style="stroke:#181818;stroke-width:1;"/><path d="M26.4588,636.7975 Q25.8806,637.0944 25.24,637.235 Q24.5994,637.3913 23.8963,637.3913 Q21.3963,637.3913 20.0681,635.7506 Q18.7556,634.0944 18.7556,630.9694 Q18.7556,627.8444 20.0681,626.1881 Q21.3963,624.5319 23.8963,624.5319 Q24.5994,624.5319 25.24,624.6881 Q25.8963,624.8444 26.4588,625.1413 L26.4588,627.86 Q25.8338,627.2819 25.24,627.0163 Q24.6463,626.735 24.0213,626.735 Q22.6775,626.735 21.99,627.8131 Q21.3025,628.8756 21.3025,630.9694 Q21.3025,633.0631 21.99,634.1413 Q22.6775,635.2038 24.0213,635.2038 Q24.6463,635.2038 25.24,634.9381 Q25.8338,634.6569 26.4588,634.0788 L26.4588,636.7975 Z " fill="#000000"/><text fill="#000000" font-family="sans-serif" font-size="14" lengthAdjust="spacing" textLength="91.1846" x="37.49" y="636.0036">MappingRule</text><line style="stroke:#181818;stroke-width:0.5;" x1="9.49" x2="130.6746" y1="647.1569" y2="647.1569"/><g data-visibility-modifier="PUBLIC_FIELD"><ellipse cx="19.49" cy="660.8053" fill="none" rx="3" ry="3" style="stroke:#038048;stroke-width:1;"/></g><text fill="#000000" font-family="sans-serif" font-size="14" lengthAdjust="spacing" textLength="42.8135" x="28.49" y="664.152">target</text><g data-visibility-modifier="PUBLIC_FIELD"><ellipse cx="19.49" cy="677.1022" fill="none" rx="3" ry="3" style="stroke:#038048;stroke-width:1;"/></g><text fill="#000000" font-family="sans-serif" font-size="14" lengthAdjust="spacing" textLength="46.7988" x="28.49" y="680.4489">source</text><g data-visibility-modifier="PUBLIC_FIELD"><ellipse cx="19.49" cy="693.3991" fill="none" rx="3" ry="3" style="stroke:#038048;stroke-width:1;"/></g><text fill="#000000" font-family="sans-serif" font-size="14" lengthAdjust="spacing" textLength="24.7461" x="28.49" y="696.7457">ops</text><line style="stroke:#181818;stroke-width:0.5;" x1="9.49" x2="130.6746" y1="704.0475" y2="704.0475"/></g><!--class NormalizeRule--><g class="entity" data-qualified-name="NormalizeRule" data-source-line="72" id="ent0020"><rect fill="#F1F1F1" height="80.5938" rx="2.5" ry="2.5" style="stroke:#181818;stroke-width:0.5;" width="133.8555" x="170.15" y="623.3069"/><ellipse cx="185.15" cy="639.3069" fill="#ADD1B2" rx="11" ry="11" style="stroke:#181818;stroke-width:1;"/><path d="M188.1188,644.9475 Q187.5406,645.2444 186.9,645.385 Q186.2594,645.5413 185.5563,645.5413 Q183.0563,645.5413 181.7281,643.9006 Q180.4156,642.2444 180.4156,639.1194 Q180.4156,635.9944 181.7281,634.3381 Q183.0563,632.6819 185.5563,632.6819 Q186.2594,632.6819 186.9,632.8381 Q187.5563,632.9944 188.1188,633.2913 L188.1188,636.01 Q187.4938,635.4319 186.9,635.1663 Q186.3063,634.885 185.6813,634.885 Q184.3375,634.885 183.65,635.9631 Q182.9625,637.0256 182.9625,639.1194 Q182.9625,641.2131 183.65,642.2913 Q184.3375,643.3538 185.6813,643.3538 Q186.3063,643.3538 186.9,643.0881 Q187.4938,642.8069 188.1188,642.2288 L188.1188,644.9475 Z " fill="#000000"/><text fill="#000000" font-family="sans-serif" font-size="14" lengthAdjust="spacing" textLength="101.8555" x="199.15" y="644.1536">NormalizeRule</text><line style="stroke:#181818;stroke-width:0.5;" x1="171.15" x2="303.0055" y1="655.3069" y2="655.3069"/><g data-visibility-modifier="PUBLIC_FIELD"><ellipse cx="181.15" cy="668.9553" fill="none" rx="3" ry="3" style="stroke:#038048;stroke-width:1;"/></g><text fill="#000000" font-family="sans-serif" font-size="14" lengthAdjust="spacing" textLength="30.208" x="190.15" y="672.302">field</text><g data-visibility-modifier="PUBLIC_FIELD"><ellipse cx="181.15" cy="685.2522" fill="none" rx="3" ry="3" style="stroke:#038048;stroke-width:1;"/></g><text fill="#000000" font-family="sans-serif" font-size="14" lengthAdjust="spacing" textLength="24.7461" x="190.15" y="688.5989">ops</text><line style="stroke:#181818;stroke-width:0.5;" x1="171.15" x2="303.0055" y1="695.9006" y2="695.9006"/></g><!--class EnrichRule--><g class="entity" data-qualified-name="EnrichRule" data-source-line="76" id="ent0021"><rect fill="#F1F1F1" height="96.8906" rx="2.5" ry="2.5" style="stroke:#181818;stroke-width:0.5;" width="107.0381" x="339.56" y="615.1569"/><ellipse cx="354.56" cy="631.1569" fill="#ADD1B2" rx="11" ry="11" style="stroke:#181818;stroke-width:1;"/><path d="M357.5288,636.7975 Q356.9506,637.0944 356.31,637.235 Q355.6694,637.3913 354.9663,637.3913 Q352.4663,637.3913 351.1381,635.7506 Q349.8256,634.0944 349.8256,630.9694 Q349.8256,627.8444 351.1381,626.1881 Q352.4663,624.5319 354.9663,624.5319 Q355.6694,624.5319 356.31,624.6881 Q356.9663,624.8444 357.5288,625.1413 L357.5288,627.86 Q356.9038,627.2819 356.31,627.0163 Q355.7163,626.735 355.0913,626.735 Q353.7475,626.735 353.06,627.8131 Q352.3725,628.8756 352.3725,630.9694 Q352.3725,633.0631 353.06,634.1413 Q353.7475,635.2038 355.0913,635.2038 Q355.7163,635.2038 356.31,634.9381 Q356.9038,634.6569 357.5288,634.0788 L357.5288,636.7975 Z " fill="#000000"/><text fill="#000000" font-family="sans-serif" font-size="14" lengthAdjust="spacing" textLength="75.0381" x="368.56" y="636.0036">EnrichRule</text><line style="stroke:#181818;stroke-width:0.5;" x1="340.56" x2="445.5981" y1="647.1569" y2="647.1569"/><g data-visibility-modifier="PUBLIC_FIELD"><ellipse cx="350.56" cy="660.8053" fill="none" rx="3" ry="3" style="stroke:#038048;stroke-width:1;"/></g><text fill="#000000" font-family="sans-serif" font-size="14" lengthAdjust="spacing" textLength="42.8135" x="359.56" y="664.152">target</text><g data-visibility-modifier="PUBLIC_FIELD"><ellipse cx="350.56" cy="677.1022" fill="none" rx="3" ry="3" style="stroke:#038048;stroke-width:1;"/></g><text fill="#000000" font-family="sans-serif" font-size="14" lengthAdjust="spacing" textLength="46.8877" x="359.56" y="680.4489">lookup</text><g data-visibility-modifier="PUBLIC_FIELD"><ellipse cx="350.56" cy="693.3991" fill="none" rx="3" ry="3" style="stroke:#038048;stroke-width:1;"/></g><text fill="#000000" font-family="sans-serif" font-size="14" lengthAdjust="spacing" textLength="24.7461" x="359.56" y="696.7457">ops</text><line style="stroke:#181818;stroke-width:0.5;" x1="340.56" x2="445.5981" y1="704.0475" y2="704.0475"/></g><!--class FieldCheck--><g class="entity" data-qualified-name="FieldCheck" data-source-line="81" id="ent0022"><rect fill="#F1F1F1" height="80.5938" rx="2.5" ry="2.5" style="stroke:#181818;stroke-width:0.5;" width="108.3984" x="481.88" y="623.3069"/><ellipse cx="496.88" cy="639.3069" fill="#ADD1B2" rx="11" ry="11" style="stroke:#181818;stroke-width:1;"/><path d="M499.8488,644.9475 Q499.2706,645.2444 498.63,645.385 Q497.9894,645.5413 497.2863,645.5413 Q494.7863,645.5413 493.4581,643.9006 Q492.1456,642.2444 492.1456,639.1194 Q492.1456,635.9944 493.4581,634.3381 Q494.7863,632.6819 497.2863,632.6819 Q497.9894,632.6819 498.63,632.8381 Q499.2863,632.9944 499.8488,633.2913 L499.8488,636.01 Q499.2238,635.4319 498.63,635.1663 Q498.0363,634.885 497.4113,634.885 Q496.0675,634.885 495.38,635.9631 Q494.6925,637.0256 494.6925,639.1194 Q494.6925,641.2131 495.38,642.2913 Q496.0675,643.3538 497.4113,643.3538 Q498.0363,643.3538 498.63,643.0881 Q499.2238,642.8069 499.8488,642.2288 L499.8488,644.9475 Z " fill="#000000"/><text fill="#000000" font-family="sans-serif" font-size="14" lengthAdjust="spacing" textLength="76.3984" x="510.88" y="644.1536">FieldCheck</text><line style="stroke:#181818;stroke-width:0.5;" x1="482.88" x2="589.2784" y1="655.3069" y2="655.3069"/><g data-visibility-modifier="PUBLIC_FIELD"><ellipse cx="492.88" cy="668.9553" fill="none" rx="3" ry="3" style="stroke:#038048;stroke-width:1;"/></g><text fill="#000000" font-family="sans-serif" font-size="14" lengthAdjust="spacing" textLength="30.208" x="501.88" y="672.302">field</text><g data-visibility-modifier="PUBLIC_FIELD"><ellipse cx="492.88" cy="685.2522" fill="none" rx="3" ry="3" style="stroke:#038048;stroke-width:1;"/></g><text fill="#000000" font-family="sans-serif" font-size="14" lengthAdjust="spacing" textLength="24.7461" x="501.88" y="688.5989">ops</text><line style="stroke:#181818;stroke-width:0.5;" x1="482.88" x2="589.2784" y1="695.9006" y2="695.9006"/></g><!--class ConditionalCheck--><g class="entity" data-qualified-name="ConditionalCheck" data-source-line="85" id="ent0023"><rect fill="#F1F1F1" height="80.5938" rx="2.5" ry="2.5" style="stroke:#181818;stroke-width:0.5;" width="154.3428" x="624.91" y="623.3069"/><ellipse cx="639.91" cy="639.3069" fill="#ADD1B2" rx="11" ry="11" style="stroke:#181818;stroke-width:1;"/><path d="M642.8788,644.9475 Q642.3006,645.2444 641.66,645.385 Q641.0194,645.5413 640.3163,645.5413 Q637.8163,645.5413 636.4881,643.9006 Q635.1756,642.2444 635.1756,639.1194 Q635.1756,635.9944 636.4881,634.3381 Q637.8163,632.6819 640.3163,632.6819 Q641.0194,632.6819 641.66,632.8381 Q642.3163,632.9944 642.8788,633.2913 L642.8788,636.01 Q642.2538,635.4319 641.66,635.1663 Q641.0663,634.885 640.4413,634.885 Q639.0975,634.885 638.41,635.9631 Q637.7225,637.0256 637.7225,639.1194 Q637.7225,641.2131 638.41,642.2913 Q639.0975,643.3538 640.4413,643.3538 Q641.0663,643.3538 641.66,643.0881 Q642.2538,642.8069 642.8788,642.2288 L642.8788,644.9475 Z " fill="#000000"/><text fill="#000000" font-family="sans-serif" font-size="14" lengthAdjust="spacing" textLength="122.3428" x="653.91" y="644.1536">ConditionalCheck</text><line style="stroke:#181818;stroke-width:0.5;" x1="625.91" x2="778.2528" y1="655.3069" y2="655.3069"/><g data-visibility-modifier="PUBLIC_FIELD"><ellipse cx="635.91" cy="668.9553" fill="none" rx="3" ry="3" style="stroke:#038048;stroke-width:1;"/></g><text fill="#000000" font-family="sans-serif" font-size="14" lengthAdjust="spacing" textLength="37.8096" x="644.91" y="672.302">when</text><g data-visibility-modifier="PUBLIC_FIELD"><ellipse cx="635.91" cy="685.2522" fill="none" rx="3" ry="3" style="stroke:#038048;stroke-width:1;"/></g><text fill="#000000" font-family="sans-serif" font-size="14" lengthAdjust="spacing" textLength="24.7461" x="644.91" y="688.5989">ops</text><line style="stroke:#181818;stroke-width:0.5;" x1="625.91" x2="778.2528" y1="695.9006" y2="695.9006"/></g><!--class MapperDsl--><g class="entity" data-qualified-name="MapperDsl" data-source-line="90" id="ent0024"><rect fill="#F1F1F1" height="48" rx="2.5" ry="2.5" style="stroke:#181818;stroke-width:0.5;" width="106.7646" x="1542.7" y="449.4169"/><ellipse cx="1557.7" cy="465.4169" fill="#ADD1B2" rx="11" ry="11" style="stroke:#181818;stroke-width:1;"/><path d="M1560.6688,471.0575 Q1560.0906,471.3544 1559.45,471.495 Q1558.8094,471.6513 1558.1063,471.6513 Q1555.6063,471.6513 1554.2781,470.0106 Q1552.9656,468.3544 1552.9656,465.2294 Q1552.9656,462.1044 1554.2781,460.4481 Q1555.6063,458.7919 1558.1063,458.7919 Q1558.8094,458.7919 1559.45,458.9481 Q1560.1063,459.1044 1560.6688,459.4013 L1560.6688,462.12 Q1560.0438,461.5419 1559.45,461.2763 Q1558.8563,460.995 1558.2313,460.995 Q1556.8875,460.995 1556.2,462.0731 Q1555.5125,463.1356 1555.5125,465.2294 Q1555.5125,467.3231 1556.2,468.4013 Q1556.8875,469.4638 1558.2313,469.4638 Q1558.8563,469.4638 1559.45,469.1981 Q1560.0438,468.9169 1560.6688,468.3388 L1560.6688,471.0575 Z " fill="#000000"/><text fill="#000000" font-family="sans-serif" font-size="14" lengthAdjust="spacing" textLength="74.7646" x="1571.7" y="470.2636">MapperDsl</text><line style="stroke:#181818;stroke-width:0.5;" x1="1543.7" x2="1648.4646" y1="481.4169" y2="481.4169"/><line style="stroke:#181818;stroke-width:0.5;" x1="1543.7" x2="1648.4646" y1="489.4169" y2="489.4169"/></g><!--class NormalizerDsl--><g class="entity" data-qualified-name="NormalizerDsl" data-source-line="91" id="ent0025"><rect fill="#F1F1F1" height="48" rx="2.5" ry="2.5" style="stroke:#181818;stroke-width:0.5;" width="130.4717" x="1684.85" y="449.4169"/><ellipse cx="1699.85" cy="465.4169" fill="#ADD1B2" rx="11" ry="11" style="stroke:#181818;stroke-width:1;"/><path d="M1702.8188,471.0575 Q1702.2406,471.3544 1701.6,471.495 Q1700.9594,471.6513 1700.2563,471.6513 Q1697.7563,471.6513 1696.4281,470.0106 Q1695.1156,468.3544 1695.1156,465.2294 Q1695.1156,462.1044 1696.4281,460.4481 Q1697.7563,458.7919 1700.2563,458.7919 Q1700.9594,458.7919 1701.6,458.9481 Q1702.2563,459.1044 1702.8188,459.4013 L1702.8188,462.12 Q1702.1938,461.5419 1701.6,461.2763 Q1701.0063,460.995 1700.3813,460.995 Q1699.0375,460.995 1698.35,462.0731 Q1697.6625,463.1356 1697.6625,465.2294 Q1697.6625,467.3231 1698.35,468.4013 Q1699.0375,469.4638 1700.3813,469.4638 Q1701.0063,469.4638 1701.6,469.1981 Q1702.1938,468.9169 1702.8188,468.3388 L1702.8188,471.0575 Z " fill="#000000"/><text fill="#000000" font-family="sans-serif" font-size="14" lengthAdjust="spacing" textLength="98.4717" x="1713.85" y="470.2636">NormalizerDsl</text><line style="stroke:#181818;stroke-width:0.5;" x1="1685.85" x2="1814.3217" y1="481.4169" y2="481.4169"/><line style="stroke:#181818;stroke-width:0.5;" x1="1685.85" x2="1814.3217" y1="489.4169" y2="489.4169"/></g><!--class EnricherDsl--><g class="entity" data-qualified-name="EnricherDsl" data-source-line="92" id="ent0026"><rect fill="#F1F1F1" height="48" rx="2.5" ry="2.5" style="stroke:#181818;stroke-width:0.5;" width="112.2676" x="1849.95" y="449.4169"/><ellipse cx="1864.95" cy="465.4169" fill="#ADD1B2" rx="11" ry="11" style="stroke:#181818;stroke-width:1;"/><path d="M1867.9188,471.0575 Q1867.3406,471.3544 1866.7,471.495 Q1866.0594,471.6513 1865.3563,471.6513 Q1862.8563,471.6513 1861.5281,470.0106 Q1860.2156,468.3544 1860.2156,465.2294 Q1860.2156,462.1044 1861.5281,460.4481 Q1862.8563,458.7919 1865.3563,458.7919 Q1866.0594,458.7919 1866.7,458.9481 Q1867.3563,459.1044 1867.9188,459.4013 L1867.9188,462.12 Q1867.2938,461.5419 1866.7,461.2763 Q1866.1063,460.995 1865.4813,460.995 Q1864.1375,460.995 1863.45,462.0731 Q1862.7625,463.1356 1862.7625,465.2294 Q1862.7625,467.3231 1863.45,468.4013 Q1864.1375,469.4638 1865.4813,469.4638 Q1866.1063,469.4638 1866.7,469.1981 Q1867.2938,468.9169 1867.9188,468.3388 L1867.9188,471.0575 Z " fill="#000000"/><text fill="#000000" font-family="sans-serif" font-size="14" lengthAdjust="spacing" textLength="80.2676" x="1878.95" y="470.2636">EnricherDsl</text><line style="stroke:#181818;stroke-width:0.5;" x1="1850.95" x2="1961.2176" y1="481.4169" y2="481.4169"/><line style="stroke:#181818;stroke-width:0.5;" x1="1850.95" x2="1961.2176" y1="489.4169" y2="489.4169"/></g><!--class ValidatorDsl--><g class="entity" data-qualified-name="ValidatorDsl" data-source-line="93" id="ent0027"><rect fill="#F1F1F1" height="48" rx="2.5" ry="2.5" style="stroke:#181818;stroke-width:0.5;" width="117.1758" x="1997.49" y="449.4169"/><ellipse cx="2012.49" cy="465.4169" fill="#ADD1B2" rx="11" ry="11" style="stroke:#181818;stroke-width:1;"/><path d="M2015.4588,471.0575 Q2014.8806,471.3544 2014.24,471.495 Q2013.5994,471.6513 2012.8963,471.6513 Q2010.3963,471.6513 2009.0681,470.0106 Q2007.7556,468.3544 2007.7556,465.2294 Q2007.7556,462.1044 2009.0681,460.4481 Q2010.3963,458.7919 2012.8963,458.7919 Q2013.5994,458.7919 2014.24,458.9481 Q2014.8963,459.1044 2015.4588,459.4013 L2015.4588,462.12 Q2014.8338,461.5419 2014.24,461.2763 Q2013.6463,460.995 2013.0213,460.995 Q2011.6775,460.995 2010.99,462.0731 Q2010.3025,463.1356 2010.3025,465.2294 Q2010.3025,467.3231 2010.99,468.4013 Q2011.6775,469.4638 2013.0213,469.4638 Q2013.6463,469.4638 2014.24,469.1981 Q2014.8338,468.9169 2015.4588,468.3388 L2015.4588,471.0575 Z " fill="#000000"/><text fill="#000000" font-family="sans-serif" font-size="14" lengthAdjust="spacing" textLength="85.1758" x="2026.49" y="470.2636">ValidatorDsl</text><line style="stroke:#181818;stroke-width:0.5;" x1="1998.49" x2="2113.6658" y1="481.4169" y2="481.4169"/><line style="stroke:#181818;stroke-width:0.5;" x1="1998.49" x2="2113.6658" y1="489.4169" y2="489.4169"/></g><!--class MatchDsl--><g class="entity" data-qualified-name="MatchDsl" data-source-line="94" id="ent0028"><rect fill="#F1F1F1" height="48" rx="2.5" ry="2.5" style="stroke:#181818;stroke-width:0.5;" width="96.6816" x="2149.74" y="449.4169"/><ellipse cx="2164.74" cy="465.4169" fill="#ADD1B2" rx="11" ry="11" style="stroke:#181818;stroke-width:1;"/><path d="M2167.7088,471.0575 Q2167.1306,471.3544 2166.49,471.495 Q2165.8494,471.6513 2165.1463,471.6513 Q2162.6463,471.6513 2161.3181,470.0106 Q2160.0056,468.3544 2160.0056,465.2294 Q2160.0056,462.1044 2161.3181,460.4481 Q2162.6463,458.7919 2165.1463,458.7919 Q2165.8494,458.7919 2166.49,458.9481 Q2167.1463,459.1044 2167.7088,459.4013 L2167.7088,462.12 Q2167.0838,461.5419 2166.49,461.2763 Q2165.8963,460.995 2165.2713,460.995 Q2163.9275,460.995 2163.24,462.0731 Q2162.5525,463.1356 2162.5525,465.2294 Q2162.5525,467.3231 2163.24,468.4013 Q2163.9275,469.4638 2165.2713,469.4638 Q2165.8963,469.4638 2166.49,469.1981 Q2167.0838,468.9169 2167.7088,468.3388 L2167.7088,471.0575 Z " fill="#000000"/><text fill="#000000" font-family="sans-serif" font-size="14" lengthAdjust="spacing" textLength="64.6816" x="2178.74" y="470.2636">MatchDsl</text><line style="stroke:#181818;stroke-width:0.5;" x1="2150.74" x2="2245.4216" y1="481.4169" y2="481.4169"/><line style="stroke:#181818;stroke-width:0.5;" x1="2150.74" x2="2245.4216" y1="489.4169" y2="489.4169"/></g><!--class ResolveDsl--><g class="entity" data-qualified-name="ResolveDsl" data-source-line="95" id="ent0029"><rect fill="#F1F1F1" height="48" rx="2.5" ry="2.5" style="stroke:#181818;stroke-width:0.5;" width="108.9521" x="2281.61" y="449.4169"/><ellipse cx="2296.61" cy="465.4169" fill="#ADD1B2" rx="11" ry="11" style="stroke:#181818;stroke-width:1;"/><path d="M2299.5788,471.0575 Q2299.0006,471.3544 2298.36,471.495 Q2297.7194,471.6513 2297.0163,471.6513 Q2294.5163,471.6513 2293.1881,470.0106 Q2291.8756,468.3544 2291.8756,465.2294 Q2291.8756,462.1044 2293.1881,460.4481 Q2294.5163,458.7919 2297.0163,458.7919 Q2297.7194,458.7919 2298.36,458.9481 Q2299.0163,459.1044 2299.5788,459.4013 L2299.5788,462.12 Q2298.9538,461.5419 2298.36,461.2763 Q2297.7663,460.995 2297.1413,460.995 Q2295.7975,460.995 2295.11,462.0731 Q2294.4225,463.1356 2294.4225,465.2294 Q2294.4225,467.3231 2295.11,468.4013 Q2295.7975,469.4638 2297.1413,469.4638 Q2297.7663,469.4638 2298.36,469.1981 Q2298.9538,468.9169 2299.5788,468.3388 L2299.5788,471.0575 Z " fill="#000000"/><text fill="#000000" font-family="sans-serif" font-size="14" lengthAdjust="spacing" textLength="76.9521" x="2310.61" y="470.2636">ResolveDsl</text><line style="stroke:#181818;stroke-width:0.5;" x1="2282.61" x2="2389.5621" y1="481.4169" y2="481.4169"/><line style="stroke:#181818;stroke-width:0.5;" x1="2282.61" x2="2389.5621" y1="489.4169" y2="489.4169"/></g><!--class MapperCore--><g class="entity" data-qualified-name="MapperCore" data-source-line="97" id="ent0030"><rect fill="#F1F1F1" height="48" rx="2.5" ry="2.5" style="stroke:#181818;stroke-width:0.5;" width="117.5107" x="1149.33" y="639.6069"/><ellipse cx="1164.33" cy="655.6069" fill="#ADD1B2" rx="11" ry="11" style="stroke:#181818;stroke-width:1;"/><path d="M1167.2988,661.2475 Q1166.7206,661.5444 1166.08,661.685 Q1165.4394,661.8413 1164.7363,661.8413 Q1162.2363,661.8413 1160.9081,660.2006 Q1159.5956,658.5444 1159.5956,655.4194 Q1159.5956,652.2944 1160.9081,650.6381 Q1162.2363,648.9819 1164.7363,648.9819 Q1165.4394,648.9819 1166.08,649.1381 Q1166.7363,649.2944 1167.2988,649.5913 L1167.2988,652.31 Q1166.6738,651.7319 1166.08,651.4663 Q1165.4863,651.185 1164.8613,651.185 Q1163.5175,651.185 1162.83,652.2631 Q1162.1425,653.3256 1162.1425,655.4194 Q1162.1425,657.5131 1162.83,658.5913 Q1163.5175,659.6538 1164.8613,659.6538 Q1165.4863,659.6538 1166.08,659.3881 Q1166.6738,659.1069 1167.2988,658.5288 L1167.2988,661.2475 Z " fill="#000000"/><text fill="#000000" font-family="sans-serif" font-size="14" lengthAdjust="spacing" textLength="85.5107" x="1178.33" y="660.4536">MapperCore</text><line style="stroke:#181818;stroke-width:0.5;" x1="1150.33" x2="1265.8407" y1="671.6069" y2="671.6069"/><line style="stroke:#181818;stroke-width:0.5;" x1="1150.33" x2="1265.8407" y1="679.6069" y2="679.6069"/></g><!--class NormalizerCore--><g class="entity" data-qualified-name="NormalizerCore" data-source-line="98" id="ent0031"><rect fill="#F1F1F1" height="48" rx="2.5" ry="2.5" style="stroke:#181818;stroke-width:0.5;" width="141.2178" x="1301.47" y="639.6069"/><ellipse cx="1316.47" cy="655.6069" fill="#ADD1B2" rx="11" ry="11" style="stroke:#181818;stroke-width:1;"/><path d="M1319.4388,661.2475 Q1318.8606,661.5444 1318.22,661.685 Q1317.5794,661.8413 1316.8763,661.8413 Q1314.3763,661.8413 1313.0481,660.2006 Q1311.7356,658.5444 1311.7356,655.4194 Q1311.7356,652.2944 1313.0481,650.6381 Q1314.3763,648.9819 1316.8763,648.9819 Q1317.5794,648.9819 1318.22,649.1381 Q1318.8763,649.2944 1319.4388,649.5913 L1319.4388,652.31 Q1318.8138,651.7319 1318.22,651.4663 Q1317.6263,651.185 1317.0013,651.185 Q1315.6575,651.185 1314.97,652.2631 Q1314.2825,653.3256 1314.2825,655.4194 Q1314.2825,657.5131 1314.97,658.5913 Q1315.6575,659.6538 1317.0013,659.6538 Q1317.6263,659.6538 1318.22,659.3881 Q1318.8138,659.1069 1319.4388,658.5288 L1319.4388,661.2475 Z " fill="#000000"/><text fill="#000000" font-family="sans-serif" font-size="14" lengthAdjust="spacing" textLength="109.2178" x="1330.47" y="660.4536">NormalizerCore</text><line style="stroke:#181818;stroke-width:0.5;" x1="1302.47" x2="1441.6878" y1="671.6069" y2="671.6069"/><line style="stroke:#181818;stroke-width:0.5;" x1="1302.47" x2="1441.6878" y1="679.6069" y2="679.6069"/></g><!--class EnricherCore--><g class="entity" data-qualified-name="EnricherCore" data-source-line="99" id="ent0032"><rect fill="#F1F1F1" height="48" rx="2.5" ry="2.5" style="stroke:#181818;stroke-width:0.5;" width="123.0137" x="1477.58" y="639.6069"/><ellipse cx="1492.58" cy="655.6069" fill="#ADD1B2" rx="11" ry="11" style="stroke:#181818;stroke-width:1;"/><path d="M1495.5488,661.2475 Q1494.9706,661.5444 1494.33,661.685 Q1493.6894,661.8413 1492.9863,661.8413 Q1490.4863,661.8413 1489.1581,660.2006 Q1487.8456,658.5444 1487.8456,655.4194 Q1487.8456,652.2944 1489.1581,650.6381 Q1490.4863,648.9819 1492.9863,648.9819 Q1493.6894,648.9819 1494.33,649.1381 Q1494.9863,649.2944 1495.5488,649.5913 L1495.5488,652.31 Q1494.9238,651.7319 1494.33,651.4663 Q1493.7363,651.185 1493.1113,651.185 Q1491.7675,651.185 1491.08,652.2631 Q1490.3925,653.3256 1490.3925,655.4194 Q1490.3925,657.5131 1491.08,658.5913 Q1491.7675,659.6538 1493.1113,659.6538 Q1493.7363,659.6538 1494.33,659.3881 Q1494.9238,659.1069 1495.5488,658.5288 L1495.5488,661.2475 Z " fill="#000000"/><text fill="#000000" font-family="sans-serif" font-size="14" lengthAdjust="spacing" textLength="91.0137" x="1506.58" y="660.4536">EnricherCore</text><line style="stroke:#181818;stroke-width:0.5;" x1="1478.58" x2="1599.5937" y1="671.6069" y2="671.6069"/><line style="stroke:#181818;stroke-width:0.5;" x1="1478.58" x2="1599.5937" y1="679.6069" y2="679.6069"/></g><!--class ValidatorCore--><g class="entity" data-qualified-name="ValidatorCore" data-source-line="100" id="ent0033"><rect fill="#F1F1F1" height="48" rx="2.5" ry="2.5" style="stroke:#181818;stroke-width:0.5;" width="127.9219" x="1635.12" y="639.6069"/><ellipse cx="1650.12" cy="655.6069" fill="#ADD1B2" rx="11" ry="11" style="stroke:#181818;stroke-width:1;"/><path d="M1653.0888,661.2475 Q1652.5106,661.5444 1651.87,661.685 Q1651.2294,661.8413 1650.5263,661.8413 Q1648.0263,661.8413 1646.6981,660.2006 Q1645.3856,658.5444 1645.3856,655.4194 Q1645.3856,652.2944 1646.6981,650.6381 Q1648.0263,648.9819 1650.5263,648.9819 Q1651.2294,648.9819 1651.87,649.1381 Q1652.5263,649.2944 1653.0888,649.5913 L1653.0888,652.31 Q1652.4638,651.7319 1651.87,651.4663 Q1651.2763,651.185 1650.6513,651.185 Q1649.3075,651.185 1648.62,652.2631 Q1647.9325,653.3256 1647.9325,655.4194 Q1647.9325,657.5131 1648.62,658.5913 Q1649.3075,659.6538 1650.6513,659.6538 Q1651.2763,659.6538 1651.87,659.3881 Q1652.4638,659.1069 1653.0888,658.5288 L1653.0888,661.2475 Z " fill="#000000"/><text fill="#000000" font-family="sans-serif" font-size="14" lengthAdjust="spacing" textLength="95.9219" x="1664.12" y="660.4536">ValidatorCore</text><line style="stroke:#181818;stroke-width:0.5;" x1="1636.12" x2="1762.0419" y1="671.6069" y2="671.6069"/><line style="stroke:#181818;stroke-width:0.5;" x1="1636.12" x2="1762.0419" y1="679.6069" y2="679.6069"/></g><!--class MatchCore--><g class="entity" data-qualified-name="MatchCore" data-source-line="101" id="ent0034"><rect fill="#F1F1F1" height="48" rx="2.5" ry="2.5" style="stroke:#181818;stroke-width:0.5;" width="107.4277" x="1798.37" y="639.6069"/><ellipse cx="1813.37" cy="655.6069" fill="#ADD1B2" rx="11" ry="11" style="stroke:#181818;stroke-width:1;"/><path d="M1816.3388,661.2475 Q1815.7606,661.5444 1815.12,661.685 Q1814.4794,661.8413 1813.7763,661.8413 Q1811.2763,661.8413 1809.9481,660.2006 Q1808.6356,658.5444 1808.6356,655.4194 Q1808.6356,652.2944 1809.9481,650.6381 Q1811.2763,648.9819 1813.7763,648.9819 Q1814.4794,648.9819 1815.12,649.1381 Q1815.7763,649.2944 1816.3388,649.5913 L1816.3388,652.31 Q1815.7138,651.7319 1815.12,651.4663 Q1814.5263,651.185 1813.9013,651.185 Q1812.5575,651.185 1811.87,652.2631 Q1811.1825,653.3256 1811.1825,655.4194 Q1811.1825,657.5131 1811.87,658.5913 Q1812.5575,659.6538 1813.9013,659.6538 Q1814.5263,659.6538 1815.12,659.3881 Q1815.7138,659.1069 1816.3388,658.5288 L1816.3388,661.2475 Z " fill="#000000"/><text fill="#000000" font-family="sans-serif" font-size="14" lengthAdjust="spacing" textLength="75.4277" x="1827.37" y="660.4536">MatchCore</text><line style="stroke:#181818;stroke-width:0.5;" x1="1799.37" x2="1904.7977" y1="671.6069" y2="671.6069"/><line style="stroke:#181818;stroke-width:0.5;" x1="1799.37" x2="1904.7977" y1="679.6069" y2="679.6069"/></g><!--class ResolveCore--><g class="entity" data-qualified-name="ResolveCore" data-source-line="102" id="ent0035"><rect fill="#F1F1F1" height="48" rx="2.5" ry="2.5" style="stroke:#181818;stroke-width:0.5;" width="119.6982" x="1941.23" y="639.6069"/><ellipse cx="1956.23" cy="655.6069" fill="#ADD1B2" rx="11" ry="11" style="stroke:#181818;stroke-width:1;"/><path d="M1959.1988,661.2475 Q1958.6206,661.5444 1957.98,661.685 Q1957.3394,661.8413 1956.6363,661.8413 Q1954.1363,661.8413 1952.8081,660.2006 Q1951.4956,658.5444 1951.4956,655.4194 Q1951.4956,652.2944 1952.8081,650.6381 Q1954.1363,648.9819 1956.6363,648.9819 Q1957.3394,648.9819 1957.98,649.1381 Q1958.6363,649.2944 1959.1988,649.5913 L1959.1988,652.31 Q1958.5738,651.7319 1957.98,651.4663 Q1957.3863,651.185 1956.7613,651.185 Q1955.4175,651.185 1954.73,652.2631 Q1954.0425,653.3256 1954.0425,655.4194 Q1954.0425,657.5131 1954.73,658.5913 Q1955.4175,659.6538 1956.7613,659.6538 Q1957.3863,659.6538 1957.98,659.3881 Q1958.5738,659.1069 1959.1988,658.5288 L1959.1988,661.2475 Z " fill="#000000"/><text fill="#000000" font-family="sans-serif" font-size="14" lengthAdjust="spacing" textLength="87.6982" x="1970.23" y="660.4536">ResolveCore</text><line style="stroke:#181818;stroke-width:0.5;" x1="1942.23" x2="2059.9282" y1="671.6069" y2="671.6069"/><line style="stroke:#181818;stroke-width:0.5;" x1="1942.23" x2="2059.9282" y1="679.6069" y2="679.6069"/></g><!--class MapperEngine--><g class="entity" data-qualified-name="MapperEngine" data-source-line="104" id="ent0036"><rect fill="#F1F1F1" height="48" rx="2.5" ry="2.5" style="stroke:#181818;stroke-width:0.5;" width="132.7822" x="1894.69" y="234.7869"/><ellipse cx="1909.69" cy="250.7869" fill="#ADD1B2" rx="11" ry="11" style="stroke:#181818;stroke-width:1;"/><path d="M1912.6588,256.4275 Q1912.0806,256.7244 1911.44,256.865 Q1910.7994,257.0213 1910.0963,257.0213 Q1907.5963,257.0213 1906.2681,255.3806 Q1904.9556,253.7244 1904.9556,250.5994 Q1904.9556,247.4744 1906.2681,245.8181 Q1907.5963,244.1619 1910.0963,244.1619 Q1910.7994,244.1619 1911.44,244.3181 Q1912.0963,244.4744 1912.6588,244.7713 L1912.6588,247.49 Q1912.0338,246.9119 1911.44,246.6463 Q1910.8463,246.365 1910.2213,246.365 Q1908.8775,246.365 1908.19,247.4431 Q1907.5025,248.5056 1907.5025,250.5994 Q1907.5025,252.6931 1908.19,253.7713 Q1908.8775,254.8338 1910.2213,254.8338 Q1910.8463,254.8338 1911.44,254.5681 Q1912.0338,254.2869 1912.6588,253.7088 L1912.6588,256.4275 Z " fill="#000000"/><text fill="#000000" font-family="sans-serif" font-size="14" lengthAdjust="spacing" textLength="100.7822" x="1923.69" y="255.6336">MapperEngine</text><line style="stroke:#181818;stroke-width:0.5;" x1="1895.69" x2="2026.4722" y1="266.7869" y2="266.7869"/><line style="stroke:#181818;stroke-width:0.5;" x1="1895.69" x2="2026.4722" y1="274.7869" y2="274.7869"/></g><!--class NormalizerEngine--><g class="entity" data-qualified-name="NormalizerEngine" data-source-line="105" id="ent0037"><rect fill="#F1F1F1" height="48" rx="2.5" ry="2.5" style="stroke:#181818;stroke-width:0.5;" width="156.4893" x="2062.84" y="234.7869"/><ellipse cx="2077.84" cy="250.7869" fill="#ADD1B2" rx="11" ry="11" style="stroke:#181818;stroke-width:1;"/><path d="M2080.8088,256.4275 Q2080.2306,256.7244 2079.59,256.865 Q2078.9494,257.0213 2078.2463,257.0213 Q2075.7463,257.0213 2074.4181,255.3806 Q2073.1056,253.7244 2073.1056,250.5994 Q2073.1056,247.4744 2074.4181,245.8181 Q2075.7463,244.1619 2078.2463,244.1619 Q2078.9494,244.1619 2079.59,244.3181 Q2080.2463,244.4744 2080.8088,244.7713 L2080.8088,247.49 Q2080.1838,246.9119 2079.59,246.6463 Q2078.9963,246.365 2078.3713,246.365 Q2077.0275,246.365 2076.34,247.4431 Q2075.6525,248.5056 2075.6525,250.5994 Q2075.6525,252.6931 2076.34,253.7713 Q2077.0275,254.8338 2078.3713,254.8338 Q2078.9963,254.8338 2079.59,254.5681 Q2080.1838,254.2869 2080.8088,253.7088 L2080.8088,256.4275 Z " fill="#000000"/><text fill="#000000" font-family="sans-serif" font-size="14" lengthAdjust="spacing" textLength="124.4893" x="2091.84" y="255.6336">NormalizerEngine</text><line style="stroke:#181818;stroke-width:0.5;" x1="2063.84" x2="2218.3293" y1="266.7869" y2="266.7869"/><line style="stroke:#181818;stroke-width:0.5;" x1="2063.84" x2="2218.3293" y1="274.7869" y2="274.7869"/></g><!--class EnricherEngine--><g class="entity" data-qualified-name="EnricherEngine" data-source-line="106" id="ent0038"><rect fill="#F1F1F1" height="48" rx="2.5" ry="2.5" style="stroke:#181818;stroke-width:0.5;" width="138.2852" x="2253.94" y="234.7869"/><ellipse cx="2268.94" cy="250.7869" fill="#ADD1B2" rx="11" ry="11" style="stroke:#181818;stroke-width:1;"/><path d="M2271.9088,256.4275 Q2271.3306,256.7244 2270.69,256.865 Q2270.0494,257.0213 2269.3463,257.0213 Q2266.8463,257.0213 2265.5181,255.3806 Q2264.2056,253.7244 2264.2056,250.5994 Q2264.2056,247.4744 2265.5181,245.8181 Q2266.8463,244.1619 2269.3463,244.1619 Q2270.0494,244.1619 2270.69,244.3181 Q2271.3463,244.4744 2271.9088,244.7713 L2271.9088,247.49 Q2271.2838,246.9119 2270.69,246.6463 Q2270.0963,246.365 2269.4713,246.365 Q2268.1275,246.365 2267.44,247.4431 Q2266.7525,248.5056 2266.7525,250.5994 Q2266.7525,252.6931 2267.44,253.7713 Q2268.1275,254.8338 2269.4713,254.8338 Q2270.0963,254.8338 2270.69,254.5681 Q2271.2838,254.2869 2271.9088,253.7088 L2271.9088,256.4275 Z " fill="#000000"/><text fill="#000000" font-family="sans-serif" font-size="14" lengthAdjust="spacing" textLength="106.2852" x="2282.94" y="255.6336">EnricherEngine</text><line style="stroke:#181818;stroke-width:0.5;" x1="2254.94" x2="2391.2252" y1="266.7869" y2="266.7869"/><line style="stroke:#181818;stroke-width:0.5;" x1="2254.94" x2="2391.2252" y1="274.7869" y2="274.7869"/></g><!--class ValidatorEngine--><g class="entity" data-qualified-name="ValidatorEngine" data-source-line="107" id="ent0039"><rect fill="#F1F1F1" height="48" rx="2.5" ry="2.5" style="stroke:#181818;stroke-width:0.5;" width="143.1934" x="2427.49" y="234.7869"/><ellipse cx="2442.49" cy="250.7869" fill="#ADD1B2" rx="11" ry="11" style="stroke:#181818;stroke-width:1;"/><path d="M2445.4588,256.4275 Q2444.8806,256.7244 2444.24,256.865 Q2443.5994,257.0213 2442.8963,257.0213 Q2440.3963,257.0213 2439.0681,255.3806 Q2437.7556,253.7244 2437.7556,250.5994 Q2437.7556,247.4744 2439.0681,245.8181 Q2440.3963,244.1619 2442.8963,244.1619 Q2443.5994,244.1619 2444.24,244.3181 Q2444.8963,244.4744 2445.4588,244.7713 L2445.4588,247.49 Q2444.8338,246.9119 2444.24,246.6463 Q2443.6463,246.365 2443.0213,246.365 Q2441.6775,246.365 2440.99,247.4431 Q2440.3025,248.5056 2440.3025,250.5994 Q2440.3025,252.6931 2440.99,253.7713 Q2441.6775,254.8338 2443.0213,254.8338 Q2443.6463,254.8338 2444.24,254.5681 Q2444.8338,254.2869 2445.4588,253.7088 L2445.4588,256.4275 Z " fill="#000000"/><text fill="#000000" font-family="sans-serif" font-size="14" lengthAdjust="spacing" textLength="111.1934" x="2456.49" y="255.6336">ValidatorEngine</text><line style="stroke:#181818;stroke-width:0.5;" x1="2428.49" x2="2569.6834" y1="266.7869" y2="266.7869"/><line style="stroke:#181818;stroke-width:0.5;" x1="2428.49" x2="2569.6834" y1="274.7869" y2="274.7869"/></g><!--class MatchEngine--><g class="entity" data-qualified-name="MatchEngine" data-source-line="108" id="ent0040"><rect fill="#F1F1F1" height="48" rx="2.5" ry="2.5" style="stroke:#181818;stroke-width:0.5;" width="122.6992" x="2605.73" y="234.7869"/><ellipse cx="2620.73" cy="250.7869" fill="#ADD1B2" rx="11" ry="11" style="stroke:#181818;stroke-width:1;"/><path d="M2623.6988,256.4275 Q2623.1206,256.7244 2622.48,256.865 Q2621.8394,257.0213 2621.1363,257.0213 Q2618.6363,257.0213 2617.3081,255.3806 Q2615.9956,253.7244 2615.9956,250.5994 Q2615.9956,247.4744 2617.3081,245.8181 Q2618.6363,244.1619 2621.1363,244.1619 Q2621.8394,244.1619 2622.48,244.3181 Q2623.1363,244.4744 2623.6988,244.7713 L2623.6988,247.49 Q2623.0738,246.9119 2622.48,246.6463 Q2621.8863,246.365 2621.2613,246.365 Q2619.9175,246.365 2619.23,247.4431 Q2618.5425,248.5056 2618.5425,250.5994 Q2618.5425,252.6931 2619.23,253.7713 Q2619.9175,254.8338 2621.2613,254.8338 Q2621.8863,254.8338 2622.48,254.5681 Q2623.0738,254.2869 2623.6988,253.7088 L2623.6988,256.4275 Z " fill="#000000"/><text fill="#000000" font-family="sans-serif" font-size="14" lengthAdjust="spacing" textLength="90.6992" x="2634.73" y="255.6336">MatchEngine</text><line style="stroke:#181818;stroke-width:0.5;" x1="2606.73" x2="2727.4292" y1="266.7869" y2="266.7869"/><line style="stroke:#181818;stroke-width:0.5;" x1="2606.73" x2="2727.4292" y1="274.7869" y2="274.7869"/></g><!--class ResolveEngine--><g class="entity" data-qualified-name="ResolveEngine" data-source-line="109" id="ent0041"><rect fill="#F1F1F1" height="48" rx="2.5" ry="2.5" style="stroke:#181818;stroke-width:0.5;" width="134.9697" x="2763.6" y="234.7869"/><ellipse cx="2778.6" cy="250.7869" fill="#ADD1B2" rx="11" ry="11" style="stroke:#181818;stroke-width:1;"/><path d="M2781.5688,256.4275 Q2780.9906,256.7244 2780.35,256.865 Q2779.7094,257.0213 2779.0063,257.0213 Q2776.5063,257.0213 2775.1781,255.3806 Q2773.8656,253.7244 2773.8656,250.5994 Q2773.8656,247.4744 2775.1781,245.8181 Q2776.5063,244.1619 2779.0063,244.1619 Q2779.7094,244.1619 2780.35,244.3181 Q2781.0063,244.4744 2781.5688,244.7713 L2781.5688,247.49 Q2780.9438,246.9119 2780.35,246.6463 Q2779.7563,246.365 2779.1313,246.365 Q2777.7875,246.365 2777.1,247.4431 Q2776.4125,248.5056 2776.4125,250.5994 Q2776.4125,252.6931 2777.1,253.7713 Q2777.7875,254.8338 2779.1313,254.8338 Q2779.7563,254.8338 2780.35,254.5681 Q2780.9438,254.2869 2781.5688,253.7088 L2781.5688,256.4275 Z " fill="#000000"/><text fill="#000000" font-family="sans-serif" font-size="14" lengthAdjust="spacing" textLength="102.9697" x="2792.6" y="255.6336">ResolveEngine</text><line style="stroke:#181818;stroke-width:0.5;" x1="2764.6" x2="2897.5697" y1="266.7869" y2="266.7869"/><line style="stroke:#181818;stroke-width:0.5;" x1="2764.6" x2="2897.5697" y1="274.7869" y2="274.7869"/></g><!--class TransformResult--><g class="entity" data-qualified-name="TransformResult" data-source-line="111" id="ent0042"><rect fill="#F1F1F1" height="129.4844" rx="2.5" ry="2.5" style="stroke:#181818;stroke-width:0.5;" width="147.8281" x="2425.17" y="408.6769"/><ellipse cx="2440.17" cy="424.6769" fill="#ADD1B2" rx="11" ry="11" style="stroke:#181818;stroke-width:1;"/><path d="M2443.1388,430.3175 Q2442.5606,430.6144 2441.92,430.755 Q2441.2794,430.9113 2440.5763,430.9113 Q2438.0763,430.9113 2436.7481,429.2706 Q2435.4356,427.6144 2435.4356,424.4894 Q2435.4356,421.3644 2436.7481,419.7081 Q2438.0763,418.0519 2440.5763,418.0519 Q2441.2794,418.0519 2441.92,418.2081 Q2442.5763,418.3644 2443.1388,418.6613 L2443.1388,421.38 Q2442.5138,420.8019 2441.92,420.5363 Q2441.3263,420.255 2440.7013,420.255 Q2439.3575,420.255 2438.67,421.3331 Q2437.9825,422.3956 2437.9825,424.4894 Q2437.9825,426.5831 2438.67,427.6613 Q2439.3575,428.7238 2440.7013,428.7238 Q2441.3263,428.7238 2441.92,428.4581 Q2442.5138,428.1769 2443.1388,427.5988 L2443.1388,430.3175 Z " fill="#000000"/><text fill="#000000" font-family="sans-serif" font-size="14" lengthAdjust="spacing" textLength="115.8281" x="2454.17" y="429.5236">TransformResult</text><line style="stroke:#181818;stroke-width:0.5;" x1="2426.17" x2="2571.9981" y1="440.6769" y2="440.6769"/><g data-visibility-modifier="PUBLIC_FIELD"><ellipse cx="2436.17" cy="454.3253" fill="none" rx="3" ry="3" style="stroke:#038048;stroke-width:1;"/></g><text fill="#000000" font-family="sans-serif" font-size="14" lengthAdjust="spacing" textLength="45.2744" x="2445.17" y="457.672">record</text><g data-visibility-modifier="PUBLIC_FIELD"><ellipse cx="2436.17" cy="470.6222" fill="none" rx="3" ry="3" style="stroke:#038048;stroke-width:1;"/></g><text fill="#000000" font-family="sans-serif" font-size="14" lengthAdjust="spacing" textLength="25.7715" x="2445.17" y="473.9689">row</text><g data-visibility-modifier="PUBLIC_FIELD"><ellipse cx="2436.17" cy="486.9191" fill="none" rx="3" ry="3" style="stroke:#038048;stroke-width:1;"/></g><text fill="#000000" font-family="sans-serif" font-size="14" lengthAdjust="spacing" textLength="36.3193" x="2445.17" y="490.2657">meta</text><g data-visibility-modifier="PUBLIC_FIELD"><ellipse cx="2436.17" cy="503.2159" fill="none" rx="3" ry="3" style="stroke:#038048;stroke-width:1;"/></g><text fill="#000000" font-family="sans-serif" font-size="14" lengthAdjust="spacing" textLength="41.7402" x="2445.17" y="506.5626">errors</text><g data-visibility-modifier="PUBLIC_FIELD"><ellipse cx="2436.17" cy="519.5128" fill="none" rx="3" ry="3" style="stroke:#038048;stroke-width:1;"/></g><text fill="#000000" font-family="sans-serif" font-size="14" lengthAdjust="spacing" textLength="63.6016" x="2445.17" y="522.8595">warnings</text><line style="stroke:#181818;stroke-width:0.5;" x1="2426.17" x2="2571.9981" y1="530.1613" y2="530.1613"/></g><!--link StageDsl to StageCore--><g class="link" data-entity-1="ent0003" data-entity-2="ent0004" data-link-type="dependency" data-source-line="119" id="lnk43"><path codeLine="119" d="M1764.48,279.8669 C1705.73,305.6569 1603.95,353.7169 1525.08,408.6769 C1508.09,420.5169 1495.1598,431.9419 1482.0498,444.7619" fill="none" id="StageDsl-to-StageCore" style="stroke:#181818;stroke-width:1;"/><polygon fill="#181818" points="1477.76,448.9569,1486.9914,445.5244,1481.3349,445.4611,1481.3981,439.8046,1477.76,448.9569" style="stroke:#181818;stroke-width:1;"/><text fill="#000000" font-family="sans-serif" font-size="13" lengthAdjust="spacing" textLength="61.3818" x="1594.08" y="374.7438">compile()</text></g><!--link StageEngine to StageCore--><g class="link" data-entity-1="ent0005" data-entity-2="ent0004" data-link-type="dependency" data-source-line="120" id="lnk44"><path codeLine="120" d="M2080.68,86.2269 C1988.25,89.8169 1809.17,107.3469 1683.08,185.8969 C1573.82,253.9569 1497.4768,388.2723 1469.2068,443.6823" fill="none" id="StageEngine-to-StageCore" style="stroke:#181818;stroke-width:1;"/><polygon fill="#181818" points="1466.48,449.0269,1474.1332,442.8279,1468.7523,444.5731,1467.0071,439.1921,1466.48,449.0269" style="stroke:#181818;stroke-width:1;"/><text fill="#000000" font-family="sans-serif" font-size="13" lengthAdjust="spacing" textLength="62.3149" x="1684.08" y="263.3538">execute()</text></g><!--link StageEngine to StageRules--><g class="link" data-entity-1="ent0005" data-entity-2="ent0002" data-link-type="dependency" data-source-line="121" id="lnk45"><path codeLine="121" d="M2080.48,86.7169 C1797.96,92.2669 617.69,119.2969 468.08,185.8969 C444.68,196.3069 428.2158,213.0381 415.0458,229.8081" fill="none" id="StageEngine-to-StageRules" style="stroke:#181818;stroke-width:1;stroke-dasharray:7,7;"/><polygon fill="#181818" points="411.34,234.5269,420.0446,229.9192,414.4282,230.5946,413.7529,224.9782,411.34,234.5269" style="stroke:#181818;stroke-width:1;"/></g><!--link StageEngine to StageDsl--><g class="link" data-entity-1="ent0005" data-entity-2="ent0003" data-link-type="dependency" data-source-line="122" id="lnk46"><path codeLine="122" d="M2080.61,99.7969 C2024.45,114.9369 1940.24,142.7469 1877.08,185.8969 C1857.91,198.9969 1844.1809,214.1032 1832.2209,229.6332" fill="none" id="StageEngine-to-StageDsl" style="stroke:#181818;stroke-width:1;stroke-dasharray:7,7;"/><polygon fill="#181818" points="1828.56,234.3869,1837.2205,229.697,1831.6108,230.4255,1830.8823,224.8157,1828.56,234.3869" style="stroke:#181818;stroke-width:1;"/></g><!--link StageCore to TransformationEngine--><g class="link" data-entity-1="ent0004" data-entity-2="ent0006" data-link-type="dependency" data-source-line="124" id="lnk47"><path codeLine="124" d="M1402.07,494.7369 C1322.35,525.2869 1175.6528,581.52 1073.3528,620.72" fill="none" id="StageCore-to-TransformationEngine" style="stroke:#181818;stroke-width:1;stroke-dasharray:7,7;"/><polygon fill="#181818" points="1067.75,622.8669,1077.5854,623.3817,1072.419,621.0778,1074.7229,615.9114,1067.75,622.8669" style="stroke:#181818;stroke-width:1;"/><text fill="#000000" font-family="sans-serif" font-size="13" lengthAdjust="spacing" textLength="62.8862" x="1211.08" y="581.2238">apply ops</text></g><!--link TransformationEngine to OperationRegistry--><g class="link" data-entity-1="ent0006" data-entity-2="ent0007" data-link-type="dependency" data-source-line="125" id="lnk48"><path codeLine="125" d="M928.98,704.1969 C910.18,725.3969 891.08,746.9369 872.27,768.1569" fill="none" id="TransformationEngine-to-OperationRegistry" style="stroke:#181818;stroke-width:1;"/><polygon fill="#181818" points="868.29,772.6469,877.2533,768.5653,871.6067,768.9053,871.2667,763.2586,868.29,772.6469" style="stroke:#181818;stroke-width:1;"/></g><!--reverse link OperationRegistry to Operation--><g class="link" data-entity-1="ent0007" data-entity-2="ent0008" data-link-type="aggregation" data-source-line="126" id="lnk49"><path codeLine="126" d="M833.08,865.9769 C833.08,884.8369 833.08,895.3369 833.08,914.2169" fill="none" id="OperationRegistry-backto-Operation" style="stroke:#181818;stroke-width:1;"/><polygon fill="none" points="833.08,853.9769,829.08,859.9769,833.08,865.9769,837.08,859.9769,833.08,853.9769" style="stroke:#181818;stroke-width:1;"/></g><!--link TransformationEngine to OperationCall--><g class="link" data-entity-1="ent0006" data-entity-2="ent0009" data-link-type="dependency" data-source-line="127" id="lnk50"><path codeLine="127" d="M979.36,704.1969 C987.54,725.3969 995.4196,745.8293 1003.6096,767.0493" fill="none" id="TransformationEngine-to-OperationCall" style="stroke:#181818;stroke-width:1;stroke-dasharray:7,7;"/><polygon fill="#181818" points="1005.77,772.6469,1006.2611,762.8103,1003.9697,767.9822,998.7977,765.6908,1005.77,772.6469" style="stroke:#181818;stroke-width:1;"/></g><!--link EngineResult to DslIssue--><g class="link" data-entity-1="ent0010" data-entity-2="ent0011" data-link-type="dependency" data-source-line="128" id="lnk51"><path codeLine="128" d="M2992.08,125.0969 C2992.08,150.3169 2992.08,177.1669 2992.08,203.8769" fill="none" id="EngineResult-to-DslIssue" style="stroke:#181818;stroke-width:1;"/><polygon fill="#181818" points="2992.08,209.8769,2996.08,200.8769,2992.08,204.8769,2988.08,200.8769,2992.08,209.8769" style="stroke:#181818;stroke-width:1;"/></g><!--link DslLoader to MappingSpec--><g class="link" data-entity-1="ent0012" data-entity-2="ent0013" data-link-type="dependency" data-source-line="130" id="lnk52"><path codeLine="130" d="M484.92,326.0669 C479.26,328.0169 473.64,329.8869 468.08,331.6769 C330.06,376.0469 281.48,345.2869 151.08,408.6769 C134.02,416.9669 121.7949,425.4585 107.9449,437.0885" fill="none" id="DslLoader-to-MappingSpec" style="stroke:#181818;stroke-width:1;stroke-dasharray:7,7;"/><polygon fill="#181818" points="103.35,440.9469,112.8146,438.2226,107.1791,437.7316,107.6701,432.0961,103.35,440.9469" style="stroke:#181818;stroke-width:1;"/></g><!--link DslLoader to NormalizeSpec--><g class="link" data-entity-1="ent0012" data-entity-2="ent0014" data-link-type="dependency" data-source-line="131" id="lnk53"><path codeLine="131" d="M484.85,325.7469 C431.78,349.5769 373.28,378.1869 322.08,408.6769 C306.08,418.2069 294.2248,426.4773 279.9848,437.4373" fill="none" id="DslLoader-to-NormalizeSpec" style="stroke:#181818;stroke-width:1;stroke-dasharray:7,7;"/><polygon fill="#181818" points="275.23,441.0969,284.8018,438.7774,279.1923,438.0472,279.9224,432.4377,275.23,441.0969" style="stroke:#181818;stroke-width:1;"/></g><!--link DslLoader to EnrichSpec--><g class="link" data-entity-1="ent0012" data-entity-2="ent0015" data-link-type="dependency" data-source-line="132" id="lnk54"><path codeLine="132" d="M558.23,331.9469 C529.06,356.1469 496.53,383.4069 467.08,408.6769 C454.92,419.1169 446.2364,426.7028 434.5364,437.0928" fill="none" id="DslLoader-to-EnrichSpec" style="stroke:#181818;stroke-width:1;stroke-dasharray:7,7;"/><polygon fill="#181818" points="430.05,441.0769,439.4356,438.0917,433.7886,437.7568,434.1235,432.1099,430.05,441.0769" style="stroke:#181818;stroke-width:1;"/></g><!--link DslLoader to ValidationSpec--><g class="link" data-entity-1="ent0012" data-entity-2="ent0016" data-link-type="dependency" data-source-line="133" id="lnk55"><path codeLine="133" d="M614.47,332.0669 C598.25,369.1469 581.7343,406.9097 569.2343,435.4897" fill="none" id="DslLoader-to-ValidationSpec" style="stroke:#181818;stroke-width:1;stroke-dasharray:7,7;"/><polygon fill="#181818" points="566.83,440.9869,574.1013,434.3439,568.8336,436.4059,566.7717,431.1382,566.83,440.9869" style="stroke:#181818;stroke-width:1;"/></g><!--link DslLoader to MatchSpec--><g class="link" data-entity-1="ent0012" data-entity-2="ent0017" data-link-type="dependency" data-source-line="134" id="lnk56"><path codeLine="134" d="M668.18,332.0669 C679.51,369.1469 690.9854,406.6692 699.7254,435.2492" fill="none" id="DslLoader-to-MatchSpec" style="stroke:#181818;stroke-width:1;stroke-dasharray:7,7;"/><polygon fill="#181818" points="701.48,440.9869,702.6732,431.2106,700.0178,436.2055,695.0229,433.5501,701.48,440.9869" style="stroke:#181818;stroke-width:1;"/></g><!--link DslLoader to ResolveSpec--><g class="link" data-entity-1="ent0012" data-entity-2="ent0018" data-link-type="dependency" data-source-line="135" id="lnk57"><path codeLine="135" d="M719.17,332.0669 C756.67,369.1469 796.1331,408.1887 825.0431,436.7687" fill="none" id="DslLoader-to-ResolveSpec" style="stroke:#181818;stroke-width:1;stroke-dasharray:7,7;"/><polygon fill="#181818" points="829.31,440.9869,825.7218,431.8149,825.7542,437.4717,820.0975,437.5042,829.31,440.9869" style="stroke:#181818;stroke-width:1;"/></g><!--reverse link StageRules to MappingSpec--><g class="link" data-entity-1="ent0002" data-entity-2="ent0013" data-link-type="extension" data-source-line="137" id="lnk58"><path codeLine="137" d="M322.5459,285.4398 C276.3459,302.9298 227.06,325.1769 176.08,361.6769 C144.49,384.2969 114.45,417.1369 94.48,441.1769" fill="none" id="StageRules-backto-MappingSpec" style="stroke:#181818;stroke-width:1;"/><polygon fill="none" points="339.38,279.0669,320.4216,279.8284,324.6702,291.0511,339.38,279.0669" style="stroke:#181818;stroke-width:1;"/></g><!--reverse link StageRules to NormalizeSpec--><g class="link" data-entity-1="ent0002" data-entity-2="ent0014" data-link-type="extension" data-source-line="138" id="lnk59"><path codeLine="138" d="M366.3423,297.5031 C350.6723,318.1031 338.19,334.6269 318.08,361.6769 C298.33,388.2469 276.14,418.6069 260,440.8169" fill="none" id="StageRules-backto-NormalizeSpec" style="stroke:#181818;stroke-width:1;"/><polygon fill="none" points="377.24,283.1769,361.5669,293.8705,371.1177,301.1357,377.24,283.1769" style="stroke:#181818;stroke-width:1;"/></g><!--reverse link StageRules to EnrichSpec--><g class="link" data-entity-1="ent0002" data-entity-2="ent0015" data-link-type="extension" data-source-line="139" id="lnk60"><path codeLine="139" d="M395.08,300.9469 C395.08,339.2669 395.08,397.8969 395.08,441.0369" fill="none" id="StageRules-backto-EnrichSpec" style="stroke:#181818;stroke-width:1;"/><polygon fill="none" points="395.08,282.9469,389.08,300.9469,401.08,300.9469,395.08,282.9469" style="stroke:#181818;stroke-width:1;"/></g><!--reverse link StageRules to ValidationSpec--><g class="link" data-entity-1="ent0002" data-entity-2="ent0016" data-link-type="extension" data-source-line="140" id="lnk61"><path codeLine="140" d="M423.0272,297.3938 C451.5072,335.7138 497.71,397.8969 529.77,441.0369" fill="none" id="StageRules-backto-ValidationSpec" style="stroke:#181818;stroke-width:1;"/><polygon fill="none" points="412.29,282.9469,418.2115,300.9728,427.8428,293.8147,412.29,282.9469" style="stroke:#181818;stroke-width:1;"/></g><!--reverse link StageRules to MatchSpec--><g class="link" data-entity-1="ent0002" data-entity-2="ent0017" data-link-type="extension" data-source-line="141" id="lnk62"><path codeLine="141" d="M426.7644,296.3844 C440.5344,311.6544 447.98,317.9069 468.08,331.6769 C536.85,378.7669 569.08,363.4269 639.08,408.6769 C653.38,417.9169 667.72,429.9169 679.79,441.0069" fill="none" id="StageRules-backto-MatchSpec" style="stroke:#181818;stroke-width:1;"/><polygon fill="none" points="414.71,283.0169,422.3086,300.4025,431.2203,292.3663,414.71,283.0169" style="stroke:#181818;stroke-width:1;"/></g><!--reverse link StageRules to ResolveSpec--><g class="link" data-entity-1="ent0002" data-entity-2="ent0018" data-link-type="extension" data-source-line="142" id="lnk63"><path codeLine="142" d="M424.6796,296.9725 C438.1496,312.9325 446.33,319.5469 468.08,331.6769 C499.55,349.2269 750.84,392.5969 783.08,408.6769 C799.67,416.9469 815.9,429.2969 829.21,440.9269" fill="none" id="StageRules-backto-ResolveSpec" style="stroke:#181818;stroke-width:1;"/><polygon fill="none" points="413.07,283.2169,420.0943,300.8424,429.2648,293.1027,413.07,283.2169" style="stroke:#181818;stroke-width:1;"/></g><!--reverse link MappingSpec to MappingRule--><g class="link" data-entity-1="ent0013" data-entity-2="ent0019" data-link-type="aggregation" data-source-line="144" id="lnk64"><path codeLine="144" d="M70.08,517.9169 C70.08,547.6269 70.08,580.5869 70.08,614.7369" fill="none" id="MappingSpec-backto-MappingRule" style="stroke:#181818;stroke-width:1;"/><polygon fill="none" points="70.08,505.9169,66.08,511.9169,70.08,517.9169,74.08,511.9169,70.08,505.9169" style="stroke:#181818;stroke-width:1;"/></g><!--reverse link NormalizeSpec to NormalizeRule--><g class="link" data-entity-1="ent0014" data-entity-2="ent0020" data-link-type="aggregation" data-source-line="145" id="lnk65"><path codeLine="145" d="M237.08,517.9169 C237.08,550.0369 237.08,587.9769 237.08,622.8069" fill="none" id="NormalizeSpec-backto-NormalizeRule" style="stroke:#181818;stroke-width:1;"/><polygon fill="none" points="237.08,505.9169,233.08,511.9169,237.08,517.9169,241.08,511.9169,237.08,505.9169" style="stroke:#181818;stroke-width:1;"/></g><!--reverse link EnrichSpec to EnrichRule--><g class="link" data-entity-1="ent0015" data-entity-2="ent0021" data-link-type="aggregation" data-source-line="146" id="lnk66"><path codeLine="146" d="M394.6208,517.9162 C394.3008,547.6262 393.95,580.5869 393.59,614.7369" fill="none" id="EnrichSpec-backto-EnrichRule" style="stroke:#181818;stroke-width:1;"/><polygon fill="none" points="394.75,505.9169,390.6856,511.8734,394.6208,517.9162,398.6851,511.9596,394.75,505.9169" style="stroke:#181818;stroke-width:1;"/></g><!--reverse link ValidationSpec to FieldCheck--><g class="link" data-entity-1="ent0016" data-entity-2="ent0022" data-link-type="aggregation" data-source-line="147" id="lnk67"><path codeLine="147" d="M549.161,517.8683 C546.261,549.9883 542.82,587.9769 539.68,622.8069" fill="none" id="ValidationSpec-backto-FieldCheck" style="stroke:#181818;stroke-width:1;"/><polygon fill="none" points="550.24,505.9169,545.7167,511.5329,549.161,517.8683,553.6843,512.2523,550.24,505.9169" style="stroke:#181818;stroke-width:1;"/></g><!--reverse link ValidationSpec to ConditionalCheck--><g class="link" data-entity-1="ent0016" data-entity-2="ent0023" data-link-type="aggregation" data-source-line="148" id="lnk68"><path codeLine="148" d="M585.4705,515.3238 C610.9105,547.4438 642.99,587.9769 670.58,622.8069" fill="none" id="ValidationSpec-backto-ConditionalCheck" style="stroke:#181818;stroke-width:1;"/><polygon fill="none" points="578.02,505.9169,578.6096,513.1038,585.4705,515.3238,584.8809,508.1368,578.02,505.9169" style="stroke:#181818;stroke-width:1;"/></g><!--reverse link StageDsl to MapperDsl--><g class="link" data-entity-1="ent0003" data-entity-2="ent0024" data-link-type="extension" data-source-line="150" id="lnk69"><path codeLine="150" d="M1775.7319,295.5738 C1734.2919,336.3638 1661.56,407.9569 1619.91,448.9569" fill="none" id="StageDsl-backto-MapperDsl" style="stroke:#181818;stroke-width:1;"/><polygon fill="none" points="1788.56,282.9469,1771.5229,291.2977,1779.9408,299.8498,1788.56,282.9469" style="stroke:#181818;stroke-width:1;"/></g><!--reverse link StageDsl to NormalizerDsl--><g class="link" data-entity-1="ent0003" data-entity-2="ent0025" data-link-type="extension" data-source-line="151" id="lnk70"><path codeLine="151" d="M1800.2889,300.2265 C1788.3889,341.0165 1768.88,407.9569 1756.92,448.9569" fill="none" id="StageDsl-backto-NormalizerDsl" style="stroke:#181818;stroke-width:1;"/><polygon fill="none" points="1805.33,282.9469,1794.529,298.5462,1806.0488,301.9069,1805.33,282.9469" style="stroke:#181818;stroke-width:1;"/></g><!--reverse link StageDsl to EnricherDsl--><g class="link" data-entity-1="ent0003" data-entity-2="ent0026" data-link-type="extension" data-source-line="152" id="lnk71"><path codeLine="152" d="M1829.6005,299.4088 C1847.6405,340.1988 1877.59,407.9569 1895.71,448.9569" fill="none" id="StageDsl-backto-EnricherDsl" style="stroke:#181818;stroke-width:1;"/><polygon fill="none" points="1822.32,282.9469,1824.1132,301.8356,1835.0878,296.9819,1822.32,282.9469" style="stroke:#181818;stroke-width:1;"/></g><!--reverse link StageDsl to ValidatorDsl--><g class="link" data-entity-1="ent0003" data-entity-2="ent0027" data-link-type="extension" data-source-line="153" id="lnk72"><path codeLine="153" d="M1842.8831,296.8971 C1855.3031,311.4971 1860.54,316.6069 1877.08,331.6769 C1919.34,370.1669 1935.28,373.1869 1980.08,408.6769 C1996.55,421.7169 2014.58,436.8069 2028.95,449.0269" fill="none" id="StageDsl-backto-ValidatorDsl" style="stroke:#181818;stroke-width:1;"/><polygon fill="none" points="1831.22,283.1869,1838.313,300.7849,1847.4532,293.0094,1831.22,283.1869" style="stroke:#181818;stroke-width:1;"/></g><!--reverse link StageDsl to MatchDsl--><g class="link" data-entity-1="ent0003" data-entity-2="ent0028" data-link-type="extension" data-source-line="154" id="lnk73"><path codeLine="154" d="M1838.8229,297.6647 C1850.6629,313.4447 1857.32,319.1669 1877.08,331.6769 C1927.09,363.3369 2081.03,378.7169 2132.08,408.6769 C2150.08,419.2369 2166.94,435.6769 2179.12,449.2169" fill="none" id="StageDsl-backto-MatchDsl" style="stroke:#181818;stroke-width:1;"/><polygon fill="none" points="1828.02,283.2669,1834.0236,301.2657,1843.6222,294.0637,1828.02,283.2669" style="stroke:#181818;stroke-width:1;"/></g><!--reverse link StageDsl to ResolveDsl--><g class="link" data-entity-1="ent0003" data-entity-2="ent0029" data-link-type="extension" data-source-line="155" id="lnk74"><path codeLine="155" d="M1837.6882,297.7796 C1849.3582,313.9396 1856.45,319.9669 1877.08,331.6769 C1936.6,365.4269 1960.97,348.3269 2028.08,361.6769 C2132.98,382.5369 2168.28,361.1369 2264.08,408.6769 C2283.82,418.4669 2302.35,435.1069 2315.66,448.9369" fill="none" id="StageDsl-backto-ResolveDsl" style="stroke:#181818;stroke-width:1;"/><polygon fill="none" points="1827.15,283.1869,1832.8239,301.2923,1842.5524,294.2669,1827.15,283.1869" style="stroke:#181818;stroke-width:1;"/></g><!--reverse link StageCore to MapperCore--><g class="link" data-entity-1="ent0004" data-entity-2="ent0030" data-link-type="extension" data-source-line="157" id="lnk75"><path codeLine="157" d="M1409.9822,508.7757 C1362.5222,544.9357 1286.33,602.9869 1238.86,639.1469" fill="none" id="StageCore-backto-MapperCore" style="stroke:#181818;stroke-width:1;"/><polygon fill="none" points="1424.3,497.8669,1406.346,504.0031,1413.6185,513.5482,1424.3,497.8669" style="stroke:#181818;stroke-width:1;"/></g><!--reverse link StageCore to NormalizerCore--><g class="link" data-entity-1="ent0004" data-entity-2="ent0031" data-link-type="extension" data-source-line="158" id="lnk76"><path codeLine="158" d="M1437.4756,514.3359 C1421.5256,550.4959 1398.37,602.9869 1382.43,639.1469" fill="none" id="StageCore-backto-NormalizerCore" style="stroke:#181818;stroke-width:1;"/><polygon fill="none" points="1444.74,497.8669,1431.9859,511.9144,1442.9653,516.7574,1444.74,497.8669" style="stroke:#181818;stroke-width:1;"/></g><!--reverse link StageCore to EnricherCore--><g class="link" data-entity-1="ent0004" data-entity-2="ent0032" data-link-type="extension" data-source-line="159" id="lnk77"><path codeLine="159" d="M1472.8866,514.3038 C1489.0266,550.4638 1512.47,602.9869 1528.61,639.1469" fill="none" id="StageCore-backto-EnricherCore" style="stroke:#181818;stroke-width:1;"/><polygon fill="none" points="1465.55,497.8669,1467.4076,516.7494,1478.3656,511.8583,1465.55,497.8669" style="stroke:#181818;stroke-width:1;"/></g><!--reverse link StageCore to ValidatorCore--><g class="link" data-entity-1="ent0004" data-entity-2="ent0033" data-link-type="extension" data-source-line="160" id="lnk78"><path codeLine="160" d="M1492.5295,510.1801 C1505.7195,522.5501 1509.36,525.4469 1525.08,538.1569 C1571.44,575.6269 1628.07,615.0269 1663.86,639.2169" fill="none" id="StageCore-backto-ValidatorCore" style="stroke:#181818;stroke-width:1;"/><polygon fill="none" points="1479.4,497.8669,1488.4251,514.5566,1496.6339,505.8036,1479.4,497.8669" style="stroke:#181818;stroke-width:1;"/></g><!--reverse link StageCore to MatchCore--><g class="link" data-entity-1="ent0004" data-entity-2="ent0034" data-link-type="extension" data-source-line="161" id="lnk79"><path codeLine="161" d="M1488.25,510.8384 C1501.23,524.3084 1506.5,527.6169 1525.08,538.1569 C1576.57,567.3669 1726.48,590.0569 1780.08,615.1569 C1794.18,621.7569 1808.71,630.8269 1820.99,639.2669" fill="none" id="StageCore-backto-MatchCore" style="stroke:#181818;stroke-width:1;"/><polygon fill="none" points="1475.76,497.8769,1483.9295,515.0017,1492.5705,506.675,1475.76,497.8769" style="stroke:#181818;stroke-width:1;"/></g><!--reverse link StageCore to ResolveCore--><g class="link" data-entity-1="ent0004" data-entity-2="ent0035" data-link-type="extension" data-source-line="162" id="lnk80"><path codeLine="162" d="M1486.7496,510.8258 C1499.6596,524.7258 1505.54,528.3569 1525.08,538.1569 C1545.21,548.2569 1902.08,607.0369 1923.08,615.1569 C1938.9,621.2769 1955.12,630.5669 1968.65,639.3069" fill="none" id="StageCore-backto-ResolveCore" style="stroke:#181818;stroke-width:1;"/><polygon fill="none" points="1474.5,497.6369,1482.3533,514.909,1491.1459,506.7426,1474.5,497.6369" style="stroke:#181818;stroke-width:1;"/></g><!--reverse link StageEngine to MapperEngine--><g class="link" data-entity-1="ent0005" data-entity-2="ent0036" data-link-type="extension" data-source-line="164" id="lnk81"><path codeLine="164" d="M2103.8013,121.2577 C2069.4413,154.1177 2020.01,201.4169 1985.55,234.3769" fill="none" id="StageEngine-backto-MapperEngine" style="stroke:#181818;stroke-width:1;"/><polygon fill="none" points="2116.81,108.8169,2099.6544,116.9214,2107.9482,125.5939,2116.81,108.8169" style="stroke:#181818;stroke-width:1;"/></g><!--reverse link StageEngine to NormalizerEngine--><g class="link" data-entity-1="ent0005" data-entity-2="ent0037" data-link-type="extension" data-source-line="165" id="lnk82"><path codeLine="165" d="M2141.08,126.8169 C2141.08,159.6769 2141.08,201.4169 2141.08,234.3769" fill="none" id="StageEngine-backto-NormalizerEngine" style="stroke:#181818;stroke-width:1;"/><polygon fill="none" points="2141.08,108.8169,2135.08,126.8169,2147.08,126.8169,2141.08,108.8169" style="stroke:#181818;stroke-width:1;"/></g><!--reverse link StageEngine to EnricherEngine--><g class="link" data-entity-1="ent0005" data-entity-2="ent0038" data-link-type="extension" data-source-line="166" id="lnk83"><path codeLine="166" d="M2178.7051,121.1879 C2213.4351,154.0479 2263.5,201.4169 2298.34,234.3769" fill="none" id="StageEngine-backto-EnricherEngine" style="stroke:#181818;stroke-width:1;"/><polygon fill="none" points="2165.63,108.8169,2174.5814,125.5463,2182.8287,116.8296,2165.63,108.8169" style="stroke:#181818;stroke-width:1;"/></g><!--reverse link StageEngine to ValidatorEngine--><g class="link" data-entity-1="ent0005" data-entity-2="ent0039" data-link-type="extension" data-source-line="167" id="lnk84"><path codeLine="167" d="M2219.0277,107.2028 C2275.2277,123.8628 2342.75,147.5069 2410.08,185.8969 C2433.72,199.3669 2457.55,219.0169 2474.59,234.3569" fill="none" id="StageEngine-backto-ValidatorEngine" style="stroke:#181818;stroke-width:1;"/><polygon fill="none" points="2201.77,102.0869,2217.3224,112.9553,2220.733,101.4502,2201.77,102.0869" style="stroke:#181818;stroke-width:1;"/></g><!--reverse link StageEngine to MatchEngine--><g class="link" data-entity-1="ent0005" data-entity-2="ent0040" data-link-type="extension" data-source-line="168" id="lnk85"><path codeLine="168" d="M2219.4845,90.8711 C2308.6745,98.5011 2460.72,119.6669 2588.08,185.8969 C2611.28,197.9569 2632.89,218.5369 2647.62,234.5969" fill="none" id="StageEngine-backto-MatchEngine" style="stroke:#181818;stroke-width:1;"/><polygon fill="none" points="2201.55,89.3369,2218.9731,96.8493,2219.9959,84.893,2201.55,89.3369" style="stroke:#181818;stroke-width:1;"/></g><!--reverse link StageEngine to ResolveEngine--><g class="link" data-entity-1="ent0005" data-entity-2="ent0041" data-link-type="extension" data-source-line="169" id="lnk86"><path codeLine="169" d="M2219.6985,85.4203 C2332.2885,86.8803 2561.03,100.3169 2746.08,185.8969 C2770.99,197.4169 2794.42,218.2769 2810.35,234.5669" fill="none" id="StageEngine-backto-ResolveEngine" style="stroke:#181818;stroke-width:1;"/><polygon fill="none" points="2201.7,85.1869,2219.6207,91.4198,2219.7763,79.4208,2201.7,85.1869" style="stroke:#181818;stroke-width:1;"/></g><!--link MapperEngine to TransformResult--><g class="link" data-entity-1="ent0036" data-entity-2="ent0042" data-link-type="dependency" data-source-line="171" id="lnk87"><path codeLine="171" d="M1982.01,283.0169 C1997.79,299.1069 2020.81,319.6969 2045.08,331.6769 C2119.03,368.1669 2332.46,375.8069 2408.08,408.6769 C2413.65,411.0969 2413.9747,410.9917 2419.4747,414.0217" fill="none" id="MapperEngine-to-TransformResult" style="stroke:#181818;stroke-width:1;stroke-dasharray:7,7;"/><polygon fill="#181818" points="2424.73,416.9169,2418.7772,409.0706,2420.3506,414.5042,2414.917,416.0776,2424.73,416.9169" style="stroke:#181818;stroke-width:1;"/></g><!--link NormalizerEngine to TransformResult--><g class="link" data-entity-1="ent0037" data-entity-2="ent0042" data-link-type="dependency" data-source-line="172" id="lnk88"><path codeLine="172" d="M2165.23,283.1169 C2183.31,299.2469 2209.42,319.8569 2236.08,331.6769 C2301.83,360.8069 2332.03,327.0969 2395.08,361.6769 C2416.24,373.2769 2431.5166,386.3039 2447.6066,403.9439" fill="none" id="NormalizerEngine-to-TransformResult" style="stroke:#181818;stroke-width:1;stroke-dasharray:7,7;"/><polygon fill="#181818" points="2451.65,408.3769,2448.5402,399.0319,2448.2805,404.6828,2442.6296,404.4231,2451.65,408.3769" style="stroke:#181818;stroke-width:1;"/></g><!--link EnricherEngine to TransformResult--><g class="link" data-entity-1="ent0038" data-entity-2="ent0042" data-link-type="dependency" data-source-line="173" id="lnk89"><path codeLine="173" d="M2353.86,283.0069 C2378.1,302.3069 2411.75,331.4069 2436.08,361.6769 C2447.52,375.8969 2455.1337,387.2529 2464.2637,403.1629" fill="none" id="EnricherEngine-to-TransformResult" style="stroke:#181818;stroke-width:1;stroke-dasharray:7,7;"/><polygon fill="#181818" points="2467.25,408.3669,2466.2398,398.57,2464.7614,404.0302,2459.3011,402.5517,2467.25,408.3669" style="stroke:#181818;stroke-width:1;"/></g><!--link ValidatorEngine to TransformResult--><g class="link" data-entity-1="ent0039" data-entity-2="ent0042" data-link-type="dependency" data-source-line="174" id="lnk90"><path codeLine="174" d="M2499.08,282.9469 C2499.08,312.8669 2499.08,360.1569 2499.08,402.6169" fill="none" id="ValidatorEngine-to-TransformResult" style="stroke:#181818;stroke-width:1;stroke-dasharray:7,7;"/><polygon fill="#181818" points="2499.08,408.6169,2503.08,399.6169,2499.08,403.6169,2495.08,399.6169,2499.08,408.6169" style="stroke:#181818;stroke-width:1;"/></g><!--link MatchEngine to TransformResult--><g class="link" data-entity-1="ent0040" data-entity-2="ent0042" data-link-type="dependency" data-source-line="175" id="lnk91"><path codeLine="175" d="M2648.78,282.9469 C2625.14,312.8669 2586.7598,361.4491 2553.2098,403.9091" fill="none" id="MatchEngine-to-TransformResult" style="stroke:#181818;stroke-width:1;stroke-dasharray:7,7;"/><polygon fill="#181818" points="2549.49,408.6169,2558.2083,404.0352,2552.5899,404.6938,2551.9313,399.0754,2549.49,408.6169" style="stroke:#181818;stroke-width:1;"/></g><!--link ResolveEngine to TransformResult--><g class="link" data-entity-1="ent0041" data-entity-2="ent0042" data-link-type="dependency" data-source-line="176" id="lnk92"><path codeLine="176" d="M2806.03,283.0969 C2789.6,297.8369 2767.31,316.8369 2746.08,331.6769 C2690.56,370.4769 2628.8723,405.3188 2578.6823,431.8988" fill="none" id="ResolveEngine-to-TransformResult" style="stroke:#181818;stroke-width:1;stroke-dasharray:7,7;"/><polygon fill="#181818" points="2573.38,434.7069,2583.2055,434.0297,2577.7986,432.3668,2579.4615,426.9599,2573.38,434.7069" style="stroke:#181818;stroke-width:1;"/></g><?plantuml-src ZLRBRjim4BphAtYqspeVO1IvE2bG86a1f-sbA0n6Mij4Q54WgQHfct_lajHZIJ6nJvPsPfyKPss5bS2kxcxOYdrln5v0nUuihu7TgWeaMsmaDuPT2LvhVbmM1RytLlFIij83dhlj99WiScLarhvH6hB0TLEB1eeYcBvftfYzqaTkXMe2nluMZBtdRIkV5uzSTl21gTOirop0Mp2Tj8xo9EnXLsAY7U8B9EIY5Iz3hgyjQ0zieHPOs7D8fFqRw4N3ZvXgtpNbqjbhiDw4SKVFJB0Gn17N38Ew5nTYpKek9R-NkG8s20K_rOvUNDTcpIfHsic3TXmS_43SWp2c0tJ00_Zi7d---pNv3SRWK-91ZscEO0mUm_Xku16qiC_1G2FSA5w13Y4aFk-EU2QYgNUcXNA7OzvLt7A3O-f_boEpSMSWnHyuWmkD5kNX32AsBj1uJapy0CuAgS4e-VXMn74Wjw7vEsI6aVIKOP0lFU_BqFf9vhLl_2JjHsWRFvkJr5lNzadMDZJz1YzksLt-GBJuZOA_UaPrkeJm1PjSzvCJAewivipGVIwsLEgXQ-SUdroWpG7AXpS3RrHJ2JSkBWdvwG0DvP8MGJiHI-edjb0fjVH7eeZ9ZtvwxMVi354cBujfAc8SSX7Jc8pOV3RotgVpbYXVhu5fniWyv8oCOzR8wlD6bZxpAwfEbKi3IhK_BwsUWX9Pxdv1QwMDFoIk6_pWZBjrmtPXgzNbj58OwgewjaB2ObcGVJ9ZmMyeEvkoBYukwKBBGlxCfb3EdjrIQ-PNbDjDHPRWIfhjd6A-XTHgHJPCDfGh8jeUHRGPNAP1yejYacxdHdGhGIAbIh19cn8WLgDPBfjr8ehJZzRFdttyXwtJ0bCiBZ55IP4fb9GvpsbVSOnAfPglfb8TlOXrNj5YFKxKNOsrUYGHT8TEqfP3KqKZbsESO92ds1wBMOnHKOkHIDpIHBt8nMOgTjF58QLvNKgGHFuIDDB118i5SPPmKCO4Y2IINdnIPwzYCtGcd3D6eg4pF9NJJ06Jiix0H6HfiR4-zV-DqtgpfBZaB2MfEiiXXMVngFOSupy0?></g></svg>