<?xml version="1.0" encoding="UTF-8" standalone="no"?><svg xmlns="http://www.w3.org/2000/svg" xmlns:xlink="http://www.w3.org/1999/xlink" contentScriptType="application/ecmascript" contentStyleType="text/css" height="642px" preserveAspectRatio="none" style="width:1224px;height:642px;" version="1.1" viewBox="0 0 1224 642" width="1224px" zoomAndPan="magnify"><defs><filter height="300%" id="f1q0igjtwn1rut" width="300%" x="-1" y="-1"><feGaussianBlur result="blurOut" stdDeviation="2.0"/><feColorMatrix in="blurOut" result="blurOut2" type="matrix" values="0 0 0 0 0 0 0 0 0 0 0 0 0 0 0 0 0 0 .4 0"/><feOffset dx="4.0" dy="4.0" in="blurOut2" result="blurOut3"/><feBlend in="SourceGraphic" in2="blurOut3" mode="normal"/></filter></defs><g><text fill="#000000" font-family="Arial" font-size="18" lengthAdjust="spacingAndGlyphs" textLength="381" x="427.5" y="16.708">DSL Stage Architecture (Current + Target)</text><!--MD5=[394550b77f85ae3305b7c076dcc17885]
cluster Runtime Pipeline--><polygon fill="#FFFFFF" filter="url(#f1q0igjtwn1rut)" points="22,45.4531,159,45.4531,166,67.75,733,67.75,733,132.4531,22,132.4531,22,45.4531" style="stroke: #000000; stroke-width: 1.5;"/><line style="stroke: #000000; stroke-width: 1.5;" x1="22" x2="166" y1="67.75" y2="67.75"/><text fill="#000000" font-family="Arial" font-size="14" font-weight="bold" lengthAdjust="spacingAndGlyphs" textLength="131" x="26" y="60.4482">Runtime Pipeline</text><!--MD5=[88b0f003f16211a6c671efe5a46a11d8]
cluster Stage DSL Layer--><polygon fill="#FFFFFF" filter="url(#f1q0igjtwn1rut)" points="71,308.9531,206,308.9531,213,331.25,509,331.25,509,531.9531,71,531.9531,71,308.9531" style="stroke: #000000; stroke-width: 1.5;"/><line style="stroke: #000000; stroke-width: 1.5;" x1="71" x2="213" y1="331.25" y2="331.25"/><text fill="#000000" font-family="Arial" font-size="14" font-weight="bold" lengthAdjust="spacingAndGlyphs" textLength="129" x="75" y="323.9482">Stage DSL Layer</text><!--MD5=[8413d784bc1f25ef31189357ad086cc6]
cluster Stage Engine Layer--><polygon fill="#FFFFFF" filter="url(#f1q0igjtwn1rut)" points="135,172.9531,293,172.9531,300,195.25,624,195.25,624,259.9531,135,259.9531,135,172.9531" style="stroke: #000000; stroke-width: 1.5;"/><line style="stroke: #000000; stroke-width: 1.5;" x1="135" x2="300" y1="195.25" y2="195.25"/><text fill="#000000" font-family="Arial" font-size="14" font-weight="bold" lengthAdjust="spacingAndGlyphs" textLength="152" x="139" y="187.9482">Stage Engine Layer</text><!--MD5=[99fa3d23300ea50d74bc44b08e297b58]
cluster Stage Core Layer--><polygon fill="#FFFFFF" filter="url(#f1q0igjtwn1rut)" points="551,308.9531,694,308.9531,701,331.25,995,331.25,995,395.9531,551,395.9531,551,308.9531" style="stroke: #000000; stroke-width: 1.5;"/><line style="stroke: #000000; stroke-width: 1.5;" x1="551" x2="701" y1="331.25" y2="331.25"/><text fill="#000000" font-family="Arial" font-size="14" font-weight="bold" lengthAdjust="spacingAndGlyphs" textLength="137" x="555" y="323.9482">Stage Core Layer</text><!--MD5=[134971acf701693ba429de93041c19f3]
cluster Shared DSL Kernel--><polygon fill="#FFFFFF" filter="url(#f1q0igjtwn1rut)" points="533,444.9531,687,444.9531,694,467.25,908,467.25,908,630.9531,533,630.9531,533,444.9531" style="stroke: #000000; stroke-width: 1.5;"/><line style="stroke: #000000; stroke-width: 1.5;" x1="533" x2="694" y1="467.25" y2="467.25"/><text fill="#000000" font-family="Arial" font-size="14" font-weight="bold" lengthAdjust="spacingAndGlyphs" textLength="148" x="537" y="459.9482">Shared DSL Kernel</text><!--MD5=[a6f11bb19cee6b13000111f5ad685e8b]
cluster Dependencies--><polygon fill="#FFFFFF" filter="url(#f1q0igjtwn1rut)" points="932,444.9531,1051,444.9531,1058,467.25,1202,467.25,1202,630.9531,932,630.9531,932,444.9531" style="stroke: #000000; stroke-width: 1.5;"/><line style="stroke: #000000; stroke-width: 1.5;" x1="932" x2="1058" y1="467.25" y2="467.25"/><text fill="#000000" font-family="Arial" font-size="14" font-weight="bold" lengthAdjust="spacingAndGlyphs" textLength="113" x="936" y="459.9482">Dependencies</text><!--MD5=[d8d530b58b5c1fd81913d4c7ad547fa8]
entity MapStage--><rect fill="#FEFECE" filter="url(#f1q0igjtwn1rut)" height="36.2969" style="stroke: #A80036; stroke-width: 1.5;" width="89" x="188.5" y="80.4531"/><rect fill="#FEFECE" height="5" style="stroke: #A80036; stroke-width: 1.5;" width="10" x="183.5" y="85.4531"/><rect fill="#FEFECE" height="5" style="stroke: #A80036; stroke-width: 1.5;" width="10" x="183.5" y="106.75"/><text fill="#000000" font-family="Arial" font-size="14" lengthAdjust="spacingAndGlyphs" textLength="69" x="198.5" y="103.4482">MapStage</text><!--MD5=[5838479bb626ecf5cbbb211dc675b46c]
entity NormalizeStage--><rect fill="#FEFECE" filter="url(#f1q0igjtwn1rut)" height="36.2969" style="stroke: #A80036; stroke-width: 1.5;" width="128" x="313" y="80.4531"/><rect fill="#FEFECE" height="5" style="stroke: #A80036; stroke-width: 1.5;" width="10" x="308" y="85.4531"/><rect fill="#FEFECE" height="5" style="stroke: #A80036; stroke-width: 1.5;" width="10" x="308" y="106.75"/><text fill="#000000" font-family="Arial" font-size="14" lengthAdjust="spacingAndGlyphs" textLength="108" x="323" y="103.4482">NormalizeStage</text><!--MD5=[80e62be7c82f016bb27be7a019efb02d]
entity EnrichStage--><rect fill="#FEFECE" filter="url(#f1q0igjtwn1rut)" height="36.2969" style="stroke: #A80036; stroke-width: 1.5;" width="103" x="476.5" y="80.4531"/><rect fill="#FEFECE" height="5" style="stroke: #A80036; stroke-width: 1.5;" width="10" x="471.5" y="85.4531"/><rect fill="#FEFECE" height="5" style="stroke: #A80036; stroke-width: 1.5;" width="10" x="471.5" y="106.75"/><text fill="#000000" font-family="Arial" font-size="14" lengthAdjust="spacingAndGlyphs" textLength="83" x="486.5" y="103.4482">EnrichStage</text><!--MD5=[a6d511da162eb1837f134a2f326de2c4]
entity MatchStage--><rect fill="#FEFECE" filter="url(#f1q0igjtwn1rut)" height="36.2969" style="stroke: #A80036; stroke-width: 1.5;" width="102" x="615" y="80.4531"/><rect fill="#FEFECE" height="5" style="stroke: #A80036; stroke-width: 1.5;" width="10" x="610" y="85.4531"/><rect fill="#FEFECE" height="5" style="stroke: #A80036; stroke-width: 1.5;" width="10" x="610" y="106.75"/><text fill="#000000" font-family="Arial" font-size="14" lengthAdjust="spacingAndGlyphs" textLength="82" x="625" y="103.4482">MatchStage</text><!--MD5=[2fb566fe3b810e088bcbc58b532753f0]
entity ResolveStage--><rect fill="#FEFECE" filter="url(#f1q0igjtwn1rut)" height="36.2969" style="stroke: #A80036; stroke-width: 1.5;" width="115" x="38.5" y="80.4531"/><rect fill="#FEFECE" height="5" style="stroke: #A80036; stroke-width: 1.5;" width="10" x="33.5" y="85.4531"/><rect fill="#FEFECE" height="5" style="stroke: #A80036; stroke-width: 1.5;" width="10" x="33.5" y="106.75"/><text fill="#000000" font-family="Arial" font-size="14" lengthAdjust="spacingAndGlyphs" textLength="95" x="48.5" y="103.4482">ResolveStage</text><!--MD5=[81b31fc1b433f190775280fa01d95232]
entity MappingSpec--><rect fill="#FEFECE" filter="url(#f1q0igjtwn1rut)" height="36.2969" style="stroke: #A80036; stroke-width: 1.5;" width="114" x="87" y="479.9531"/><rect fill="#FEFECE" height="5" style="stroke: #A80036; stroke-width: 1.5;" width="10" x="82" y="484.9531"/><rect fill="#FEFECE" height="5" style="stroke: #A80036; stroke-width: 1.5;" width="10" x="82" y="506.25"/><text fill="#000000" font-family="Arial" font-size="14" lengthAdjust="spacingAndGlyphs" textLength="94" x="97" y="502.9482">MappingSpec</text><!--MD5=[0e6a32fa69ff85618919c26665770760]
entity NormalizeSpec--><rect fill="#FEFECE" filter="url(#f1q0igjtwn1rut)" height="36.2969" style="stroke: #A80036; stroke-width: 1.5;" width="123" x="236.5" y="479.9531"/><rect fill="#FEFECE" height="5" style="stroke: #A80036; stroke-width: 1.5;" width="10" x="231.5" y="484.9531"/><rect fill="#FEFECE" height="5" style="stroke: #A80036; stroke-width: 1.5;" width="10" x="231.5" y="506.25"/><text fill="#000000" font-family="Arial" font-size="14" lengthAdjust="spacingAndGlyphs" textLength="103" x="246.5" y="502.9482">NormalizeSpec</text><!--MD5=[a62622ff0e0a83cbbc673bd4800455e9]
entity EnrichSpec--><rect fill="#FEFECE" filter="url(#f1q0igjtwn1rut)" height="36.2969" style="stroke: #A80036; stroke-width: 1.5;" width="98" x="395" y="479.9531"/><rect fill="#FEFECE" height="5" style="stroke: #A80036; stroke-width: 1.5;" width="10" x="390" y="484.9531"/><rect fill="#FEFECE" height="5" style="stroke: #A80036; stroke-width: 1.5;" width="10" x="390" y="506.25"/><text fill="#000000" font-family="Arial" font-size="14" lengthAdjust="spacingAndGlyphs" textLength="78" x="405" y="502.9482">EnrichSpec</text><!--MD5=[d3829a28a2e125da19d155f5b233976b]
entity MapperDsl--><rect fill="#FEFECE" filter="url(#f1q0igjtwn1rut)" height="36.2969" style="stroke: #A80036; stroke-width: 1.5;" width="94" x="106" y="343.9531"/><rect fill="#FEFECE" height="5" style="stroke: #A80036; stroke-width: 1.5;" width="10" x="101" y="348.9531"/><rect fill="#FEFECE" height="5" style="stroke: #A80036; stroke-width: 1.5;" width="10" x="101" y="370.25"/><text fill="#000000" font-family="Arial" font-size="14" lengthAdjust="spacingAndGlyphs" textLength="74" x="116" y="366.9482">MapperDsl</text><!--MD5=[349e8ac2029838f3f6c6bfb2fcfa386a]
entity NormalizerDsl--><rect fill="#FEFECE" filter="url(#f1q0igjtwn1rut)" height="36.2969" style="stroke: #A80036; stroke-width: 1.5;" width="115" x="242.5" y="343.9531"/><rect fill="#FEFECE" height="5" style="stroke: #A80036; stroke-width: 1.5;" width="10" x="237.5" y="348.9531"/><rect fill="#FEFECE" height="5" style="stroke: #A80036; stroke-width: 1.5;" width="10" x="237.5" y="370.25"/><text fill="#000000" font-family="Arial" font-size="14" lengthAdjust="spacingAndGlyphs" textLength="95" x="252.5" y="366.9482">NormalizerDsl</text><!--MD5=[735e74f74f8f00833e72a2c5da2df8e1]
entity EnricherDsl--><rect fill="#FEFECE" filter="url(#f1q0igjtwn1rut)" height="36.2969" style="stroke: #A80036; stroke-width: 1.5;" width="99" x="393.5" y="343.9531"/><rect fill="#FEFECE" height="5" style="stroke: #A80036; stroke-width: 1.5;" width="10" x="388.5" y="348.9531"/><rect fill="#FEFECE" height="5" style="stroke: #A80036; stroke-width: 1.5;" width="10" x="388.5" y="370.25"/><text fill="#000000" font-family="Arial" font-size="14" lengthAdjust="spacingAndGlyphs" textLength="79" x="403.5" y="366.9482">EnricherDsl</text><!--MD5=[40ca2790cf5aba1000deb343e55913c8]
entity MapperEngine--><rect fill="#FEFECE" filter="url(#f1q0igjtwn1rut)" height="36.2969" style="stroke: #A80036; stroke-width: 1.5;" width="120" x="151" y="207.9531"/><rect fill="#FEFECE" height="5" style="stroke: #A80036; stroke-width: 1.5;" width="10" x="146" y="212.9531"/><rect fill="#FEFECE" height="5" style="stroke: #A80036; stroke-width: 1.5;" width="10" x="146" y="234.25"/><text fill="#000000" font-family="Arial" font-size="14" lengthAdjust="spacingAndGlyphs" textLength="100" x="161" y="230.9482">MapperEngine</text><!--MD5=[53b759222ce071c72ba7a950bf0f61a8]
entity NormalizerEngine--><rect fill="#FEFECE" filter="url(#f1q0igjtwn1rut)" height="36.2969" style="stroke: #A80036; stroke-width: 1.5;" width="141" x="306.5" y="207.9531"/><rect fill="#FEFECE" height="5" style="stroke: #A80036; stroke-width: 1.5;" width="10" x="301.5" y="212.9531"/><rect fill="#FEFECE" height="5" style="stroke: #A80036; stroke-width: 1.5;" width="10" x="301.5" y="234.25"/><text fill="#000000" font-family="Arial" font-size="14" lengthAdjust="spacingAndGlyphs" textLength="121" x="316.5" y="230.9482">NormalizerEngine</text><!--MD5=[612486105030c37b654c1d7d55b696d0]
entity EnricherEngine--><rect fill="#FEFECE" filter="url(#f1q0igjtwn1rut)" height="36.2969" style="stroke: #A80036; stroke-width: 1.5;" width="125" x="482.5" y="207.9531"/><rect fill="#FEFECE" height="5" style="stroke: #A80036; stroke-width: 1.5;" width="10" x="477.5" y="212.9531"/><rect fill="#FEFECE" height="5" style="stroke: #A80036; stroke-width: 1.5;" width="10" x="477.5" y="234.25"/><text fill="#000000" font-family="Arial" font-size="14" lengthAdjust="spacingAndGlyphs" textLength="105" x="492.5" y="230.9482">EnricherEngine</text><!--MD5=[607810a4549eb9552e9490921fa288d1]
entity MapperCore--><rect fill="#FEFECE" filter="url(#f1q0igjtwn1rut)" height="36.2969" style="stroke: #A80036; stroke-width: 1.5;" width="105" x="567.5" y="343.9531"/><rect fill="#FEFECE" height="5" style="stroke: #A80036; stroke-width: 1.5;" width="10" x="562.5" y="348.9531"/><rect fill="#FEFECE" height="5" style="stroke: #A80036; stroke-width: 1.5;" width="10" x="562.5" y="370.25"/><text fill="#000000" font-family="Arial" font-size="14" lengthAdjust="spacingAndGlyphs" textLength="85" x="577.5" y="366.9482">MapperCore</text><!--MD5=[f9a18ba7dcbe7375fa2d48161eaa97bf]
entity NormalizerCore--><rect fill="#FEFECE" filter="url(#f1q0igjtwn1rut)" height="36.2969" style="stroke: #A80036; stroke-width: 1.5;" width="126" x="708" y="343.9531"/><rect fill="#FEFECE" height="5" style="stroke: #A80036; stroke-width: 1.5;" width="10" x="703" y="348.9531"/><rect fill="#FEFECE" height="5" style="stroke: #A80036; stroke-width: 1.5;" width="10" x="703" y="370.25"/><text fill="#000000" font-family="Arial" font-size="14" lengthAdjust="spacingAndGlyphs" textLength="106" x="718" y="366.9482">NormalizerCore</text><!--MD5=[99c2d7e31c0009b22ad389757a6c6880]
entity EnricherCore--><rect fill="#FEFECE" filter="url(#f1q0igjtwn1rut)" height="36.2969" style="stroke: #A80036; stroke-width: 1.5;" width="110" x="869" y="343.9531"/><rect fill="#FEFECE" height="5" style="stroke: #A80036; stroke-width: 1.5;" width="10" x="864" y="348.9531"/><rect fill="#FEFECE" height="5" style="stroke: #A80036; stroke-width: 1.5;" width="10" x="864" y="370.25"/><text fill="#000000" font-family="Arial" font-size="14" lengthAdjust="spacingAndGlyphs" textLength="90" x="879" y="366.9482">EnricherCore</text><!--MD5=[1557df06877f70787b91a3306eaeaf8b]
entity TEngine--><rect fill="#FEFECE" filter="url(#f1q0igjtwn1rut)" height="36.2969" style="stroke: #A80036; stroke-width: 1.5;" width="172" x="720" y="479.9531"/><rect fill="#FEFECE" height="5" style="stroke: #A80036; stroke-width: 1.5;" width="10" x="715" y="484.9531"/><rect fill="#FEFECE" height="5" style="stroke: #A80036; stroke-width: 1.5;" width="10" x="715" y="506.25"/><text fill="#000000" font-family="Arial" font-size="14" lengthAdjust="spacingAndGlyphs" textLength="152" x="730" y="502.9482">TransformationEngine</text><!--MD5=[4deb7753515de286d568fa33f0a2fe6f]
entity Registry--><rect fill="#FEFECE" filter="url(#f1q0igjtwn1rut)" height="36.2969" style="stroke: #A80036; stroke-width: 1.5;" width="144" x="734" y="578.9531"/><rect fill="#FEFECE" height="5" style="stroke: #A80036; stroke-width: 1.5;" width="10" x="729" y="583.9531"/><rect fill="#FEFECE" height="5" style="stroke: #A80036; stroke-width: 1.5;" width="10" x="729" y="605.25"/><text fill="#000000" font-family="Arial" font-size="14" lengthAdjust="spacingAndGlyphs" textLength="124" x="744" y="601.9482">OperationRegistry</text><!--MD5=[dde755369ce3ba0f03f6e51c436468f0]
entity ProviderGateway--><rect fill="#FEFECE" filter="url(#f1q0igjtwn1rut)" height="36.2969" style="stroke: #A80036; stroke-width: 1.5;" width="135" x="549.5" y="479.9531"/><rect fill="#FEFECE" height="5" style="stroke: #A80036; stroke-width: 1.5;" width="10" x="544.5" y="484.9531"/><rect fill="#FEFECE" height="5" style="stroke: #A80036; stroke-width: 1.5;" width="10" x="544.5" y="506.25"/><text fill="#000000" font-family="Arial" font-size="14" lengthAdjust="spacingAndGlyphs" textLength="115" x="559.5" y="502.9482">ProviderGateway</text><!--MD5=[c544dd504ca4e85a7ed11c9821fbfc1a]
entity ProviderDeps--><rect fill="#FEFECE" filter="url(#f1q0igjtwn1rut)" height="36.2969" style="stroke: #A80036; stroke-width: 1.5;" width="183" x="961.5" y="479.9531"/><rect fill="#FEFECE" height="5" style="stroke: #A80036; stroke-width: 1.5;" width="10" x="956.5" y="484.9531"/><rect fill="#FEFECE" height="5" style="stroke: #A80036; stroke-width: 1.5;" width="10" x="956.5" y="506.25"/><text fill="#000000" font-family="Arial" font-size="14" lengthAdjust="spacingAndGlyphs" textLength="163" x="971.5" y="502.9482">TransformProviderDeps</text><!--MD5=[1be2cab07819320f10d62cd7814678c0]
entity ExternalDeps--><rect fill="#FEFECE" filter="url(#f1q0igjtwn1rut)" height="36.2969" style="stroke: #A80036; stroke-width: 1.5;" width="237" x="948.5" y="578.9531"/><rect fill="#FEFECE" height="5" style="stroke: #A80036; stroke-width: 1.5;" width="10" x="943.5" y="583.9531"/><rect fill="#FEFECE" height="5" style="stroke: #A80036; stroke-width: 1.5;" width="10" x="943.5" y="605.25"/><text fill="#000000" font-family="Arial" font-size="14" lengthAdjust="spacingAndGlyphs" textLength="217" x="958.5" y="601.9482">Cache/Dictionaries/SecretStore</text><path d="M752.5,70.9531 L752.5,94.4531 L717.19,98.4531 L752.5,102.4531 L752.5,126.3516 A0,0 0 0 0 752.5,126.3516 L1027.5,126.3516 A0,0 0 0 0 1027.5,126.3516 L1027.5,80.9531 L1017.5,70.9531 L752.5,70.9531 A0,0 0 0 0 752.5,70.9531 " fill="#FBFB77" filter="url(#f1q0igjtwn1rut)" style="stroke: #A80036; stroke-width: 1.0;"/><path d="M1017.5,70.9531 L1017.5,80.9531 L1027.5,80.9531 L1017.5,70.9531 " fill="#FBFB77" style="stroke: #A80036; stroke-width: 1.0;"/><text fill="#000000" font-family="Arial" font-size="13" lengthAdjust="spacingAndGlyphs" textLength="89" x="758.5" y="88.02">Current state:</text><text fill="#000000" font-family="Arial" font-size="13" lengthAdjust="spacingAndGlyphs" textLength="254" x="758.5" y="103.1528">Match/Resolve run as transform stages,</text><text fill="#000000" font-family="Arial" font-size="13" lengthAdjust="spacingAndGlyphs" textLength="221" x="758.5" y="118.2856">DSL migration planned separately.</text><!--MD5=[a64d17a5a703899ad525017c1eabf4ed]
link MapStage to MapperEngine--><path d="M229.99,116.6431 C226.08,138.9531 219.24,177.9331 214.93,202.5531 " fill="none" id="MapStage-&gt;MapperEngine" style="stroke: #A80036; stroke-width: 1.0;"/><polygon fill="#A80036" points="214.05,207.5731,219.56,199.4098,214.923,202.6499,211.6829,198.013,214.05,207.5731" style="stroke: #A80036; stroke-width: 1.0;"/><!--MD5=[82ff051875f3f96684beec551d169aef]
link NormalizeStage to NormalizerEngine--><path d="M377,116.6431 C377,138.9531 377,177.9331 377,202.5531 " fill="none" id="NormalizeStage-&gt;NormalizerEngine" style="stroke: #A80036; stroke-width: 1.0;"/><polygon fill="#A80036" points="377,207.5731,381,198.5731,377,202.5731,373,198.5731,377,207.5731" style="stroke: #A80036; stroke-width: 1.0;"/><!--MD5=[695a7a1eee20cd523d9b2cfbcbd4af47]
link EnrichStage to EnricherEngine--><path d="M530.33,116.6431 C533.35,138.9531 538.63,177.9331 541.97,202.5531 " fill="none" id="EnrichStage-&gt;EnricherEngine" style="stroke: #A80036; stroke-width: 1.0;"/><polygon fill="#A80036" points="542.65,207.5731,545.4058,198.1177,541.9789,202.6184,537.4782,199.1914,542.65,207.5731" style="stroke: #A80036; stroke-width: 1.0;"/><!--MD5=[fa390b8ce2474aa6fedf4f4355b16f8a]
link MapperEngine to MapperCore--><path d="M228.43,244.1331 C245.9,260.0931 274.39,282.8731 304,292.9531 C347.16,307.6431 465.03,288.9131 509,300.9531 C539.31,309.2531 570.5,327.0831 592.07,341.1631 " fill="none" id="MapperEngine-&gt;MapperCore" style="stroke: #A80036; stroke-width: 1.0;"/><polygon fill="#A80036" points="596.25,343.9331,590.9276,335.6462,592.0722,341.1861,586.5324,342.3307,596.25,343.9331" style="stroke: #A80036; stroke-width: 1.0;"/><!--MD5=[f07dc97e0f9895f0eec3c0286250f463]
link NormalizerEngine to NormalizerCore--><path d="M393.98,244.1531 C411.01,260.1231 438.85,282.9131 468,292.9531 C514.67,309.0331 643.41,284.6431 690,300.9531 C713.3,309.1131 735.51,326.4931 750.76,340.4531 " fill="none" id="NormalizerEngine-&gt;NormalizerCore" style="stroke: #A80036; stroke-width: 1.0;"/><polygon fill="#A80036" points="754.49,343.9231,750.6221,334.8656,750.8281,340.5187,745.175,340.7247,754.49,343.9231" style="stroke: #A80036; stroke-width: 1.0;"/><!--MD5=[86896a1e124ac66f923121d79518cbd7]
link EnricherEngine to EnricherCore--><path d="M607.57,233.5431 C671.72,242.2131 773.01,261.2631 852,300.9531 C871.67,310.8331 890.66,327.0331 904.19,340.1031 " fill="none" id="EnricherEngine-&gt;EnricherCore" style="stroke: #A80036; stroke-width: 1.0;"/><polygon fill="#A80036" points="907.86,343.7031,904.2318,334.5469,904.2889,340.2035,898.6324,340.2606,907.86,343.7031" style="stroke: #A80036; stroke-width: 1.0;"/><!--MD5=[2c46f1f3eb94ea78434fa5ec49959d00]
link MapperEngine to MapperDsl--><path d="M181.58,243.9731 C170.46,252.1031 159.05,262.9231 153,275.9531 C143.88,295.6031 145.22,320.6731 148.02,338.4831 " fill="none" id="MapperEngine-&gt;MapperDsl" style="stroke: #A80036; stroke-width: 1.0; stroke-dasharray: 7.0,7.0;"/><polygon fill="#A80036" points="148.93,343.7631,151.3557,334.2176,148.0872,338.8347,143.4701,335.5662,148.93,343.7631" style="stroke: #A80036; stroke-width: 1.0;"/><text fill="#000000" font-family="Arial" font-size="13" lengthAdjust="spacingAndGlyphs" textLength="84" x="154" y="289.02">compile spec</text><!--MD5=[ec25cf955c6fdf0707fc0be84aff797e]
link NormalizerEngine to NormalizerDsl--><path d="M350.39,244.1631 C339.45,252.5231 327.59,263.4631 320,275.9531 C308.37,295.0931 303.51,320.4431 301.47,338.4731 " fill="none" id="NormalizerEngine-&gt;NormalizerDsl" style="stroke: #A80036; stroke-width: 1.0; stroke-dasharray: 7.0,7.0;"/><polygon fill="#A80036" points="300.92,343.8131,305.8006,335.2586,301.4203,338.8382,297.8407,334.458,300.92,343.8131" style="stroke: #A80036; stroke-width: 1.0;"/><text fill="#000000" font-family="Arial" font-size="13" lengthAdjust="spacingAndGlyphs" textLength="84" x="321" y="289.02">compile spec</text><!--MD5=[e429ad6868492d90876533c4ce237a4a]
link EnricherEngine to EnricherDsl--><path d="M520.49,244.1631 C509.34,252.8231 496.54,264.0031 487,275.9531 C471.56,295.3031 459.19,320.9231 451.54,338.9631 " fill="none" id="EnricherEngine-&gt;EnricherDsl" style="stroke: #A80036; stroke-width: 1.0; stroke-dasharray: 7.0,7.0;"/><polygon fill="#A80036" points="449.51,343.8331,456.6713,337.0718,451.4381,339.2199,449.29,333.9867,449.51,343.8331" style="stroke: #A80036; stroke-width: 1.0;"/><text fill="#000000" font-family="Arial" font-size="13" lengthAdjust="spacingAndGlyphs" textLength="84" x="488" y="289.02">compile spec</text><!--MD5=[71b20daf8e86c6875db8212f8b4c4f0f]
link MapperDsl to MappingSpec--><path d="M151.84,380.1931 C150.22,404.3231 147.28,448.1531 145.49,474.7031 " fill="none" id="MapperDsl-&gt;MappingSpec" style="stroke: #A80036; stroke-width: 1.0;"/><polygon fill="#A80036" points="145.15,479.7731,149.7332,471.0556,145.4788,474.7839,141.7505,470.5296,145.15,479.7731" style="stroke: #A80036; stroke-width: 1.0;"/><!--MD5=[af0c55269d108fb7d9cd144ab792a28e]
link NormalizerDsl to NormalizeSpec--><path d="M299.74,380.1931 C299.38,404.3231 298.73,448.1531 298.33,474.7031 " fill="none" id="NormalizerDsl-&gt;NormalizeSpec" style="stroke: #A80036; stroke-width: 1.0;"/><polygon fill="#A80036" points="298.26,479.7731,302.3882,470.8312,298.3314,474.7736,294.389,470.7169,298.26,479.7731" style="stroke: #A80036; stroke-width: 1.0;"/><!--MD5=[b47442828ba686ac75cfd6bf37444c39]
link EnricherDsl to EnrichSpec--><path d="M443.13,380.1931 C443.31,404.3231 443.64,448.1531 443.83,474.7031 " fill="none" id="EnricherDsl-&gt;EnrichSpec" style="stroke: #A80036; stroke-width: 1.0;"/><polygon fill="#A80036" points="443.87,479.7731,447.7927,470.7392,443.8271,474.7733,439.793,470.8077,443.87,479.7731" style="stroke: #A80036; stroke-width: 1.0;"/><!--MD5=[4d7b9eb7571029fe23a47c7d3b5be5be]
link MapperCore to TEngine--><path d="M643.94,380.1931 C678.25,404.9231 741.32,450.3531 777.84,476.6631 " fill="none" id="MapperCore-&gt;TEngine" style="stroke: #A80036; stroke-width: 1.0; stroke-dasharray: 7.0,7.0;"/><polygon fill="#A80036" points="782.16,479.7731,777.1839,471.2738,778.0991,476.8561,772.5167,477.7713,782.16,479.7731" style="stroke: #A80036; stroke-width: 1.0;"/><text fill="#000000" font-family="Arial" font-size="13" lengthAdjust="spacingAndGlyphs" textLength="61" x="708" y="425.02">apply ops</text><!--MD5=[8c294dd3147d4e76287d18ae76fe33dc]
link NormalizerCore to TEngine--><path d="M775.5,380.1931 C781.8,404.3231 793.25,448.1531 800.19,474.7031 " fill="none" id="NormalizerCore-&gt;TEngine" style="stroke: #A80036; stroke-width: 1.0; stroke-dasharray: 7.0,7.0;"/><polygon fill="#A80036" points="801.51,479.7731,803.0864,470.0513,800.2368,474.9379,795.3501,472.0883,801.51,479.7731" style="stroke: #A80036; stroke-width: 1.0;"/><text fill="#000000" font-family="Arial" font-size="13" lengthAdjust="spacingAndGlyphs" textLength="61" x="788" y="425.02">apply ops</text><!--MD5=[cc6e3e48395113675b4600ed27b7aa44]
link EnricherDsl to TEngine--><path d="M469.97,380.2231 C496.18,396.0131 537.66,418.4531 577,428.9531 C630.79,443.3031 648.71,420.8431 702,436.9531 C730.31,445.5131 759.19,463.0231 779.31,476.9231 " fill="none" id="EnricherDsl-&gt;TEngine" style="stroke: #A80036; stroke-width: 1.0; stroke-dasharray: 7.0,7.0;"/><polygon fill="#A80036" points="783.47,479.8331,778.3927,471.3938,779.3745,476.9649,773.8035,477.9466,783.47,479.8331" style="stroke: #A80036; stroke-width: 1.0;"/><text fill="#000000" font-family="Arial" font-size="13" lengthAdjust="spacingAndGlyphs" textLength="103" x="578" y="425.02">ops in DSL rules</text><!--MD5=[7aa096d81584e61848505e378799032e]
link TEngine to Registry--><path d="M806,516.2931 C806,532.2931 806,556.1431 806,573.5731 " fill="none" id="TEngine-&gt;Registry" style="stroke: #A80036; stroke-width: 1.0;"/><polygon fill="#A80036" points="806,578.7631,810,569.7631,806,573.7631,802,569.7631,806,578.7631" style="stroke: #A80036; stroke-width: 1.0;"/><!--MD5=[24181a62f53de41764d7735832d53241]
link EnricherDsl to ProviderGateway--><path d="M454.37,380.1631 C464.4,394.4431 480.02,414.6431 497,428.9531 C504.22,435.0431 548.1,459.4431 580.73,477.2831 " fill="none" id="EnricherDsl-&gt;ProviderGateway" style="stroke: #A80036; stroke-width: 1.0;"/><polygon fill="#A80036" points="585.45,479.8631,579.4554,472.0487,581.0578,477.4739,575.6326,479.0762,585.45,479.8631" style="stroke: #A80036; stroke-width: 1.0;"/><!--MD5=[4b5b79c984e359937cb2e32d3fd8309c]
link EnricherCore to ProviderDeps--><path d="M940.6,380.1931 C964.21,404.7231 1007.43,449.6231 1032.85,476.0231 " fill="none" id="EnricherCore-&gt;ProviderDeps" style="stroke: #A80036; stroke-width: 1.0;"/><polygon fill="#A80036" points="1036.46,479.7731,1033.1296,470.5045,1033.0039,476.1599,1027.3484,476.0342,1036.46,479.7731" style="stroke: #A80036; stroke-width: 1.0;"/><!--MD5=[beb1bca8d4e87496835d72b236410b36]
link ProviderDeps to ExternalDeps--><path d="M1055.5,516.2931 C1057.81,532.2931 1061.25,556.1431 1063.77,573.5731 " fill="none" id="ProviderDeps-&gt;ExternalDeps" style="stroke: #A80036; stroke-width: 1.0;"/><polygon fill="#A80036" points="1064.52,578.7631,1067.1955,569.2846,1063.8069,573.8142,1059.2773,570.4256,1064.52,578.7631" style="stroke: #A80036; stroke-width: 1.0;"/><!--MD5=[09bd54dda449860785b9c650127fb5e2]
link ProviderGateway to ExternalDeps--><path d="M647.17,516.0131 C663.28,524.4231 683.71,534.0131 703,539.9531 C746.81,553.4431 855.75,569.3931 943.1,580.8131 " fill="none" id="ProviderGateway-&gt;ExternalDeps" style="stroke: #A80036; stroke-width: 1.0;"/><polygon fill="#A80036" points="948.3,581.4931,939.9037,576.3451,943.3434,580.836,938.8524,584.2757,948.3,581.4931" style="stroke: #A80036; stroke-width: 1.0;"/><!--MD5=[0571b9b8ada5260f0f8227a3f0556000]
@startuml
title DSL Stage Architecture (Current + Target)

skinparam componentStyle rectangle
skinparam defaultFontName Arial

package "Runtime Pipeline" {
  [MapStage] as MapStage
  [NormalizeStage] as NormalizeStage
  [EnrichStage] as EnrichStage
  [MatchStage] as MatchStage
  [ResolveStage] as ResolveStage
}

package "Stage DSL Layer" {
  [MappingSpec] as MappingSpec
  [NormalizeSpec] as NormalizeSpec
  [EnrichSpec] as EnrichSpec

  [MapperDsl] as MapperDsl
  [NormalizerDsl] as NormalizerDsl
  [EnricherDsl] as EnricherDsl
}

package "Stage Engine Layer" {
  [MapperEngine] as MapperEngine
  [NormalizerEngine] as NormalizerEngine
  [EnricherEngine] as EnricherEngine
}

package "Stage Core Layer" {
  [MapperCore] as MapperCore
  [NormalizerCore] as NormalizerCore
  [EnricherCore] as EnricherCore
}

package "Shared DSL Kernel" {
  [TransformationEngine] as TEngine
  [OperationRegistry] as Registry
  [ProviderGateway] as ProviderGateway
}

package "Dependencies" {
  [TransformProviderDeps] as ProviderDeps
  [Cache/Dictionaries/SecretStore] as ExternalDeps
}

MapStage - -> MapperEngine
NormalizeStage - -> NormalizerEngine
EnrichStage - -> EnricherEngine

MapperEngine - -> MapperCore
NormalizerEngine - -> NormalizerCore
EnricherEngine - -> EnricherCore

MapperEngine ..> MapperDsl : compile spec
NormalizerEngine ..> NormalizerDsl : compile spec
EnricherEngine ..> EnricherDsl : compile spec

MapperDsl - -> MappingSpec
NormalizerDsl - -> NormalizeSpec
EnricherDsl - -> EnrichSpec

MapperCore ..> TEngine : apply ops
NormalizerCore ..> TEngine : apply ops
EnricherDsl ..> TEngine : ops in DSL rules
TEngine - -> Registry

EnricherDsl - -> ProviderGateway
EnricherCore - -> ProviderDeps
ProviderDeps - -> ExternalDeps
ProviderGateway - -> ExternalDeps

note right of MatchStage
Current state:
Match/Resolve run as transform stages,
DSL migration planned separately.
end note

@enduml

PlantUML version 1.2020.02(Sun Mar 01 18:22:07 IRKT 2020)
(GPL source distribution)
Java Runtime: OpenJDK Runtime Environment
JVM: OpenJDK 64-Bit Server VM
Java Version: 17.0.17+10-Debian-1deb12u1
Operating System: Linux
Default Encoding: UTF-8
Language: en
Country: null
--></g></svg>