<?plantuml 1.2026.2beta3?><svg xmlns="http://www.w3.org/2000/svg" xmlns:xlink="http://www.w3.org/1999/xlink" contentStyleType="text/css" data-diagram-type="DESCRIPTION" height="759px" preserveAspectRatio="none" style="width:724px;height:759px;background:#FFFFFF;" version="1.1" viewBox="0 0 724 759" width="724px" zoomAndPan="magnify"><title>DSL Stage Architecture (High-Level)</title><defs/><g><g class="title" data-source-line="1"><text fill="#000000" font-family="sans-serif" font-size="14" font-weight="bold" lengthAdjust="spacing" textLength="286.2822" x="212.0075" y="22.9951">DSL Stage Architecture (High-Level)</text></g><!--cluster DSL Layer--><g class="cluster" data-qualified-name="DSL Layer" data-source-line="5" id="ent0002"><path d="M96.5,43.2969 L176.8926,43.2969 A3.75,3.75 0 0 1 179.3926,45.7969 L186.3926,65.5938 L221.5,65.5938 A2.5,2.5 0 0 1 224,68.0938 L224,305.8869 A2.5,2.5 0 0 1 221.5,308.3869 L96.5,308.3869 A2.5,2.5 0 0 1 94,305.8869 L94,45.7969 A2.5,2.5 0 0 1 96.5,43.2969" fill="none" style="stroke:#000000;stroke-width:1.5;"/><line style="stroke:#000000;stroke-width:1.5;" x1="94" x2="186.3926" y1="65.5938" y2="65.5938"/><text fill="#000000" font-family="sans-serif" font-size="14" font-weight="bold" lengthAdjust="spacing" textLength="79.3926" x="98" y="58.292">DSL Layer</text></g><!--cluster Stage Engine Layer--><g class="cluster" data-qualified-name="Stage Engine Layer" data-source-line="10" id="ent0005"><path d="M250.5,221.0869 L404.6934,221.0869 A3.75,3.75 0 0 1 407.1934,223.5869 L414.1934,243.3837 L414.5,243.3837 A2.5,2.5 0 0 1 417,245.8837 L417,305.8869 A2.5,2.5 0 0 1 414.5,308.3869 L250.5,308.3869 A2.5,2.5 0 0 1 248,305.8869 L248,223.5869 A2.5,2.5 0 0 1 250.5,221.0869" fill="none" style="stroke:#000000;stroke-width:1.5;"/><line style="stroke:#000000;stroke-width:1.5;" x1="248" x2="414.1934" y1="243.3837" y2="243.3837"/><text fill="#000000" font-family="sans-serif" font-size="14" font-weight="bold" lengthAdjust="spacing" textLength="153.1934" x="252" y="236.082">Stage Engine Layer</text></g><!--cluster Core Layer--><g class="cluster" data-qualified-name="Core Layer" data-source-line="14" id="ent0007"><path d="M8.5,398.8869 L94.5596,398.8869 A3.75,3.75 0 0 1 97.0596,401.3869 L104.0596,421.1838 L211.5,421.1838 A2.5,2.5 0 0 1 214,423.6838 L214,749.5269 A2.5,2.5 0 0 1 211.5,752.0269 L8.5,752.0269 A2.5,2.5 0 0 1 6,749.5269 L6,401.3869 A2.5,2.5 0 0 1 8.5,398.8869" fill="none" style="stroke:#000000;stroke-width:1.5;"/><line style="stroke:#000000;stroke-width:1.5;" x1="6" x2="104.0596" y1="421.1838" y2="421.1838"/><text fill="#000000" font-family="sans-serif" font-size="14" font-weight="bold" lengthAdjust="spacing" textLength="85.0596" x="10" y="413.882">Core Layer</text></g><!--cluster Data Model--><g class="cluster" data-qualified-name="Data Model" data-source-line="20" id="ent0011"><path d="M240.5,565.4369 L331.4473,565.4369 A3.75,3.75 0 0 1 333.9473,567.9369 L340.9473,587.7338 L609.5,587.7338 A2.5,2.5 0 0 1 612,590.2338 L612,650.2269 A2.5,2.5 0 0 1 609.5,652.7269 L240.5,652.7269 A2.5,2.5 0 0 1 238,650.2269 L238,567.9369 A2.5,2.5 0 0 1 240.5,565.4369" fill="none" style="stroke:#000000;stroke-width:1.5;"/><line style="stroke:#000000;stroke-width:1.5;" x1="238" x2="340.9473" y1="587.7338" y2="587.7338"/><text fill="#000000" font-family="sans-serif" font-size="14" font-weight="bold" lengthAdjust="spacing" textLength="89.9473" x="242" y="580.432">Data Model</text></g><!--entity Rules--><g class="entity" data-qualified-name="DSL Layer.Rules" data-source-line="6" id="ent0003"><rect fill="#F1F1F1" height="36.2969" rx="2.5" ry="2.5" style="stroke:#181818;stroke-width:0.5;" width="98.8525" x="109.57" y="78.2969"/><text fill="#000000" font-family="sans-serif" font-size="14" lengthAdjust="spacing" textLength="78.8525" x="119.57" y="101.292">StageRules</text></g><!--entity Dsl--><g class="entity" data-qualified-name="DSL Layer.Dsl" data-source-line="7" id="ent0004"><rect fill="#F1F1F1" height="36.2969" rx="2.5" ry="2.5" style="stroke:#181818;stroke-width:0.5;" width="82.4189" x="109.79" y="256.0869"/><text fill="#000000" font-family="sans-serif" font-size="14" lengthAdjust="spacing" textLength="62.4189" x="119.79" y="279.082">StageDsl</text></g><!--entity Engine--><g class="entity" data-qualified-name="Stage Engine Layer.Engine" data-source-line="11" id="ent0006"><rect fill="#F1F1F1" height="36.2969" rx="2.5" ry="2.5" style="stroke:#181818;stroke-width:0.5;" width="108.4365" x="289.78" y="256.0869"/><text fill="#000000" font-family="sans-serif" font-size="14" lengthAdjust="spacing" textLength="88.4365" x="299.78" y="279.082">StageEngine</text></g><!--entity Core--><g class="entity" data-qualified-name="Core Layer.Core" data-source-line="15" id="ent0008"><rect fill="#F1F1F1" height="36.2969" rx="2.5" ry="2.5" style="stroke:#181818;stroke-width:0.5;" width="93.165" x="104.42" y="433.8869"/><text fill="#000000" font-family="sans-serif" font-size="14" lengthAdjust="spacing" textLength="73.165" x="114.42" y="456.882">StageCore</text></g><!--entity TEngine--><g class="entity" data-qualified-name="Core Layer.TEngine" data-source-line="16" id="ent0009"><rect fill="#F1F1F1" height="36.2969" rx="2.5" ry="2.5" style="stroke:#181818;stroke-width:0.5;" width="175.3193" x="22.34" y="600.4369"/><text fill="#000000" font-family="sans-serif" font-size="14" lengthAdjust="spacing" textLength="155.3193" x="32.34" y="623.432">TransformationEngine</text></g><!--entity Registry--><g class="entity" data-qualified-name="Core Layer.Registry" data-source-line="17" id="ent0010"><rect fill="#F1F1F1" height="36.2969" rx="2.5" ry="2.5" style="stroke:#181818;stroke-width:0.5;" width="147.6133" x="36.19" y="699.7269"/><text fill="#000000" font-family="sans-serif" font-size="14" lengthAdjust="spacing" textLength="127.6133" x="46.19" y="722.722">OperationRegistry</text></g><!--entity Record--><g class="entity" data-qualified-name="Data Model.Record" data-source-line="21" id="ent0012"><rect fill="#F1F1F1" height="36.2969" rx="2.5" ry="2.5" style="stroke:#181818;stroke-width:0.5;" width="171.1563" x="424.42" y="600.4369"/><text fill="#000000" font-family="sans-serif" font-size="14" lengthAdjust="spacing" textLength="151.1563" x="434.42" y="623.432">TransformableRecord</text></g><!--entity Result--><g class="entity" data-qualified-name="Data Model.Result" data-source-line="22" id="ent0013"><rect fill="#F1F1F1" height="36.2969" rx="2.5" ry="2.5" style="stroke:#181818;stroke-width:0.5;" width="135.8281" x="254.09" y="600.4369"/><text fill="#000000" font-family="sans-serif" font-size="14" lengthAdjust="spacing" textLength="115.8281" x="264.09" y="623.432">TransformResult</text></g><g class="entity" data-qualified-name="GMN22" data-source-line="36" id="ent0023"><path d="M243.82,46.0469 L243.82,92.4369 L208.9,96.4369 L243.82,100.4369 L243.82,146.8438 A0,0 0 0 0 243.82,146.8438 L366.173,146.8438 A0,0 0 0 0 366.173,146.8438 L366.173,56.0469 L356.173,46.0469 L243.82,46.0469 A0,0 0 0 0 243.82,46.0469" fill="#FEFFDD" style="stroke:#181818;stroke-width:0.5;"/><path d="M356.173,46.0469 L356.173,56.0469 L366.173,56.0469 L356.173,46.0469" fill="#FEFFDD" style="stroke:#181818;stroke-width:0.5;"/><text fill="#000000" font-family="sans-serif" font-size="13" lengthAdjust="spacing" textLength="91.4443" x="249.82" y="63.1138">MappingRules</text><text fill="#000000" font-family="sans-serif" font-size="13" lengthAdjust="spacing" textLength="101.353" x="249.82" y="78.2466">NormalizeRules</text><text fill="#000000" font-family="sans-serif" font-size="13" lengthAdjust="spacing" textLength="76.4512" x="249.82" y="93.3794">EnrichRules</text><text fill="#000000" font-family="sans-serif" font-size="13" lengthAdjust="spacing" textLength="89.0513" x="249.82" y="108.5122">ValidateRules</text><text fill="#000000" font-family="sans-serif" font-size="13" lengthAdjust="spacing" textLength="75.3213" x="249.82" y="123.645">MatchRules</text><text fill="#000000" font-family="sans-serif" font-size="13" lengthAdjust="spacing" textLength="86.7153" x="249.82" y="138.7778">ResolveRules</text></g><g class="entity" data-qualified-name="GMN25" data-source-line="45" id="ent0026"><path d="M432.78,223.8369 L432.78,324.6337 L545.218,324.6337 L545.218,233.8369 L535.218,223.8369 L432.78,223.8369" fill="#FEFFDD" style="stroke:#181818;stroke-width:0.5;"/><path d="M535.218,223.8369 L535.218,233.8369 L545.218,233.8369 L535.218,223.8369" fill="#FEFFDD" style="stroke:#181818;stroke-width:1;"/><text fill="#000000" font-family="sans-serif" font-size="13" lengthAdjust="spacing" textLength="69.4243" x="438.78" y="240.9038">MapperDsl</text><text fill="#000000" font-family="sans-serif" font-size="13" lengthAdjust="spacing" textLength="91.438" x="438.78" y="256.0366">NormalizerDsl</text><text fill="#000000" font-family="sans-serif" font-size="13" lengthAdjust="spacing" textLength="74.5342" x="438.78" y="271.1694">EnricherDsl</text><text fill="#000000" font-family="sans-serif" font-size="13" lengthAdjust="spacing" textLength="79.0918" x="438.78" y="286.3022">ValidatorDsl</text><text fill="#000000" font-family="sans-serif" font-size="13" lengthAdjust="spacing" textLength="60.0615" x="438.78" y="301.435">MatchDsl</text><text fill="#000000" font-family="sans-serif" font-size="13" lengthAdjust="spacing" textLength="71.4556" x="438.78" y="316.5678">ResolveDsl</text></g><g class="entity" data-qualified-name="GMN28" data-source-line="54" id="ent0029"><path d="M482.79,401.6369 L482.79,448.0369 L197.82,452.0369 L482.79,456.0369 L482.79,502.4338 A0,0 0 0 0 482.79,502.4338 L605.2065,502.4338 A0,0 0 0 0 605.2065,502.4338 L605.2065,411.6369 L595.2065,401.6369 L482.79,401.6369 A0,0 0 0 0 482.79,401.6369" fill="#FEFFDD" style="stroke:#181818;stroke-width:0.5;"/><path d="M595.2065,401.6369 L595.2065,411.6369 L605.2065,411.6369 L595.2065,401.6369" fill="#FEFFDD" style="stroke:#181818;stroke-width:0.5;"/><text fill="#000000" font-family="sans-serif" font-size="13" lengthAdjust="spacing" textLength="79.4028" x="488.79" y="418.7038">MapperCore</text><text fill="#000000" font-family="sans-serif" font-size="13" lengthAdjust="spacing" textLength="101.4165" x="488.79" y="433.8366">NormalizerCore</text><text fill="#000000" font-family="sans-serif" font-size="13" lengthAdjust="spacing" textLength="84.5127" x="488.79" y="448.9694">EnricherCore</text><text fill="#000000" font-family="sans-serif" font-size="13" lengthAdjust="spacing" textLength="89.0703" x="488.79" y="464.1022">ValidatorCore</text><text fill="#000000" font-family="sans-serif" font-size="13" lengthAdjust="spacing" textLength="70.04" x="488.79" y="479.235">MatchCore</text><text fill="#000000" font-family="sans-serif" font-size="13" lengthAdjust="spacing" textLength="81.4341" x="488.79" y="494.3678">ResolveCore</text></g><g class="entity" data-qualified-name="GMN31" data-source-line="63" id="ent0032"><path d="M580.7,223.8369 L580.7,324.6337 L717.2972,324.6337 L717.2972,233.8369 L707.2972,223.8369 L580.7,223.8369" fill="#FEFFDD" style="stroke:#181818;stroke-width:0.5;"/><path d="M707.2972,223.8369 L707.2972,233.8369 L717.2972,233.8369 L707.2972,223.8369" fill="#FEFFDD" style="stroke:#181818;stroke-width:1;"/><text fill="#000000" font-family="sans-serif" font-size="13" lengthAdjust="spacing" textLength="93.5835" x="586.7" y="240.9038">MapperEngine</text><text fill="#000000" font-family="sans-serif" font-size="13" lengthAdjust="spacing" textLength="115.5972" x="586.7" y="256.0366">NormalizerEngine</text><text fill="#000000" font-family="sans-serif" font-size="13" lengthAdjust="spacing" textLength="98.6934" x="586.7" y="271.1694">EnricherEngine</text><text fill="#000000" font-family="sans-serif" font-size="13" lengthAdjust="spacing" textLength="103.251" x="586.7" y="286.3022">ValidatorEngine</text><text fill="#000000" font-family="sans-serif" font-size="13" lengthAdjust="spacing" textLength="84.2207" x="586.7" y="301.435">MatchEngine</text><text fill="#000000" font-family="sans-serif" font-size="13" lengthAdjust="spacing" textLength="95.6147" x="586.7" y="316.5678">ResolveEngine</text></g><!--link Rules to Dsl--><g class="link" data-entity-1="ent0003" data-entity-2="ent0004" data-link-type="dependency" data-source-line="25" id="lnk14"><path d="M158.2,114.9369 C156.67,148.6369 153.5926,216.1731 152.0626,249.8131" fill="none" id="Rules-to-Dsl" style="stroke:#181818;stroke-width:1;"/><polygon fill="#181818" points="151.79,255.8069,156.1948,246.9979,152.0172,250.812,148.203,246.6344,151.79,255.8069" style="stroke:#181818;stroke-width:1;"/><text fill="#000000" font-family="sans-serif" font-size="13" lengthAdjust="spacing" textLength="61.3818" x="156" y="189.9038">compile()</text></g><!--link Dsl to Core--><g class="link" data-entity-1="ent0004" data-entity-2="ent0008" data-link-type="dependency" data-source-line="26" id="lnk15"><path d="M151,292.7369 C151,326.4369 151,393.9669 151,427.6069" fill="none" id="Dsl-to-Core" style="stroke:#181818;stroke-width:1;"/><polygon fill="#181818" points="151,433.6069,155,424.6069,151,428.6069,147,424.6069,151,433.6069" style="stroke:#181818;stroke-width:1;"/><text fill="#000000" font-family="sans-serif" font-size="13" lengthAdjust="spacing" textLength="38.7397" x="152" y="367.7038">builds</text></g><!--link Engine to Core--><g class="link" data-entity-1="ent0006" data-entity-2="ent0008" data-link-type="dependency" data-source-line="27" id="lnk16"><path d="M324.79,292.7369 C287.79,326.4369 211.5062,395.927 174.5662,429.567" fill="none" id="Engine-to-Core" style="stroke:#181818;stroke-width:1;"/><polygon fill="#181818" points="170.13,433.6069,179.4775,430.5045,173.8268,430.2403,174.091,424.5896,170.13,433.6069" style="stroke:#181818;stroke-width:1;"/><text fill="#000000" font-family="sans-serif" font-size="13" lengthAdjust="spacing" textLength="62.3149" x="254" y="367.7038">execute()</text></g><!--link Engine to Record--><g class="link" data-entity-1="ent0006" data-entity-2="ent0012" data-link-type="dependency" data-source-line="28" id="lnk17"><path d="M352.46,292.6869 C380.94,351.4069 470.4921,536.0981 498.9421,594.7681" fill="none" id="Engine-to-Record" style="stroke:#181818;stroke-width:1;"/><polygon fill="#181818" points="501.56,600.1669,501.2323,590.3235,499.3784,595.6679,494.0339,593.8141,501.56,600.1669" style="stroke:#181818;stroke-width:1;"/></g><!--link Core to Record--><g class="link" data-entity-1="ent0008" data-entity-2="ent0012" data-link-type="dependency" data-source-line="29" id="lnk18"><path d="M181.13,470.4969 C227.02,496.9769 310.76,544.7069 326,549.4369 C360.55,560.1569 372.59,546.2769 407,557.4369 C436.55,567.0169 461.9242,582.5625 481.9342,596.6525" fill="none" id="Core-to-Record" style="stroke:#181818;stroke-width:1;"/><polygon fill="#181818" points="486.84,600.1069,481.7842,591.6547,482.7518,597.2282,477.1783,598.1958,486.84,600.1069" style="stroke:#181818;stroke-width:1;"/><text fill="#000000" font-family="sans-serif" font-size="13" lengthAdjust="spacing" textLength="76.8892" x="327" y="545.5038">read/evolve</text></g><!--link Core to Result--><g class="link" data-entity-1="ent0008" data-entity-2="ent0013" data-link-type="dependency" data-source-line="30" id="lnk19"><path d="M158.72,470.3669 C168.57,491.0469 187.23,525.8069 211,549.4369 C232.25,570.5569 255.9176,585.297 278.9376,597.277" fill="none" id="Core-to-Result" style="stroke:#181818;stroke-width:1;"/><polygon fill="#181818" points="284.26,600.0469,278.123,592.3438,279.8247,597.7387,274.4298,599.4403,284.26,600.0469" style="stroke:#181818;stroke-width:1;"/><text fill="#000000" font-family="sans-serif" font-size="13" lengthAdjust="spacing" textLength="73.6772" x="212" y="545.5038">diagnostics</text></g><!--link Core to TEngine--><g class="link" data-entity-1="ent0008" data-entity-2="ent0009" data-link-type="dependency" data-source-line="32" id="lnk20"><path d="M137.87,470.5169 C127.19,485.9069 112.96,509.3969 107,532.4369 C101.11,555.2069 102.7489,576.6127 105.5489,594.0527" fill="none" id="Core-to-TEngine" style="stroke:#181818;stroke-width:1;stroke-dasharray:7,7;"/><polygon fill="#181818" points="106.5,599.9769,109.0227,590.4566,105.7074,595.0401,101.1239,591.7248,106.5,599.9769" style="stroke:#181818;stroke-width:1;"/><text fill="#000000" font-family="sans-serif" font-size="13" lengthAdjust="spacing" textLength="62.8862" x="108" y="545.5038">apply ops</text></g><!--link TEngine to Registry--><g class="link" data-entity-1="ent0009" data-entity-2="ent0010" data-link-type="dependency" data-source-line="33" id="lnk21"><path d="M110,636.9769 C110,654.5769 110,675.6469 110,693.3069" fill="none" id="TEngine-to-Registry" style="stroke:#181818;stroke-width:1;"/><polygon fill="#181818" points="110,699.3069,114,690.3069,110,694.3069,106,690.3069,110,699.3069" style="stroke:#181818;stroke-width:1;"/></g><!--link Dsl to GMN25--><g class="link" data-entity-1="ent0004" data-entity-2="ent0026" data-link-type="association" data-source-line="45" id="lnk27"><path d="M170.4,255.5969 C195.81,232.6169 242.88,194.7669 291.5,179.9669 C336.14,166.3769 353.47,161.8969 396.5,179.9669 C418.49,189.1969 437.88,206.4869 453.15,223.7569" fill="none" id="Dsl-GMN25" style="stroke:#181818;stroke-width:1;stroke-dasharray:7,7;"/></g><!--link Engine to GMN31--><g class="link" data-entity-1="ent0006" data-entity-2="ent0032" data-link-type="association" data-source-line="63" id="lnk33"><path d="M354.64,255.7969 C368.97,233.0169 396.86,195.3869 432.5,179.9669 C478.59,160.0169 498.67,161.8269 545.5,179.9669 C568.96,189.0469 590.37,206.1969 607.55,223.4069" fill="none" id="Engine-GMN31" style="stroke:#181818;stroke-width:1;stroke-dasharray:7,7;"/></g><?plantuml-src TPB1Rjim38RlUWgYf_QGzjv3WQ8Pi4Ew0Kcmoz23QhEEK4Ko93fOEkpT9rAquspDoJz9_VneWkJ88omtAzYGxH0UKxDpX0qD2U7wg-jsYnKUqDyOazzTw6soUsZYley10steMDofFBUXysXCRvjtRdF57LVsYEaAVXk0dz9zFNZCBs0pY9hoo-mbMxxcpwn97UbBw5p0_xlLl1YhFFC-nVI9XxFYOC7PRR8XlyMqj-HYcBNSQi_ovdkFISfhx5ocTAo_eC4PTMd9mdDiqIlrrF_LungRc5fripnxiSOyUD8gI-uiYuB5ue6N0_UoUkVn-iPmp7dvqNju7Pnliz5bpGhu2vk1s36hALwUdEBoEg5jx_0G_G7dLHwdL5jdkn0pkIQRMhwzVHXNLUgsx_qHOf_DzWoccp8XKZcNSbG4yKsFuBcONEXgy8qtvTr7FPKoSNBDhkeV9TzQmj55Ow5Cn-FM04CBJFcNnQV594oi9en4bLArKcAgXW9XeGYMbm1oK9KWyeIGS6H8C47KL2YY52Fw4aVFif8qEB4qCT8qd7YJkH1LArEZaVeN?></g></svg>