<?xml version="1.0" encoding="UTF-8" standalone="no"?><svg xmlns="http://www.w3.org/2000/svg" xmlns:xlink="http://www.w3.org/1999/xlink" contentScriptType="application/ecmascript" contentStyleType="text/css" height="636px" preserveAspectRatio="none" style="width:1718px;height:636px;" version="1.1" viewBox="0 0 1718 636" width="1718px" zoomAndPan="magnify"><defs><filter height="300%" id="f1mpmacelso1y4" width="300%" x="-1" y="-1"><feGaussianBlur result="blurOut" stdDeviation="2.0"/><feColorMatrix in="blurOut" result="blurOut2" type="matrix" values="0 0 0 0 0 0 0 0 0 0 0 0 0 0 0 0 0 0 .4 0"/><feOffset dx="4.0" dy="4.0" in="blurOut2" result="blurOut3"/><feBlend in="SourceGraphic" in2="blurOut3" mode="normal"/></filter></defs><g><text fill="#000000" font-family="Arial" font-size="18" lengthAdjust="spacingAndGlyphs" textLength="484" x="621" y="16.708">DSL - Stage Model for Map/Normalize/Enrich (Current)</text><!--MD5=[d4b4de4d327b56d619b7346298176782]
class StageSpec--><rect fill="#FEFECE" filter="url(#f1mpmacelso1y4)" height="48" id="StageSpec" style="stroke: #A80036; stroke-width: 1.5;" width="100" x="1299" y="47.9531"/><ellipse cx="1314" cy="63.9531" fill="#A9DCDF" rx="11" ry="11" style="stroke: #A80036; stroke-width: 1.0;"/><path d="M1314.1094,59.2969 L1312.9531,64.375 L1315.2813,64.375 L1314.1094,59.2969 Z M1312.625,57.0625 L1315.6094,57.0625 L1318.9688,69.4531 L1316.5156,69.4531 L1315.75,66.3906 L1312.4688,66.3906 L1311.7188,69.4531 L1309.2813,69.4531 L1312.625,57.0625 Z "/><text fill="#000000" font-family="Arial" font-size="12" font-style="italic" lengthAdjust="spacingAndGlyphs" textLength="68" x="1328" y="68.1074">StageSpec</text><line style="stroke: #A80036; stroke-width: 1.5;" x1="1300" x2="1398" y1="79.9531" y2="79.9531"/><line style="stroke: #A80036; stroke-width: 1.5;" x1="1300" x2="1398" y1="87.9531" y2="87.9531"/><!--MD5=[7e237cc0941ddf1557884bf82670a366]
class StageDsl--><rect fill="#FEFECE" filter="url(#f1mpmacelso1y4)" height="48" id="StageDsl" style="stroke: #A80036; stroke-width: 1.5;" width="88" x="675" y="179.4531"/><ellipse cx="690" cy="195.4531" fill="#A9DCDF" rx="11" ry="11" style="stroke: #A80036; stroke-width: 1.0;"/><path d="M690.1094,190.7969 L688.9531,195.875 L691.2813,195.875 L690.1094,190.7969 Z M688.625,188.5625 L691.6094,188.5625 L694.9688,200.9531 L692.5156,200.9531 L691.75,197.8906 L688.4688,197.8906 L687.7188,200.9531 L685.2813,200.9531 L688.625,188.5625 Z "/><text fill="#000000" font-family="Arial" font-size="12" font-style="italic" lengthAdjust="spacingAndGlyphs" textLength="56" x="704" y="199.6074">StageDsl</text><line style="stroke: #A80036; stroke-width: 1.5;" x1="676" x2="762" y1="211.4531" y2="211.4531"/><line style="stroke: #A80036; stroke-width: 1.5;" x1="676" x2="762" y1="219.4531" y2="219.4531"/><!--MD5=[775ae3f51bad2a4aa45ec880c08c3ee6]
class StageEngine--><rect fill="#FEFECE" filter="url(#f1mpmacelso1y4)" height="48" id="StageEngine" style="stroke: #A80036; stroke-width: 1.5;" width="112" x="812" y="47.9531"/><ellipse cx="827" cy="63.9531" fill="#A9DCDF" rx="11" ry="11" style="stroke: #A80036; stroke-width: 1.0;"/><path d="M827.1094,59.2969 L825.9531,64.375 L828.2813,64.375 L827.1094,59.2969 Z M825.625,57.0625 L828.6094,57.0625 L831.9688,69.4531 L829.5156,69.4531 L828.75,66.3906 L825.4688,66.3906 L824.7188,69.4531 L822.2813,69.4531 L825.625,57.0625 Z "/><text fill="#000000" font-family="Arial" font-size="12" font-style="italic" lengthAdjust="spacingAndGlyphs" textLength="80" x="841" y="68.1074">StageEngine</text><line style="stroke: #A80036; stroke-width: 1.5;" x1="813" x2="923" y1="79.9531" y2="79.9531"/><line style="stroke: #A80036; stroke-width: 1.5;" x1="813" x2="923" y1="87.9531" y2="87.9531"/><!--MD5=[a75072e7cb7c427ba4de4c5ceb523b7d]
class StageCore--><rect fill="#FEFECE" filter="url(#f1mpmacelso1y4)" height="48" id="StageCore" style="stroke: #A80036; stroke-width: 1.5;" width="98" x="6" y="179.4531"/><ellipse cx="21" cy="195.4531" fill="#A9DCDF" rx="11" ry="11" style="stroke: #A80036; stroke-width: 1.0;"/><path d="M21.1094,190.7969 L19.9531,195.875 L22.2813,195.875 L21.1094,190.7969 Z M19.625,188.5625 L22.6094,188.5625 L25.9688,200.9531 L23.5156,200.9531 L22.75,197.8906 L19.4688,197.8906 L18.7188,200.9531 L16.2813,200.9531 L19.625,188.5625 Z "/><text fill="#000000" font-family="Arial" font-size="12" font-style="italic" lengthAdjust="spacingAndGlyphs" textLength="66" x="35" y="199.6074">StageCore</text><line style="stroke: #A80036; stroke-width: 1.5;" x1="7" x2="103" y1="211.4531" y2="211.4531"/><line style="stroke: #A80036; stroke-width: 1.5;" x1="7" x2="103" y1="219.4531" y2="219.4531"/><!--MD5=[e17297d060fff8c5f8907d2394710e4f]
class TransformationEngine--><rect fill="#FEFECE" filter="url(#f1mpmacelso1y4)" height="73.6094" id="TransformationEngine" style="stroke: #A80036; stroke-width: 1.5;" width="249" x="115.5" y="416.9531"/><ellipse cx="166.75" cy="432.9531" fill="#ADD1B2" rx="11" ry="11" style="stroke: #A80036; stroke-width: 1.0;"/><path d="M169.7188,438.5938 Q169.1406,438.8906 168.5,439.0313 Q167.8594,439.1875 167.1563,439.1875 Q164.6563,439.1875 163.3281,437.5469 Q162.0156,435.8906 162.0156,432.7656 Q162.0156,429.6406 163.3281,427.9844 Q164.6563,426.3281 167.1563,426.3281 Q167.8594,426.3281 168.5,426.4844 Q169.1563,426.6406 169.7188,426.9375 L169.7188,429.6563 Q169.0938,429.0781 168.5,428.8125 Q167.9063,428.5313 167.2813,428.5313 Q165.9375,428.5313 165.25,429.6094 Q164.5625,430.6719 164.5625,432.7656 Q164.5625,434.8594 165.25,435.9375 Q165.9375,437 167.2813,437 Q167.9063,437 168.5,436.7344 Q169.0938,436.4531 169.7188,435.875 L169.7188,438.5938 Z "/><text fill="#000000" font-family="Arial" font-size="12" lengthAdjust="spacingAndGlyphs" textLength="138" x="187.25" y="437.1074">TransformationEngine</text><line style="stroke: #A80036; stroke-width: 1.5;" x1="116.5" x2="363.5" y1="448.9531" y2="448.9531"/><line style="stroke: #A80036; stroke-width: 1.5;" x1="116.5" x2="363.5" y1="456.9531" y2="456.9531"/><ellipse cx="126.5" cy="467.9531" fill="#84BE84" rx="3" ry="3" style="stroke: #038048; stroke-width: 1.0;"/><text fill="#000000" font-family="Arial" font-size="11" lengthAdjust="spacingAndGlyphs" textLength="178" x="135.5" y="471.1636">apply(value, ops): EngineResult</text><ellipse cx="126.5" cy="480.7578" fill="#84BE84" rx="3" ry="3" style="stroke: #038048; stroke-width: 1.0;"/><text fill="#000000" font-family="Arial" font-size="11" lengthAdjust="spacingAndGlyphs" textLength="223" x="135.5" y="483.9683">with_core_ops(): TransformationEngine</text><!--MD5=[fecf5ddf3eb1b7cd70493ad0eab0ab3d]
class OperationRegistry--><rect fill="#FEFECE" filter="url(#f1mpmacelso1y4)" height="73.6094" id="OperationRegistry" style="stroke: #A80036; stroke-width: 1.5;" width="144" x="168" y="551.9531"/><ellipse cx="183" cy="567.9531" fill="#ADD1B2" rx="11" ry="11" style="stroke: #A80036; stroke-width: 1.0;"/><path d="M185.9688,573.5938 Q185.3906,573.8906 184.75,574.0313 Q184.1094,574.1875 183.4063,574.1875 Q180.9063,574.1875 179.5781,572.5469 Q178.2656,570.8906 178.2656,567.7656 Q178.2656,564.6406 179.5781,562.9844 Q180.9063,561.3281 183.4063,561.3281 Q184.1094,561.3281 184.75,561.4844 Q185.4063,561.6406 185.9688,561.9375 L185.9688,564.6563 Q185.3438,564.0781 184.75,563.8125 Q184.1563,563.5313 183.5313,563.5313 Q182.1875,563.5313 181.5,564.6094 Q180.8125,565.6719 180.8125,567.7656 Q180.8125,569.8594 181.5,570.9375 Q182.1875,572 183.5313,572 Q184.1563,572 184.75,571.7344 Q185.3438,571.4531 185.9688,570.875 L185.9688,573.5938 Z "/><text fill="#000000" font-family="Arial" font-size="12" lengthAdjust="spacingAndGlyphs" textLength="112" x="197" y="572.1074">OperationRegistry</text><line style="stroke: #A80036; stroke-width: 1.5;" x1="169" x2="311" y1="583.9531" y2="583.9531"/><line style="stroke: #A80036; stroke-width: 1.5;" x1="169" x2="311" y1="591.9531" y2="591.9531"/><ellipse cx="179" cy="602.9531" fill="#84BE84" rx="3" ry="3" style="stroke: #038048; stroke-width: 1.0;"/><text fill="#000000" font-family="Arial" font-size="11" lengthAdjust="spacingAndGlyphs" textLength="107" x="188" y="606.1636">register(name, op)</text><ellipse cx="179" cy="615.7578" fill="#84BE84" rx="3" ry="3" style="stroke: #038048; stroke-width: 1.0;"/><text fill="#000000" font-family="Arial" font-size="11" lengthAdjust="spacingAndGlyphs" textLength="58" x="188" y="618.9683">get(name)</text><!--MD5=[7a91c7381224b14f7bf3d7f370f7ada2]
class DslIssue--><rect fill="#FEFECE" filter="url(#f1mpmacelso1y4)" height="86.4141" id="DslIssue" style="stroke: #A80036; stroke-width: 1.5;" width="103" x="1434.5" y="28.9531"/><ellipse cx="1458.05" cy="44.9531" fill="#ADD1B2" rx="11" ry="11" style="stroke: #A80036; stroke-width: 1.0;"/><path d="M1461.0188,50.5938 Q1460.4406,50.8906 1459.8,51.0313 Q1459.1594,51.1875 1458.4563,51.1875 Q1455.9563,51.1875 1454.6281,49.5469 Q1453.3156,47.8906 1453.3156,44.7656 Q1453.3156,41.6406 1454.6281,39.9844 Q1455.9563,38.3281 1458.4563,38.3281 Q1459.1594,38.3281 1459.8,38.4844 Q1460.4563,38.6406 1461.0188,38.9375 L1461.0188,41.6563 Q1460.3938,41.0781 1459.8,40.8125 Q1459.2063,40.5313 1458.5813,40.5313 Q1457.2375,40.5313 1456.55,41.6094 Q1455.8625,42.6719 1455.8625,44.7656 Q1455.8625,46.8594 1456.55,47.9375 Q1457.2375,49 1458.5813,49 Q1459.2063,49 1459.8,48.7344 Q1460.3938,48.4531 1461.0188,47.875 L1461.0188,50.5938 Z "/><text fill="#000000" font-family="Arial" font-size="12" lengthAdjust="spacingAndGlyphs" textLength="52" x="1473.95" y="49.1074">DslIssue</text><line style="stroke: #A80036; stroke-width: 1.5;" x1="1435.5" x2="1536.5" y1="60.9531" y2="60.9531"/><ellipse cx="1445.5" cy="71.9531" fill="none" rx="3" ry="3" style="stroke: #038048; stroke-width: 1.0;"/><text fill="#000000" font-family="Arial" font-size="11" lengthAdjust="spacingAndGlyphs" textLength="51" x="1454.5" y="75.1636">code: str</text><ellipse cx="1445.5" cy="84.7578" fill="none" rx="3" ry="3" style="stroke: #038048; stroke-width: 1.0;"/><text fill="#000000" font-family="Arial" font-size="11" lengthAdjust="spacingAndGlyphs" textLength="77" x="1454.5" y="87.9683">message: str</text><ellipse cx="1445.5" cy="97.5625" fill="none" rx="3" ry="3" style="stroke: #038048; stroke-width: 1.0;"/><text fill="#000000" font-family="Arial" font-size="11" lengthAdjust="spacingAndGlyphs" textLength="69" x="1454.5" y="100.7729">severity: str</text><line style="stroke: #A80036; stroke-width: 1.5;" x1="1435.5" x2="1536.5" y1="107.3672" y2="107.3672"/><!--MD5=[fccaea3275062a32578d226aa776a6dc]
class EngineResult--><rect fill="#FEFECE" filter="url(#f1mpmacelso1y4)" height="73.6094" id="EngineResult" style="stroke: #A80036; stroke-width: 1.5;" width="135" x="1572.5" y="34.9531"/><ellipse cx="1596.95" cy="50.9531" fill="#ADD1B2" rx="11" ry="11" style="stroke: #A80036; stroke-width: 1.0;"/><path d="M1599.9188,56.5938 Q1599.3406,56.8906 1598.7,57.0313 Q1598.0594,57.1875 1597.3563,57.1875 Q1594.8563,57.1875 1593.5281,55.5469 Q1592.2156,53.8906 1592.2156,50.7656 Q1592.2156,47.6406 1593.5281,45.9844 Q1594.8563,44.3281 1597.3563,44.3281 Q1598.0594,44.3281 1598.7,44.4844 Q1599.3563,44.6406 1599.9188,44.9375 L1599.9188,47.6563 Q1599.2938,47.0781 1598.7,46.8125 Q1598.1063,46.5313 1597.4813,46.5313 Q1596.1375,46.5313 1595.45,47.6094 Q1594.7625,48.6719 1594.7625,50.7656 Q1594.7625,52.8594 1595.45,53.9375 Q1596.1375,55 1597.4813,55 Q1598.1063,55 1598.7,54.7344 Q1599.2938,54.4531 1599.9188,53.875 L1599.9188,56.5938 Z "/><text fill="#000000" font-family="Arial" font-size="12" lengthAdjust="spacingAndGlyphs" textLength="82" x="1613.05" y="55.1074">EngineResult</text><line style="stroke: #A80036; stroke-width: 1.5;" x1="1573.5" x2="1706.5" y1="66.9531" y2="66.9531"/><ellipse cx="1583.5" cy="77.9531" fill="none" rx="3" ry="3" style="stroke: #038048; stroke-width: 1.0;"/><text fill="#000000" font-family="Arial" font-size="11" lengthAdjust="spacingAndGlyphs" textLength="30" x="1592.5" y="81.1636">value</text><ellipse cx="1583.5" cy="90.7578" fill="none" rx="3" ry="3" style="stroke: #038048; stroke-width: 1.0;"/><text fill="#000000" font-family="Arial" font-size="11" lengthAdjust="spacingAndGlyphs" textLength="109" x="1592.5" y="93.9683">issues: DslIssue[*]</text><line style="stroke: #A80036; stroke-width: 1.5;" x1="1573.5" x2="1706.5" y1="100.5625" y2="100.5625"/><!--MD5=[025949cb65d82ea69ad8de3eb9ad0317]
class MappingSpec--><rect fill="#FEFECE" filter="url(#f1mpmacelso1y4)" height="48" id="MappingSpec" style="stroke: #A80036; stroke-width: 1.5;" width="116" x="1136" y="179.4531"/><ellipse cx="1151" cy="195.4531" fill="#ADD1B2" rx="11" ry="11" style="stroke: #A80036; stroke-width: 1.0;"/><path d="M1153.9688,201.0938 Q1153.3906,201.3906 1152.75,201.5313 Q1152.1094,201.6875 1151.4063,201.6875 Q1148.9063,201.6875 1147.5781,200.0469 Q1146.2656,198.3906 1146.2656,195.2656 Q1146.2656,192.1406 1147.5781,190.4844 Q1148.9063,188.8281 1151.4063,188.8281 Q1152.1094,188.8281 1152.75,188.9844 Q1153.4063,189.1406 1153.9688,189.4375 L1153.9688,192.1563 Q1153.3438,191.5781 1152.75,191.3125 Q1152.1563,191.0313 1151.5313,191.0313 Q1150.1875,191.0313 1149.5,192.1094 Q1148.8125,193.1719 1148.8125,195.2656 Q1148.8125,197.3594 1149.5,198.4375 Q1150.1875,199.5 1151.5313,199.5 Q1152.1563,199.5 1152.75,199.2344 Q1153.3438,198.9531 1153.9688,198.375 L1153.9688,201.0938 Z "/><text fill="#000000" font-family="Arial" font-size="12" lengthAdjust="spacingAndGlyphs" textLength="84" x="1165" y="199.6074">MappingSpec</text><line style="stroke: #A80036; stroke-width: 1.5;" x1="1137" x2="1251" y1="211.4531" y2="211.4531"/><line style="stroke: #A80036; stroke-width: 1.5;" x1="1137" x2="1251" y1="219.4531" y2="219.4531"/><!--MD5=[c3ee9b0701ab3b4568b6bbbf362b4109]
class NormalizeSpec--><rect fill="#FEFECE" filter="url(#f1mpmacelso1y4)" height="48" id="NormalizeSpec" style="stroke: #A80036; stroke-width: 1.5;" width="123" x="1287.5" y="179.4531"/><ellipse cx="1302.5" cy="195.4531" fill="#ADD1B2" rx="11" ry="11" style="stroke: #A80036; stroke-width: 1.0;"/><path d="M1305.4688,201.0938 Q1304.8906,201.3906 1304.25,201.5313 Q1303.6094,201.6875 1302.9063,201.6875 Q1300.4063,201.6875 1299.0781,200.0469 Q1297.7656,198.3906 1297.7656,195.2656 Q1297.7656,192.1406 1299.0781,190.4844 Q1300.4063,188.8281 1302.9063,188.8281 Q1303.6094,188.8281 1304.25,188.9844 Q1304.9063,189.1406 1305.4688,189.4375 L1305.4688,192.1563 Q1304.8438,191.5781 1304.25,191.3125 Q1303.6563,191.0313 1303.0313,191.0313 Q1301.6875,191.0313 1301,192.1094 Q1300.3125,193.1719 1300.3125,195.2656 Q1300.3125,197.3594 1301,198.4375 Q1301.6875,199.5 1303.0313,199.5 Q1303.6563,199.5 1304.25,199.2344 Q1304.8438,198.9531 1305.4688,198.375 L1305.4688,201.0938 Z "/><text fill="#000000" font-family="Arial" font-size="12" lengthAdjust="spacingAndGlyphs" textLength="91" x="1316.5" y="199.6074">NormalizeSpec</text><line style="stroke: #A80036; stroke-width: 1.5;" x1="1288.5" x2="1409.5" y1="211.4531" y2="211.4531"/><line style="stroke: #A80036; stroke-width: 1.5;" x1="1288.5" x2="1409.5" y1="219.4531" y2="219.4531"/><!--MD5=[871971c816478ba057a9bac08c43eb67]
class EnrichSpec--><rect fill="#FEFECE" filter="url(#f1mpmacelso1y4)" height="48" id="EnrichSpec" style="stroke: #A80036; stroke-width: 1.5;" width="102" x="1446" y="179.4531"/><ellipse cx="1461" cy="195.4531" fill="#ADD1B2" rx="11" ry="11" style="stroke: #A80036; stroke-width: 1.0;"/><path d="M1463.9688,201.0938 Q1463.3906,201.3906 1462.75,201.5313 Q1462.1094,201.6875 1461.4063,201.6875 Q1458.9063,201.6875 1457.5781,200.0469 Q1456.2656,198.3906 1456.2656,195.2656 Q1456.2656,192.1406 1457.5781,190.4844 Q1458.9063,188.8281 1461.4063,188.8281 Q1462.1094,188.8281 1462.75,188.9844 Q1463.4063,189.1406 1463.9688,189.4375 L1463.9688,192.1563 Q1463.3438,191.5781 1462.75,191.3125 Q1462.1563,191.0313 1461.5313,191.0313 Q1460.1875,191.0313 1459.5,192.1094 Q1458.8125,193.1719 1458.8125,195.2656 Q1458.8125,197.3594 1459.5,198.4375 Q1460.1875,199.5 1461.5313,199.5 Q1462.1563,199.5 1462.75,199.2344 Q1463.3438,198.9531 1463.9688,198.375 L1463.9688,201.0938 Z "/><text fill="#000000" font-family="Arial" font-size="12" lengthAdjust="spacingAndGlyphs" textLength="70" x="1475" y="199.6074">EnrichSpec</text><line style="stroke: #A80036; stroke-width: 1.5;" x1="1447" x2="1547" y1="211.4531" y2="211.4531"/><line style="stroke: #A80036; stroke-width: 1.5;" x1="1447" x2="1547" y1="219.4531" y2="219.4531"/><!--MD5=[622896b332a6cd65a4422539020540a3]
class MapperDsl--><rect fill="#FEFECE" filter="url(#f1mpmacelso1y4)" height="48" id="MapperDsl" style="stroke: #A80036; stroke-width: 1.5;" width="98" x="338" y="307.9531"/><ellipse cx="353" cy="323.9531" fill="#ADD1B2" rx="11" ry="11" style="stroke: #A80036; stroke-width: 1.0;"/><path d="M355.9688,329.5938 Q355.3906,329.8906 354.75,330.0313 Q354.1094,330.1875 353.4063,330.1875 Q350.9063,330.1875 349.5781,328.5469 Q348.2656,326.8906 348.2656,323.7656 Q348.2656,320.6406 349.5781,318.9844 Q350.9063,317.3281 353.4063,317.3281 Q354.1094,317.3281 354.75,317.4844 Q355.4063,317.6406 355.9688,317.9375 L355.9688,320.6563 Q355.3438,320.0781 354.75,319.8125 Q354.1563,319.5313 353.5313,319.5313 Q352.1875,319.5313 351.5,320.6094 Q350.8125,321.6719 350.8125,323.7656 Q350.8125,325.8594 351.5,326.9375 Q352.1875,328 353.5313,328 Q354.1563,328 354.75,327.7344 Q355.3438,327.4531 355.9688,326.875 L355.9688,329.5938 Z "/><text fill="#000000" font-family="Arial" font-size="12" lengthAdjust="spacingAndGlyphs" textLength="66" x="367" y="328.1074">MapperDsl</text><line style="stroke: #A80036; stroke-width: 1.5;" x1="339" x2="435" y1="339.9531" y2="339.9531"/><line style="stroke: #A80036; stroke-width: 1.5;" x1="339" x2="435" y1="347.9531" y2="347.9531"/><!--MD5=[10a4d10a42c0fc1d39d018c9234180ad]
class NormalizerDsl--><rect fill="#FEFECE" filter="url(#f1mpmacelso1y4)" height="48" id="NormalizerDsl" style="stroke: #A80036; stroke-width: 1.5;" width="116" x="620" y="307.9531"/><ellipse cx="635" cy="323.9531" fill="#ADD1B2" rx="11" ry="11" style="stroke: #A80036; stroke-width: 1.0;"/><path d="M637.9688,329.5938 Q637.3906,329.8906 636.75,330.0313 Q636.1094,330.1875 635.4063,330.1875 Q632.9063,330.1875 631.5781,328.5469 Q630.2656,326.8906 630.2656,323.7656 Q630.2656,320.6406 631.5781,318.9844 Q632.9063,317.3281 635.4063,317.3281 Q636.1094,317.3281 636.75,317.4844 Q637.4063,317.6406 637.9688,317.9375 L637.9688,320.6563 Q637.3438,320.0781 636.75,319.8125 Q636.1563,319.5313 635.5313,319.5313 Q634.1875,319.5313 633.5,320.6094 Q632.8125,321.6719 632.8125,323.7656 Q632.8125,325.8594 633.5,326.9375 Q634.1875,328 635.5313,328 Q636.1563,328 636.75,327.7344 Q637.3438,327.4531 637.9688,326.875 L637.9688,329.5938 Z "/><text fill="#000000" font-family="Arial" font-size="12" lengthAdjust="spacingAndGlyphs" textLength="84" x="649" y="328.1074">NormalizerDsl</text><line style="stroke: #A80036; stroke-width: 1.5;" x1="621" x2="735" y1="339.9531" y2="339.9531"/><line style="stroke: #A80036; stroke-width: 1.5;" x1="621" x2="735" y1="347.9531" y2="347.9531"/><!--MD5=[b70b5f78c1b04b7b6d7dedbba2aa4719]
class EnricherDsl--><rect fill="#FEFECE" filter="url(#f1mpmacelso1y4)" height="48" id="EnricherDsl" style="stroke: #A80036; stroke-width: 1.5;" width="103" x="771.5" y="307.9531"/><ellipse cx="786.5" cy="323.9531" fill="#ADD1B2" rx="11" ry="11" style="stroke: #A80036; stroke-width: 1.0;"/><path d="M789.4688,329.5938 Q788.8906,329.8906 788.25,330.0313 Q787.6094,330.1875 786.9063,330.1875 Q784.4063,330.1875 783.0781,328.5469 Q781.7656,326.8906 781.7656,323.7656 Q781.7656,320.6406 783.0781,318.9844 Q784.4063,317.3281 786.9063,317.3281 Q787.6094,317.3281 788.25,317.4844 Q788.9063,317.6406 789.4688,317.9375 L789.4688,320.6563 Q788.8438,320.0781 788.25,319.8125 Q787.6563,319.5313 787.0313,319.5313 Q785.6875,319.5313 785,320.6094 Q784.3125,321.6719 784.3125,323.7656 Q784.3125,325.8594 785,326.9375 Q785.6875,328 787.0313,328 Q787.6563,328 788.25,327.7344 Q788.8438,327.4531 789.4688,326.875 L789.4688,329.5938 Z "/><text fill="#000000" font-family="Arial" font-size="12" lengthAdjust="spacingAndGlyphs" textLength="71" x="800.5" y="328.1074">EnricherDsl</text><line style="stroke: #A80036; stroke-width: 1.5;" x1="772.5" x2="873.5" y1="339.9531" y2="339.9531"/><line style="stroke: #A80036; stroke-width: 1.5;" x1="772.5" x2="873.5" y1="347.9531" y2="347.9531"/><!--MD5=[36934578891e36731fb2b2c38ef82c41]
class MapperEngine--><rect fill="#FEFECE" filter="url(#f1mpmacelso1y4)" height="48" id="MapperEngine" style="stroke: #A80036; stroke-width: 1.5;" width="122" x="139" y="179.4531"/><ellipse cx="154" cy="195.4531" fill="#ADD1B2" rx="11" ry="11" style="stroke: #A80036; stroke-width: 1.0;"/><path d="M156.9688,201.0938 Q156.3906,201.3906 155.75,201.5313 Q155.1094,201.6875 154.4063,201.6875 Q151.9063,201.6875 150.5781,200.0469 Q149.2656,198.3906 149.2656,195.2656 Q149.2656,192.1406 150.5781,190.4844 Q151.9063,188.8281 154.4063,188.8281 Q155.1094,188.8281 155.75,188.9844 Q156.4063,189.1406 156.9688,189.4375 L156.9688,192.1563 Q156.3438,191.5781 155.75,191.3125 Q155.1563,191.0313 154.5313,191.0313 Q153.1875,191.0313 152.5,192.1094 Q151.8125,193.1719 151.8125,195.2656 Q151.8125,197.3594 152.5,198.4375 Q153.1875,199.5 154.5313,199.5 Q155.1563,199.5 155.75,199.2344 Q156.3438,198.9531 156.9688,198.375 L156.9688,201.0938 Z "/><text fill="#000000" font-family="Arial" font-size="12" lengthAdjust="spacingAndGlyphs" textLength="90" x="168" y="199.6074">MapperEngine</text><line style="stroke: #A80036; stroke-width: 1.5;" x1="140" x2="260" y1="211.4531" y2="211.4531"/><line style="stroke: #A80036; stroke-width: 1.5;" x1="140" x2="260" y1="219.4531" y2="219.4531"/><!--MD5=[4e57a6843618a31f8c11d00b0272bc39]
class NormalizerEngine--><rect fill="#FEFECE" filter="url(#f1mpmacelso1y4)" height="48" id="NormalizerEngine" style="stroke: #A80036; stroke-width: 1.5;" width="140" x="798" y="179.4531"/><ellipse cx="813" cy="195.4531" fill="#ADD1B2" rx="11" ry="11" style="stroke: #A80036; stroke-width: 1.0;"/><path d="M815.9688,201.0938 Q815.3906,201.3906 814.75,201.5313 Q814.1094,201.6875 813.4063,201.6875 Q810.9063,201.6875 809.5781,200.0469 Q808.2656,198.3906 808.2656,195.2656 Q808.2656,192.1406 809.5781,190.4844 Q810.9063,188.8281 813.4063,188.8281 Q814.1094,188.8281 814.75,188.9844 Q815.4063,189.1406 815.9688,189.4375 L815.9688,192.1563 Q815.3438,191.5781 814.75,191.3125 Q814.1563,191.0313 813.5313,191.0313 Q812.1875,191.0313 811.5,192.1094 Q810.8125,193.1719 810.8125,195.2656 Q810.8125,197.3594 811.5,198.4375 Q812.1875,199.5 813.5313,199.5 Q814.1563,199.5 814.75,199.2344 Q815.3438,198.9531 815.9688,198.375 L815.9688,201.0938 Z "/><text fill="#000000" font-family="Arial" font-size="12" lengthAdjust="spacingAndGlyphs" textLength="108" x="827" y="199.6074">NormalizerEngine</text><line style="stroke: #A80036; stroke-width: 1.5;" x1="799" x2="937" y1="211.4531" y2="211.4531"/><line style="stroke: #A80036; stroke-width: 1.5;" x1="799" x2="937" y1="219.4531" y2="219.4531"/><!--MD5=[9925825707e1dec24b381a6afb44fee7]
class EnricherEngine--><rect fill="#FEFECE" filter="url(#f1mpmacelso1y4)" height="48" id="EnricherEngine" style="stroke: #A80036; stroke-width: 1.5;" width="127" x="973.5" y="179.4531"/><ellipse cx="988.5" cy="195.4531" fill="#ADD1B2" rx="11" ry="11" style="stroke: #A80036; stroke-width: 1.0;"/><path d="M991.4688,201.0938 Q990.8906,201.3906 990.25,201.5313 Q989.6094,201.6875 988.9063,201.6875 Q986.4063,201.6875 985.0781,200.0469 Q983.7656,198.3906 983.7656,195.2656 Q983.7656,192.1406 985.0781,190.4844 Q986.4063,188.8281 988.9063,188.8281 Q989.6094,188.8281 990.25,188.9844 Q990.9063,189.1406 991.4688,189.4375 L991.4688,192.1563 Q990.8438,191.5781 990.25,191.3125 Q989.6563,191.0313 989.0313,191.0313 Q987.6875,191.0313 987,192.1094 Q986.3125,193.1719 986.3125,195.2656 Q986.3125,197.3594 987,198.4375 Q987.6875,199.5 989.0313,199.5 Q989.6563,199.5 990.25,199.2344 Q990.8438,198.9531 991.4688,198.375 L991.4688,201.0938 Z "/><text fill="#000000" font-family="Arial" font-size="12" lengthAdjust="spacingAndGlyphs" textLength="95" x="1002.5" y="199.6074">EnricherEngine</text><line style="stroke: #A80036; stroke-width: 1.5;" x1="974.5" x2="1099.5" y1="211.4531" y2="211.4531"/><line style="stroke: #A80036; stroke-width: 1.5;" x1="974.5" x2="1099.5" y1="219.4531" y2="219.4531"/><!--MD5=[676da3f8bdf6e896c2648c697b4a3782]
class MapperCore--><rect fill="#FEFECE" filter="url(#f1mpmacelso1y4)" height="48" id="MapperCore" style="stroke: #A80036; stroke-width: 1.5;" width="108" x="34" y="307.9531"/><ellipse cx="49" cy="323.9531" fill="#ADD1B2" rx="11" ry="11" style="stroke: #A80036; stroke-width: 1.0;"/><path d="M51.9688,329.5938 Q51.3906,329.8906 50.75,330.0313 Q50.1094,330.1875 49.4063,330.1875 Q46.9063,330.1875 45.5781,328.5469 Q44.2656,326.8906 44.2656,323.7656 Q44.2656,320.6406 45.5781,318.9844 Q46.9063,317.3281 49.4063,317.3281 Q50.1094,317.3281 50.75,317.4844 Q51.4063,317.6406 51.9688,317.9375 L51.9688,320.6563 Q51.3438,320.0781 50.75,319.8125 Q50.1563,319.5313 49.5313,319.5313 Q48.1875,319.5313 47.5,320.6094 Q46.8125,321.6719 46.8125,323.7656 Q46.8125,325.8594 47.5,326.9375 Q48.1875,328 49.5313,328 Q50.1563,328 50.75,327.7344 Q51.3438,327.4531 51.9688,326.875 L51.9688,329.5938 Z "/><text fill="#000000" font-family="Arial" font-size="12" lengthAdjust="spacingAndGlyphs" textLength="76" x="63" y="328.1074">MapperCore</text><line style="stroke: #A80036; stroke-width: 1.5;" x1="35" x2="141" y1="339.9531" y2="339.9531"/><line style="stroke: #A80036; stroke-width: 1.5;" x1="35" x2="141" y1="347.9531" y2="347.9531"/><!--MD5=[a61fa81d48a08d3959f44d0937c9ba16]
class NormalizerCore--><rect fill="#FEFECE" filter="url(#f1mpmacelso1y4)" height="48" id="NormalizerCore" style="stroke: #A80036; stroke-width: 1.5;" width="126" x="177" y="307.9531"/><ellipse cx="192" cy="323.9531" fill="#ADD1B2" rx="11" ry="11" style="stroke: #A80036; stroke-width: 1.0;"/><path d="M194.9688,329.5938 Q194.3906,329.8906 193.75,330.0313 Q193.1094,330.1875 192.4063,330.1875 Q189.9063,330.1875 188.5781,328.5469 Q187.2656,326.8906 187.2656,323.7656 Q187.2656,320.6406 188.5781,318.9844 Q189.9063,317.3281 192.4063,317.3281 Q193.1094,317.3281 193.75,317.4844 Q194.4063,317.6406 194.9688,317.9375 L194.9688,320.6563 Q194.3438,320.0781 193.75,319.8125 Q193.1563,319.5313 192.5313,319.5313 Q191.1875,319.5313 190.5,320.6094 Q189.8125,321.6719 189.8125,323.7656 Q189.8125,325.8594 190.5,326.9375 Q191.1875,328 192.5313,328 Q193.1563,328 193.75,327.7344 Q194.3438,327.4531 194.9688,326.875 L194.9688,329.5938 Z "/><text fill="#000000" font-family="Arial" font-size="12" lengthAdjust="spacingAndGlyphs" textLength="94" x="206" y="328.1074">NormalizerCore</text><line style="stroke: #A80036; stroke-width: 1.5;" x1="178" x2="302" y1="339.9531" y2="339.9531"/><line style="stroke: #A80036; stroke-width: 1.5;" x1="178" x2="302" y1="347.9531" y2="347.9531"/><!--MD5=[984e13a96be11f11c2e73ac919309515]
class EnricherCore--><rect fill="#FEFECE" filter="url(#f1mpmacelso1y4)" height="48" id="EnricherCore" style="stroke: #A80036; stroke-width: 1.5;" width="113" x="471.5" y="307.9531"/><ellipse cx="486.5" cy="323.9531" fill="#ADD1B2" rx="11" ry="11" style="stroke: #A80036; stroke-width: 1.0;"/><path d="M489.4688,329.5938 Q488.8906,329.8906 488.25,330.0313 Q487.6094,330.1875 486.9063,330.1875 Q484.4063,330.1875 483.0781,328.5469 Q481.7656,326.8906 481.7656,323.7656 Q481.7656,320.6406 483.0781,318.9844 Q484.4063,317.3281 486.9063,317.3281 Q487.6094,317.3281 488.25,317.4844 Q488.9063,317.6406 489.4688,317.9375 L489.4688,320.6563 Q488.8438,320.0781 488.25,319.8125 Q487.6563,319.5313 487.0313,319.5313 Q485.6875,319.5313 485,320.6094 Q484.3125,321.6719 484.3125,323.7656 Q484.3125,325.8594 485,326.9375 Q485.6875,328 487.0313,328 Q487.6563,328 488.25,327.7344 Q488.8438,327.4531 489.4688,326.875 L489.4688,329.5938 Z "/><text fill="#000000" font-family="Arial" font-size="12" lengthAdjust="spacingAndGlyphs" textLength="81" x="500.5" y="328.1074">EnricherCore</text><line style="stroke: #A80036; stroke-width: 1.5;" x1="472.5" x2="583.5" y1="339.9531" y2="339.9531"/><line style="stroke: #A80036; stroke-width: 1.5;" x1="472.5" x2="583.5" y1="347.9531" y2="347.9531"/><!--MD5=[6712063918c03fbd5b4f2691de3e141e]
class ProviderGateway--><rect fill="#FEFECE" filter="url(#f1mpmacelso1y4)" height="48" id="ProviderGateway" style="stroke: #A80036; stroke-width: 1.5;" width="136" x="755" y="429.9531"/><ellipse cx="770" cy="445.9531" fill="#ADD1B2" rx="11" ry="11" style="stroke: #A80036; stroke-width: 1.0;"/><path d="M772.9688,451.5938 Q772.3906,451.8906 771.75,452.0313 Q771.1094,452.1875 770.4063,452.1875 Q767.9063,452.1875 766.5781,450.5469 Q765.2656,448.8906 765.2656,445.7656 Q765.2656,442.6406 766.5781,440.9844 Q767.9063,439.3281 770.4063,439.3281 Q771.1094,439.3281 771.75,439.4844 Q772.4063,439.6406 772.9688,439.9375 L772.9688,442.6563 Q772.3438,442.0781 771.75,441.8125 Q771.1563,441.5313 770.5313,441.5313 Q769.1875,441.5313 768.5,442.6094 Q767.8125,443.6719 767.8125,445.7656 Q767.8125,447.8594 768.5,448.9375 Q769.1875,450 770.5313,450 Q771.1563,450 771.75,449.7344 Q772.3438,449.4531 772.9688,448.875 L772.9688,451.5938 Z "/><text fill="#000000" font-family="Arial" font-size="12" lengthAdjust="spacingAndGlyphs" textLength="104" x="784" y="450.1074">ProviderGateway</text><line style="stroke: #A80036; stroke-width: 1.5;" x1="756" x2="890" y1="461.9531" y2="461.9531"/><line style="stroke: #A80036; stroke-width: 1.5;" x1="756" x2="890" y1="469.9531" y2="469.9531"/><!--MD5=[3b7b9f10a090c7e50b7b39dc7b05b2e1]
class TransformProviderDeps--><rect fill="#FEFECE" filter="url(#f1mpmacelso1y4)" height="48" id="TransformProviderDeps" style="stroke: #A80036; stroke-width: 1.5;" width="178" x="439" y="429.9531"/><ellipse cx="454" cy="445.9531" fill="#ADD1B2" rx="11" ry="11" style="stroke: #A80036; stroke-width: 1.0;"/><path d="M456.9688,451.5938 Q456.3906,451.8906 455.75,452.0313 Q455.1094,452.1875 454.4063,452.1875 Q451.9063,452.1875 450.5781,450.5469 Q449.2656,448.8906 449.2656,445.7656 Q449.2656,442.6406 450.5781,440.9844 Q451.9063,439.3281 454.4063,439.3281 Q455.1094,439.3281 455.75,439.4844 Q456.4063,439.6406 456.9688,439.9375 L456.9688,442.6563 Q456.3438,442.0781 455.75,441.8125 Q455.1563,441.5313 454.5313,441.5313 Q453.1875,441.5313 452.5,442.6094 Q451.8125,443.6719 451.8125,445.7656 Q451.8125,447.8594 452.5,448.9375 Q453.1875,450 454.5313,450 Q455.1563,450 455.75,449.7344 Q456.3438,449.4531 456.9688,448.875 L456.9688,451.5938 Z "/><text fill="#000000" font-family="Arial" font-size="12" lengthAdjust="spacingAndGlyphs" textLength="146" x="468" y="450.1074">TransformProviderDeps</text><line style="stroke: #A80036; stroke-width: 1.5;" x1="440" x2="616" y1="461.9531" y2="461.9531"/><line style="stroke: #A80036; stroke-width: 1.5;" x1="440" x2="616" y1="469.9531" y2="469.9531"/><!--MD5=[671228b2940acef83c2cdbbdcd94a3c9]
class TransformResult--><rect fill="#FEFECE" filter="url(#f1mpmacelso1y4)" height="48" id="TransformResult" style="stroke: #A80036; stroke-width: 1.5;" width="145" x="909.5" y="307.9531"/><ellipse cx="924.5" cy="323.9531" fill="#ADD1B2" rx="11" ry="11" style="stroke: #A80036; stroke-width: 1.0;"/><path d="M927.4688,329.5938 Q926.8906,329.8906 926.25,330.0313 Q925.6094,330.1875 924.9063,330.1875 Q922.4063,330.1875 921.0781,328.5469 Q919.7656,326.8906 919.7656,323.7656 Q919.7656,320.6406 921.0781,318.9844 Q922.4063,317.3281 924.9063,317.3281 Q925.6094,317.3281 926.25,317.4844 Q926.9063,317.6406 927.4688,317.9375 L927.4688,320.6563 Q926.8438,320.0781 926.25,319.8125 Q925.6563,319.5313 925.0313,319.5313 Q923.6875,319.5313 923,320.6094 Q922.3125,321.6719 922.3125,323.7656 Q922.3125,325.8594 923,326.9375 Q923.6875,328 925.0313,328 Q925.6563,328 926.25,327.7344 Q926.8438,327.4531 927.4688,326.875 L927.4688,329.5938 Z "/><text fill="#000000" font-family="Arial" font-size="12" lengthAdjust="spacingAndGlyphs" textLength="102" x="938.5" y="328.1074">TransformResult</text><rect fill="#FFFFFF" height="15.9688" style="stroke: #000000; stroke-width: 1.0; stroke-dasharray: 2.0,2.0;" width="9" x="1048.5" y="304.9531"/><text fill="#000000" font-family="Arial" font-size="12" font-style="italic" lengthAdjust="spacingAndGlyphs" textLength="7" x="1049.5" y="317.0918">T</text><line style="stroke: #A80036; stroke-width: 1.5;" x1="910.5" x2="1053.5" y1="339.9531" y2="339.9531"/><line style="stroke: #A80036; stroke-width: 1.5;" x1="910.5" x2="1053.5" y1="347.9531" y2="347.9531"/><path d="M296,175.9531 L296,231.3516 L640,231.3516 L640,185.9531 L630,175.9531 L296,175.9531 " fill="#FBFB77" filter="url(#f1mpmacelso1y4)" style="stroke: #A80036; stroke-width: 1.0;"/><path d="M630,175.9531 L630,185.9531 L640,185.9531 L630,175.9531 " fill="#FBFB77" style="stroke: #A80036; stroke-width: 1.0;"/><text fill="#000000" font-family="Arial" font-size="13" lengthAdjust="spacingAndGlyphs" textLength="57" x="302" y="193.02">Principle:</text><text fill="#000000" font-family="Arial" font-size="13" lengthAdjust="spacingAndGlyphs" textLength="268" x="302" y="208.1528">- StageCore contains stage business logic</text><text fill="#000000" font-family="Arial" font-size="13" lengthAdjust="spacingAndGlyphs" textLength="323" x="302" y="223.2856">- TransformationEngine contains only op execution</text><!--MD5=[2bc3efd25f6340b2b2fa313c5ebeb2c3]
reverse link StageSpec to MappingSpec--><path d="M1305.6,109.2131 C1278.73,131.6631 1245.03,159.8231 1221.73,179.2831 " fill="none" id="StageSpec&lt;-MappingSpec" style="stroke: #A80036; stroke-width: 1.0;"/><polygon fill="none" points="1301.45,103.5531,1321.29,96.1031,1310.43,114.3031,1301.45,103.5531" style="stroke: #A80036; stroke-width: 1.0;"/><!--MD5=[9aaeee9e6198419b27da719a0f7d4c93]
reverse link StageSpec to NormalizeSpec--><path d="M1349,116.3031 C1349,137.2731 1349,161.6131 1349,179.0631 " fill="none" id="StageSpec&lt;-NormalizeSpec" style="stroke: #A80036; stroke-width: 1.0;"/><polygon fill="none" points="1342,116.1031,1349,96.1031,1356,116.1031,1342,116.1031" style="stroke: #A80036; stroke-width: 1.0;"/><!--MD5=[0fdbf05a4c62e32971c3a34d32951e63]
reverse link StageSpec to EnrichSpec--><path d="M1390.76,109.4931 C1416.26,131.8131 1448.12,159.6831 1470.27,179.0631 " fill="none" id="StageSpec&lt;-EnrichSpec" style="stroke: #A80036; stroke-width: 1.0;"/><polygon fill="none" points="1385.9,114.5431,1375.46,96.1031,1395.12,104.0031,1385.9,114.5431" style="stroke: #A80036; stroke-width: 1.0;"/><!--MD5=[96908236793a76da55ef9700cec5cead]
reverse link StageDsl to MapperDsl--><path d="M656.01,231.1431 C568.59,265.7831 486.76,295.4931 436.05,313.6031 " fill="none" id="StageDsl&lt;-MapperDsl" style="stroke: #A80036; stroke-width: 1.0;"/><polygon fill="none" points="653.57,224.5831,674.74,223.6831,658.75,237.5831,653.57,224.5831" style="stroke: #A80036; stroke-width: 1.0;"/><!--MD5=[aa330961a1788905827dc9326ac95773]
reverse link StageDsl to NormalizerDsl--><path d="M704.72,246.6131 C703.11,251.4431 701.51,256.3031 700,260.9531 C694.92,276.5831 689.37,294.2331 685.12,307.9031 " fill="none" id="StageDsl&lt;-NormalizerDsl" style="stroke: #A80036; stroke-width: 1.0;"/><polygon fill="none" points="698.13,244.2431,711.13,227.5131,711.4,248.6931,698.13,244.2431" style="stroke: #A80036; stroke-width: 1.0;"/><!--MD5=[e9fb5f218f89fb8e12d5d792e55befa4]
reverse link StageDsl to EnricherDsl--><path d="M726.34,247.2531 C729.6,257.9931 734.28,268.9931 741,277.9531 C749.96,289.8831 762.44,299.8731 774.98,307.8531 " fill="none" id="StageDsl&lt;-EnricherDsl" style="stroke: #A80036; stroke-width: 1.0;"/><polygon fill="none" points="719.47,248.6131,721.68,227.5331,733.09,245.3931,719.47,248.6131" style="stroke: #A80036; stroke-width: 1.0;"/><!--MD5=[a58f620c439170278dd39d5247851f49]
reverse link StageEngine to MapperEngine--><path d="M791.79,82.4131 C678.6,97.3331 459.86,129.4831 278,175.9531 C272.46,177.3731 266.74,178.9931 261.04,180.7131 " fill="none" id="StageEngine&lt;-MapperEngine" style="stroke: #A80036; stroke-width: 1.0;"/><polygon fill="none" points="790.93,75.4731,811.67,79.8331,792.74,89.3531,790.93,75.4731" style="stroke: #A80036; stroke-width: 1.0;"/><!--MD5=[68d8d1901f2af8983f3143f6017af8a6]
reverse link StageEngine to NormalizerEngine--><path d="M868,116.3031 C868,137.2731 868,161.6131 868,179.0631 " fill="none" id="StageEngine&lt;-NormalizerEngine" style="stroke: #A80036; stroke-width: 1.0;"/><polygon fill="none" points="861,116.1031,868,96.1031,875,116.1031,861,116.1031" style="stroke: #A80036; stroke-width: 1.0;"/><!--MD5=[ad02912fd0f4c8896ca55d20988c174d]
reverse link StageEngine to EnricherEngine--><path d="M914.5,108.5831 C943.93,131.1331 981.12,159.6331 1006.76,179.2831 " fill="none" id="StageEngine&lt;-EnricherEngine" style="stroke: #A80036; stroke-width: 1.0;"/><polygon fill="none" points="909.83,113.8231,898.21,96.1031,918.35,102.7131,909.83,113.8231" style="stroke: #A80036; stroke-width: 1.0;"/><!--MD5=[75ba939a1b40914dfb99d390a665f623]
reverse link StageCore to MapperCore--><path d="M66.17,247.2631 C71.46,267.5531 77.58,290.9931 81.99,307.9031 " fill="none" id="StageCore&lt;-MapperCore" style="stroke: #A80036; stroke-width: 1.0;"/><polygon fill="none" points="59.33,248.7731,61.05,227.6531,72.87,245.2431,59.33,248.7731" style="stroke: #A80036; stroke-width: 1.0;"/><!--MD5=[85a15ae73b80192747d68ac32b47f559]
reverse link StageCore to NormalizerCore--><path d="M105.71,239.1331 C137.72,261.0131 178.18,288.6831 206.28,307.9031 " fill="none" id="StageCore&lt;-NormalizerCore" style="stroke: #A80036; stroke-width: 1.0;"/><polygon fill="none" points="101.49,244.7231,88.93,227.6531,109.39,233.1631,101.49,244.7231" style="stroke: #A80036; stroke-width: 1.0;"/><!--MD5=[dab27570be34eecf8c432afb63ab0924]
reverse link StageCore to EnricherCore--><path d="M123.93,230.7231 C230.68,255.5031 265.4,234.0331 365,260.9531 C406.62,272.2031 451.47,292.0831 483.57,307.7931 " fill="none" id="StageCore&lt;-EnricherCore" style="stroke: #A80036; stroke-width: 1.0;"/><polygon fill="none" points="121.99,237.4531,104.27,225.8331,125.37,223.8631,121.99,237.4531" style="stroke: #A80036; stroke-width: 1.0;"/><!--MD5=[fa390b8ce2474aa6fedf4f4355b16f8a]
link MapperEngine to MapperCore--><path d="M179.46,227.6531 C160.35,249.2331 131.9,281.3731 111.81,304.0631 " fill="none" id="MapperEngine-&gt;MapperCore" style="stroke: #A80036; stroke-width: 1.0;"/><polygon fill="#A80036" points="108.41,307.9031,117.3712,303.8169,111.7247,304.1598,111.3818,298.5133,108.41,307.9031" style="stroke: #A80036; stroke-width: 1.0;"/><!--MD5=[f07dc97e0f9895f0eec3c0286250f463]
link NormalizerEngine to NormalizerCore--><path d="M797.61,226.5031 C791.67,228.1031 785.75,229.6131 780,230.9531 C578.13,278.0431 522.16,262.1331 320,307.9531 C316.14,308.8331 312.18,309.7831 308.2,310.7831 " fill="none" id="NormalizerEngine-&gt;NormalizerCore" style="stroke: #A80036; stroke-width: 1.0;"/><polygon fill="#A80036" points="303.15,312.0731,312.8618,313.7103,307.9931,310.8302,310.8732,305.9614,303.15,312.0731" style="stroke: #A80036; stroke-width: 1.0;"/><!--MD5=[86896a1e124ac66f923121d79518cbd7]
link EnricherEngine to EnricherCore--><path d="M985.09,227.4631 C945.74,243.9831 889.92,265.4531 839,277.9531 C735.89,303.2631 705.76,285.4431 602,307.9531 C597.94,308.8331 593.78,309.8431 589.6,310.9231 " fill="none" id="EnricherEngine-&gt;EnricherCore" style="stroke: #A80036; stroke-width: 1.0;"/><polygon fill="#A80036" points="584.7,312.2331,594.4262,313.7827,589.5316,310.9466,592.3677,306.052,584.7,312.2331" style="stroke: #A80036; stroke-width: 1.0;"/><!--MD5=[2c46f1f3eb94ea78434fa5ec49959d00]
link MapperEngine to MapperDsl--><path d="M234.3,227.6531 C266.59,249.5031 314.88,282.1731 348.48,304.9031 " fill="none" id="MapperEngine-&gt;MapperDsl" style="stroke: #A80036; stroke-width: 1.0; stroke-dasharray: 7.0,7.0;"/><polygon fill="#A80036" points="352.92,307.9031,347.7032,299.5494,348.7774,305.1033,343.2235,306.1775,352.92,307.9031" style="stroke: #A80036; stroke-width: 1.0;"/><text fill="#000000" font-family="Arial" font-size="13" lengthAdjust="spacingAndGlyphs" textLength="50" x="306" y="274.02">compile</text><!--MD5=[ec25cf955c6fdf0707fc0be84aff797e]
link NormalizerEngine to NormalizerDsl--><path d="M833.15,227.6531 C800.34,249.5031 751.27,282.1731 717.13,304.9031 " fill="none" id="NormalizerEngine-&gt;NormalizerDsl" style="stroke: #A80036; stroke-width: 1.0; stroke-dasharray: 7.0,7.0;"/><polygon fill="#A80036" points="712.63,307.9031,722.3373,306.239,716.7903,305.1296,717.8997,299.5826,712.63,307.9031" style="stroke: #A80036; stroke-width: 1.0;"/><text fill="#000000" font-family="Arial" font-size="13" lengthAdjust="spacingAndGlyphs" textLength="50" x="780" y="274.02">compile</text><!--MD5=[e429ad6868492d90876533c4ce237a4a]
link EnricherEngine to EnricherDsl--><path d="M1014.76,227.6131 C998.72,243.3531 975.92,263.8031 953,277.9531 C930.25,291.9931 903.12,303.7331 879.55,312.5631 " fill="none" id="EnricherEngine-&gt;EnricherDsl" style="stroke: #A80036; stroke-width: 1.0; stroke-dasharray: 7.0,7.0;"/><polygon fill="#A80036" points="874.58,314.4031,884.4099,315.0146,879.2663,312.66,881.6209,307.5165,874.58,314.4031" style="stroke: #A80036; stroke-width: 1.0;"/><text fill="#000000" font-family="Arial" font-size="13" lengthAdjust="spacingAndGlyphs" textLength="50" x="977" y="274.02">compile</text><!--MD5=[7d391d8a76e7d3509f9e5a69f212463f]
link MapperCore to TransformationEngine--><path d="M117.31,356.0931 C137.94,372.3831 166.07,394.5831 190.19,413.6231 " fill="none" id="MapperCore-&gt;TransformationEngine" style="stroke: #A80036; stroke-width: 1.0; stroke-dasharray: 7.0,7.0;"/><polygon fill="#A80036" points="194.33,416.9031,189.7426,408.1879,190.4049,413.8058,184.7869,414.4681,194.33,416.9031" style="stroke: #A80036; stroke-width: 1.0;"/><!--MD5=[3eeb96156f4f1fcdbd0cd270492b6927]
link NormalizerCore to TransformationEngine--><path d="M240,356.0931 C240,371.7831 240,392.9531 240,411.5031 " fill="none" id="NormalizerCore-&gt;TransformationEngine" style="stroke: #A80036; stroke-width: 1.0; stroke-dasharray: 7.0,7.0;"/><polygon fill="#A80036" points="240,416.6631,244,407.6631,240,411.6631,236,407.6631,240,416.6631" style="stroke: #A80036; stroke-width: 1.0;"/><!--MD5=[91cb051bbfa1063ffc5bf7f8a9ed2af2]
link EnricherDsl to TransformationEngine--><path d="M771.24,350.8231 C765.13,352.6831 758.95,354.4331 753,355.9531 C607.62,393.0131 568.35,388.7631 421,416.9531 C404.46,420.1131 387.08,423.5031 369.91,426.8731 " fill="none" id="EnricherDsl-&gt;TransformationEngine" style="stroke: #A80036; stroke-width: 1.0; stroke-dasharray: 7.0,7.0;"/><polygon fill="#A80036" points="364.58,427.9231,374.186,430.0966,369.4845,426.9508,372.6303,422.2493,364.58,427.9231" style="stroke: #A80036; stroke-width: 1.0;"/><!--MD5=[839ccf9f73d8e56d9b427eae15d23f5d]
link TransformationEngine to OperationRegistry--><path d="M240,491.2931 C240,508.3031 240,528.6531 240,546.2731 " fill="none" id="TransformationEngine-&gt;OperationRegistry" style="stroke: #A80036; stroke-width: 1.0;"/><polygon fill="#A80036" points="240,551.6531,244,542.6531,240,546.6531,236,542.6531,240,551.6531" style="stroke: #A80036; stroke-width: 1.0;"/><!--MD5=[24181a62f53de41764d7735832d53241]
link EnricherDsl to ProviderGateway--><path d="M823,356.0931 C823,375.6831 823,403.8231 823,424.7331 " fill="none" id="EnricherDsl-&gt;ProviderGateway" style="stroke: #A80036; stroke-width: 1.0;"/><polygon fill="#A80036" points="823,429.8831,827,420.8831,823,424.8831,819,420.8831,823,429.8831" style="stroke: #A80036; stroke-width: 1.0;"/><!--MD5=[8107395516dde242551f3acd0268cb4e]
link EnricherCore to TransformProviderDeps--><path d="M528,356.0931 C528,375.6831 528,403.8231 528,424.7331 " fill="none" id="EnricherCore-&gt;TransformProviderDeps" style="stroke: #A80036; stroke-width: 1.0;"/><polygon fill="#A80036" points="528,429.8831,532,420.8831,528,424.8831,524,420.8831,528,429.8831" style="stroke: #A80036; stroke-width: 1.0;"/><!--MD5=[1b9c019d0225d09605f9359efb1b228b]
link MapperEngine to TransformResult--><path d="M261.32,227.0131 C266.91,228.5431 272.52,229.8931 278,230.9531 C519.23,277.5731 591.52,201.8531 830,260.9531 C868.28,270.4431 908.7,289.5431 938.23,305.4031 " fill="none" id="MapperEngine-&gt;TransformResult" style="stroke: #A80036; stroke-width: 1.0; stroke-dasharray: 7.0,7.0;"/><polygon fill="#A80036" points="942.87,307.9231,936.8754,300.1087,938.4778,305.5339,933.0526,307.1362,942.87,307.9231" style="stroke: #A80036; stroke-width: 1.0;"/><!--MD5=[c2b6b0b671df389a9c58c3f7e2ef2389]
link NormalizerEngine to TransformResult--><path d="M888.91,227.6531 C908.35,249.2331 937.32,281.3731 957.76,304.0631 " fill="none" id="NormalizerEngine-&gt;TransformResult" style="stroke: #A80036; stroke-width: 1.0; stroke-dasharray: 7.0,7.0;"/><polygon fill="#A80036" points="961.22,307.9031,958.1725,298.5376,957.8752,304.1867,952.2261,303.8893,961.22,307.9031" style="stroke: #A80036; stroke-width: 1.0;"/><!--MD5=[a9991067b44d4733122cbc4e94c9994a]
link EnricherEngine to TransformResult--><path d="M1045.57,227.6631 C1049.69,242.6631 1052.31,262.2431 1045,277.9531 C1040.33,287.9731 1032.74,296.7831 1024.41,304.1831 " fill="none" id="EnricherEngine-&gt;TransformResult" style="stroke: #A80036; stroke-width: 1.0; stroke-dasharray: 7.0,7.0;"/><polygon fill="#A80036" points="1020.27,307.7131,1029.7177,304.931,1024.0793,304.4745,1024.5359,298.8361,1020.27,307.7131" style="stroke: #A80036; stroke-width: 1.0;"/><!--MD5=[85e2b8730a6e52d919f4167d70686d1c]
link StageCore to GMN104--><path d="M80.94,179.2131 C96.39,166.4831 117.11,152.1531 138.5,145.4531 C230.1,116.7631 340.74,149.2831 407.67,175.9431 " fill="none" id="StageCore-GMN104" style="stroke: #A80036; stroke-width: 1.0; stroke-dasharray: 7.0,7.0;"/><!--MD5=[c383ee70ba3617fbfe61f7871167c747]
@startuml
title DSL - Stage Model for Map/Normalize/Enrich (Current)

skinparam defaultFontName Arial

abstract class StageSpec
abstract class StageDsl
abstract class StageEngine
abstract class StageCore

class TransformationEngine {
  +apply(value, ops): EngineResult
  +with_core_ops(): TransformationEngine
}

class OperationRegistry {
  +register(name, op)
  +get(name)
}

class DslIssue {
  +code: str
  +message: str
  +severity: str
}

class EngineResult {
  +value
  +issues: DslIssue[*]
}

class MappingSpec
class NormalizeSpec
class EnrichSpec

class MapperDsl
class NormalizerDsl
class EnricherDsl

class MapperEngine
class NormalizerEngine
class EnricherEngine

class MapperCore
class NormalizerCore
class EnricherCore

class ProviderGateway
class TransformProviderDeps
class TransformResult<T>

StageSpec <|- - MappingSpec
StageSpec <|- - NormalizeSpec
StageSpec <|- - EnrichSpec

StageDsl <|- - MapperDsl
StageDsl <|- - NormalizerDsl
StageDsl <|- - EnricherDsl

StageEngine <|- - MapperEngine
StageEngine <|- - NormalizerEngine
StageEngine <|- - EnricherEngine

StageCore <|- - MapperCore
StageCore <|- - NormalizerCore
StageCore <|- - EnricherCore

MapperEngine - -> MapperCore
NormalizerEngine - -> NormalizerCore
EnricherEngine - -> EnricherCore

MapperEngine ..> MapperDsl : compile
NormalizerEngine ..> NormalizerDsl : compile
EnricherEngine ..> EnricherDsl : compile

MapperCore ..> TransformationEngine
NormalizerCore ..> TransformationEngine
EnricherDsl ..> TransformationEngine
TransformationEngine - -> OperationRegistry

EnricherDsl - -> ProviderGateway
EnricherCore - -> TransformProviderDeps

MapperEngine ..> TransformResult
NormalizerEngine ..> TransformResult
EnricherEngine ..> TransformResult

note right of StageCore
Principle:
- StageCore contains stage business logic
- TransformationEngine contains only op execution
end note

@enduml

PlantUML version 1.2020.02(Sun Mar 01 18:22:07 IRKT 2020)
(GPL source distribution)
Java Runtime: OpenJDK Runtime Environment
JVM: OpenJDK 64-Bit Server VM
Java Version: 17.0.17+10-Debian-1deb12u1
Operating System: Linux
Default Encoding: UTF-8
Language: en
Country: null
--></g></svg>